<?xml version="1.0" encoding="utf-8"?>
<!-- Generator: Adobe Illustrator 19.2.1, SVG Export Plug-In . SVG Version: 6.00 Build 0)  -->
<svg version="1.1" id="Layer_1" xmlns="http://www.w3.org/2000/svg" xmlns:xlink="http://www.w3.org/1999/xlink" height="100" width="100"
	 viewBox="0 0 100 100" style="enable-background:new 0 0 100 100;" xml:space="preserve">
<style type="text/css">
	.st0{fill:#D1D1D1;}
	.st1{fill:#EDEDED;}
	.st2{fill:#4681A0;}
	.st3{fill:#F6F6F6;}
	.st4{fill:#A3E0F5;}
	.st5{fill:#3DB39E;}
	.st6{fill:#4BC2AD;}
	.st7{fill:#EFC75E;}
	.st8{fill:#1F85A9;}
	.st9{fill:#D5D5D5;}
	.st10{fill:#3F7490;}
	.st11{fill:#131313;}
	.st12{fill:#1572B6;}
	.st13{fill:#33A9DC;}
	.st14{fill:#FFFFFF;}
	.st15{fill:#EBEBEB;}
	.st16{fill:#F7DF1E;}
	.st17{fill:#00D8FF;}
	.st18{fill:#DD0031;}
	.st19{fill:#C3002F;}
</style>
<path class="st0" d="M50-0.1c27.6,0,50,22.4,50,50s-22.4,50-50,50S0,77.5,0,49.9S22.4-0.1,50-0.1z"/>
<path class="st1" d="M-97.7,31.1l51.1-13.7c1.6-0.4,3.3,0.5,3.7,2.1l10.1,37.7c0.4,1.6-0.5,3.2-2.1,3.7L-86,74.6
	c-1.6,0.4-3.3-0.5-3.7-2.1l-10.1-37.7C-100.3,33.2-99.4,31.6-97.7,31.1z"/>
<path class="st2" d="M-93.6,34.1l44.8-12c1.2-0.3,2.5,0.4,2.8,1.6l8.4,31.3c0.3,1.2-0.4,2.5-1.6,2.8l-44.8,12
	c-1.2,0.3-2.5-0.4-2.8-1.6L-95.2,37C-95.5,35.7-94.8,34.5-93.6,34.1z"/>
<path class="st3" d="M-88.3,31h52.9c1.7,0,3,1.3,3,3v39c0,1.7-1.4,3-3,3h-52.9c-1.7,0-3-1.3-3-3V34C-91.3,32.4-90,31-88.3,31z"/>
<path class="st4" d="M-85,35h46.4c1.3,0,2.3,1,2.3,2.3v32.4c0,1.3-1,2.3-2.3,2.3H-85c-1.3,0-2.3-1-2.3-2.3V37.3
	C-87.3,36-86.3,35-85,35z"/>
<path class="st5" d="M-83.3,61c-1.4,0-2.7,0.1-4,0.3v8.4c0,1.3,1,2.3,2.3,2.3h17.5c0.1-0.5,0.2-1,0.2-1.5
	C-67.3,65.2-74.5,61-83.3,61z"/>
<path class="st6" d="M-36.3,69.7V57.2c-3.1-0.8-6.5-1.2-10.1-1.2c-14.4,0-26.1,7.2-26.1,16h33.8C-37.4,72-36.3,71-36.3,69.7z"/>
<path class="st7" d="M-87.3,37.3v11.6c0.5,0.1,1,0.1,1.5,0.1c6.9,0,12.5-5.6,12.5-12.5c0-0.5,0-1-0.1-1.5H-85
	C-86.3,35-87.3,36-87.3,37.3z"/>
<path class="st8" d="M-35.4,76h-52.9c-1.7,0-3-1.3-3-3V34c0-0.3,0.1-0.6,0.1-0.9c-1.2,0.4-2.1,1.5-2.1,2.9v39c0,1.7,1.4,3,3,3h52.9
	c1.4,0,2.5-0.9,2.9-2.1C-34.8,75.9-35.1,76-35.4,76z"/>
<path class="st9" d="M-91.3,66.8V34c0-0.3,0.1-0.6,0.1-0.9c-1.2,0.4-2.1,1.5-2.1,2.9v23.3L-91.3,66.8z"/>
<path class="st10" d="M-92.3,33.8c-0.6,0.5-1,1.3-1,2.2v8l2,7.5V34c0-0.2,0-0.3,0.1-0.5L-92.3,33.8z"/>
<g id="Page_1">
	<g id="Layer_1_1_">
		<path id="Shape" class="st11" d="M-17.8,121.1h-8.5l8.8,9.6v4.6h-18.2V130h8.8l-8.8-9.6v-4.6h17.8v5.3H-17.8z M-39.3,121.1h-8.5
			l8.8,9.6v4.6h-18.2V130h8.8l-8.8-9.6v-4.6h17.8v5.3H-39.3z M-60.5,121.3h-9.2v8.4h9.2v5.6h-15.7v-19.5h15.7L-60.5,121.3
			L-60.5,121.3z"/>
		<path id="Shape_1_" class="st12" d="M-88.6,248.4l-9.3-104.3H4.3L-5,248.4L-46.9,260L-88.6,248.4z"/>
		<path id="Shape_2_" class="st13" d="M-46.8,251.1l33.8-9.4l8-89.1h-41.8V251.1z"/>
		<g id="Group" transform="translate(55.000000, 142.000000)">
			<path id="Shape_3_" class="st14" d="M-101.8,48.4h16.9l1.2-13.1h-18.1V22.5l0,0h32L-70,26l-3.1,35.3h-28.6V48.4H-101.8z"/>
			<path id="Shape_4_" class="st15" d="M-101.7,81.7L-101.7,81.7l-14.3-3.8l-0.9-10.2h-6.9h-5.9l1.8,20.1l26.2,7.3h0.1L-101.7,81.7
				L-101.7,81.7z"/>
			<path id="Shape_5_" class="st14" d="M-86,60.7l-1.5,17.1l-14.3,3.9V95l26.2-7.3l0.2-2.2l2.2-24.9H-86V60.7z"/>
			<path id="Shape_6_" class="st15" d="M-101.8,22.5v7.9v4.8l0,0h-30.9l0,0l-0.3-2.9l-0.6-6.5l-0.3-3.4h32.1V22.5z"/>
			<path id="Shape_7_" class="st15" d="M-101.8,48.4v7.9v4.8l0,0h-14l0,0l-0.3-2.9l-0.6-6.5l-0.3-3.4h15.2V48.4z"/>
		</g>
	</g>
</g>
<g id="Page_1_1_">
	<g id="Layer_1_2_">
		<path id="Shape_15_" class="st11" d="M-125.6,11.9h-4.9l5.1,5.5V20h-10.5v-3h5.1l-5.1-5.5V8.8h10.3L-125.6,11.9L-125.6,11.9z
			 M-137.9,11.9h-4.9l5.1,5.5V20h-10.5v-3h5.1l-5.1-5.5V8.8h10.3L-137.9,11.9L-137.9,11.9z M-150.1,12h-5.3v4.8h5.3V20h-9V8.8h9V12
			L-150.1,12z"/>
		<path id="Shape_14_" class="st12" d="M-166.3,85.2l-5.4-60h58.8l-5.4,60l-24.1,6.7L-166.3,85.2z"/>
		<path id="Shape_13_" class="st13" d="M-142.2,86.7l19.5-5.4l4.6-51.3h-24L-142.2,86.7L-142.2,86.7z"/>
		<g id="Group_1_" transform="translate(55.000000, 142.000000)">
			<path id="Shape_12_" class="st14" d="M-197.2-90.2h9.7l0.7-7.5h-10.4v-7.4l0,0h18.4l-0.2,2l-1.8,20.3h-16.5v-7.4H-197.2z"/>
			<path id="Shape_11_" class="st15" d="M-197.2-71.1L-197.2-71.1l-8.2-2.2l-0.5-5.9h-4h-3.4l1,11.6l15.1,4.2l0,0L-197.2-71.1
				L-197.2-71.1z"/>
			<path id="Shape_10_" class="st14" d="M-188.1-83.2l-0.9,9.9l-8.2,2.2v7.7l15.1-4.2l0.1-1.2l1.3-14.3L-188.1-83.2L-188.1-83.2z"/>
			<path id="Shape_9_" class="st15" d="M-197.2-105.1v4.6v2.8l0,0H-215l0,0l-0.1-1.7l-0.3-3.7l-0.2-2
				C-215.6-105.1-197.2-105.1-197.2-105.1z"/>
			<path id="Shape_8_" class="st15" d="M-197.2-90.2v4.6v2.8l0,0h-8.1l0,0l-0.1-1.7l-0.3-3.7l-0.2-2
				C-205.9-90.2-197.2-90.2-197.2-90.2z"/>
		</g>
	</g>
</g>
<g>
	<path class="st16" d="M361.9,0c27.6,0,50,22.4,50,50s-22.4,50-50,50s-50-22.4-50-50S334.3,0,361.9,0z"/>
	<path d="M376.1,73.2c1.9,3.3,4.4,5.7,8.9,5.7c3.7,0,6.1-1.9,6.1-4.6c0-3.2-2.4-4.4-6.5-6.2l-2.2-1c-6.5-2.9-10.8-6.5-10.8-14.1
		c0-7,5.1-12.4,13.1-12.4c5.7,0,9.8,2.1,12.8,7.5l-7,4.7c-1.5-2.9-3.2-4-5.8-4c-2.6,0-4.3,1.7-4.3,4c0,2.8,1.7,4,5.5,5.7l2.2,1
		c7.6,3.4,11.9,6.9,11.9,14.7c0,8.4-6.3,13.1-14.9,13.1c-8.3,0-13.7-4.1-16.4-9.6L376.1,73.2z M344.4,74c1.4,2.6,2.7,4.8,5.8,4.8
		c2.9,0,4.8-1.2,4.8-5.9V41h9v32c0,9.7-5.4,14.1-13.4,14.1c-7.2,0-11.3-3.9-13.5-8.6L344.4,74z"/>
</g>
<g>
	<circle class="st17" cx="284.8" cy="49.8" r="7.5"/>
	<path class="st17" d="M284.8,67.1c-10.6,0-19.8-1.2-26.7-3.6c-4.5-1.5-8.3-3.6-11-5.9c-2.9-2.5-4.4-5.1-4.4-7.7
		c0-5,5.5-9.8,14.6-13c7.5-2.6,17.3-4.1,27.5-4.1c10,0,19.7,1.4,27.1,4c4.4,1.5,8,3.4,10.6,5.6c2.8,2.4,4.3,5,4.3,7.5
		c0,5.2-6.1,10.4-15.9,13.7C304,65.8,294.6,67.1,284.8,67.1z M284.8,36.4c-9.7,0-19.3,1.4-26.3,3.9c-8.4,2.9-12.2,7-12.2,9.6
		c0,2.8,4.1,7.2,13,10.2c6.5,2.2,15.4,3.4,25.5,3.4c9.5,0,18.4-1.2,25-3.4c9.2-3.1,13.5-7.5,13.5-10.2c0-1.4-1.1-3.1-3-4.7
		c-2.3-1.9-5.6-3.6-9.5-5C303.6,37.7,294.4,36.4,284.8,36.4z"/>
	<path class="st17" d="M267.6,87.3c-1.5,0-2.9-0.3-4-1c-4.3-2.5-5.8-9.6-4-19.2c1.5-7.8,5.1-17,10.2-25.8c5-8.7,11-16.3,17-21.5
		c3.5-3,7-5.2,10.2-6.4c3.5-1.3,6.5-1.3,8.7,0c4.5,2.6,6,10.5,3.9,20.6c-1.5,7.2-5,15.9-10,24.4c-5.3,9.1-11,16.5-16.5,21.3
		c-3.6,3.1-7.2,5.4-10.6,6.6C270.8,87,269.1,87.3,267.6,87.3z M301.9,16.1c-1,0-2.2,0.2-3.6,0.7c-2.8,1-5.9,3-9.1,5.7
		c-5.7,4.9-11.4,12.2-16.2,20.6l0,0c-4.8,8.4-8.4,17.4-9.8,24.7c-1.7,8.8-0.1,14,2.3,15.4c2.4,1.4,8.2,0.1,15.3-6.1
		c5.2-4.5,10.6-11.6,15.7-20.4c4.8-8.3,8.2-16.6,9.6-23.4c2-9.5,0.3-15.4-2.1-16.8C303.4,16.2,302.6,16.1,301.9,16.1z"/>
	<path class="st17" d="M301.9,87.4c-4.1,0-9.2-2.5-14.6-7.1c-6-5.2-12.2-12.9-17.3-21.8l0,0c-5-8.7-8.6-17.7-10.1-25.5
		c-0.9-4.5-1-8.7-0.5-12c0.6-3.6,2.1-6.2,4.3-7.5c4.5-2.6,12.1,0.1,19.8,6.9c5.5,4.9,11.2,12.3,16.2,20.8
		c5.3,9.1,8.8,17.7,10.3,24.9c0.9,4.6,1.1,9,0.4,12.5c-0.7,3.7-2.2,6.4-4.5,7.7C304.6,87,303.3,87.4,301.9,87.4z M273,56.7
		c4.9,8.4,10.9,16,16.5,20.8c6.8,5.8,12.1,7.1,14.4,5.7c2.4-1.4,4.2-7.1,2.4-16.3c-1.3-6.8-4.7-15-9.8-23.8
		c-4.8-8.2-10.3-15.3-15.5-20c-7.3-6.5-13.2-7.9-15.6-6.5c-1.2,0.7-2.1,2.5-2.6,5c-0.5,2.9-0.3,6.6,0.5,10.7
		C264.8,39.7,268.1,48.4,273,56.7L273,56.7z"/>
</g>
<g>
	<polygon class="st18" points="50,9.3 50,9.3 50,9.3 12.2,22.8 18,72.8 50,90.5 50,90.5 50,90.5 82,72.8 87.8,22.8 	"/>
	<polygon class="st19" points="50,9.3 50,18.3 50,18.3 50,59.4 50,59.4 50,90.5 50,90.5 82,72.8 87.8,22.8 	"/>
	<path class="st14" d="M50,18.3l-23.6,53l0,0h8.8l0,0l4.8-11.9H60l4.8,11.9l0,0h8.8l0,0L50,18.3L50,18.3L50,18.3L50,18.3L50,18.3z
		 M56.9,52.1H43.1L50,35.5L56.9,52.1z"/>
</g>
</svg>
