<?xml version="1.0" encoding="utf-8"?>
<!-- Generator: Adobe Illustrator 19.2.1, SVG Export Plug-In . SVG Version: 6.00 Build 0)  -->
<svg version="1.1" id="Layer_1" xmlns="http://www.w3.org/2000/svg" xmlns:xlink="http://www.w3.org/1999/xlink" width="100" height="100"
	 viewBox="0 0 100 100" style="enable-background:new 0 0 100 100;" xml:space="preserve">
<style type="text/css">
	.st0{fill:#FAFAFA;}
	.st1{fill:#EDEDED;}
	.st2{fill:#4681A0;}
	.st3{fill:#F6F6F6;}
	.st4{fill:#A3E0F5;}
	.st5{fill:#3DB39E;}
	.st6{fill:#4BC2AD;}
	.st7{fill:#EFC75E;}
	.st8{fill:#1F85A9;}
	.st9{fill:#D5D5D5;}
	.st10{fill:#3F7490;}
	.st11{fill:#131313;}
	.st12{fill:#1572B6;}
	.st13{fill:#33A9DC;}
	.st14{fill:#FFFFFF;}
	.st15{fill:#EBEBEB;}
	.st16{fill:#F7DF1E;}
	.st17{fill:#00D8FF;}
	.st18{fill:#131B28;}
	.st19{fill:#F4FFB0;}
	.st20{fill:#563D7C;}
</style>
<path class="st0" d="M50.2-0.1c27.6,0,50,22.4,50,50s-22.4,50-50,50s-50-22.4-50-50S22.6-0.1,50.2-0.1z"/>
<path class="st1" d="M-97.7,31.1l51.1-13.7c1.6-0.4,3.3,0.5,3.7,2.1l10.1,37.7c0.4,1.6-0.5,3.2-2.1,3.7l-51.1,13.7
	c-1.6,0.4-3.3-0.5-3.7-2.1l-10.1-37.7C-100.3,33.2-99.4,31.6-97.7,31.1z"/>
<path class="st2" d="M-93.6,34.1l44.8-12c1.2-0.3,2.5,0.4,2.8,1.6l8.4,31.3c0.3,1.2-0.4,2.5-1.6,2.8l-44.8,12
	c-1.2,0.3-2.5-0.4-2.8-1.6L-95.2,37C-95.5,35.7-94.8,34.5-93.6,34.1z"/>
<path class="st3" d="M-88.3,31h52.9c1.7,0,3,1.3,3,3v39c0,1.7-1.4,3-3,3h-52.9c-1.7,0-3-1.3-3-3V34C-91.3,32.4-90,31-88.3,31z"/>
<path class="st4" d="M-85,35h46.4c1.3,0,2.3,1,2.3,2.3v32.4c0,1.3-1,2.3-2.3,2.3H-85c-1.3,0-2.3-1-2.3-2.3V37.3
	C-87.3,36-86.3,35-85,35z"/>
<path class="st5" d="M-83.3,61c-1.4,0-2.7,0.1-4,0.3v8.4c0,1.3,1,2.3,2.3,2.3h17.5c0.1-0.5,0.2-1,0.2-1.5
	C-67.3,65.2-74.5,61-83.3,61z"/>
<path class="st6" d="M-36.3,69.7V57.2c-3.1-0.8-6.5-1.2-10.1-1.2c-14.4,0-26.1,7.2-26.1,16h33.8C-37.4,72-36.3,71-36.3,69.7z"/>
<path class="st7" d="M-87.3,37.3v11.6c0.5,0.1,1,0.1,1.5,0.1c6.9,0,12.5-5.6,12.5-12.5c0-0.5,0-1-0.1-1.5H-85
	C-86.3,35-87.3,36-87.3,37.3z"/>
<path class="st8" d="M-35.4,76h-52.9c-1.7,0-3-1.3-3-3V34c0-0.3,0.1-0.6,0.1-0.9c-1.2,0.4-2.1,1.5-2.1,2.9v39c0,1.7,1.4,3,3,3h52.9
	c1.4,0,2.5-0.9,2.9-2.1C-34.8,75.9-35.1,76-35.4,76z"/>
<path class="st9" d="M-91.3,66.8V34c0-0.3,0.1-0.6,0.1-0.9c-1.2,0.4-2.1,1.5-2.1,2.9v23.3L-91.3,66.8z"/>
<path class="st10" d="M-92.3,33.8c-0.6,0.5-1,1.3-1,2.2V44l2,7.5V34c0-0.2,0-0.3,0.1-0.5L-92.3,33.8z"/>
<g id="Page_1_1_">
	<g id="Layer_1_2_">
		<path id="Shape_15_" class="st11" d="M-125.6,11.9h-4.9l5.1,5.5V20h-10.5V17h5.1l-5.1-5.5V8.8h10.3V11.9L-125.6,11.9z
			 M-137.9,11.9h-4.9l5.1,5.5V20h-10.5V17h5.1l-5.1-5.5V8.8h10.3V11.9L-137.9,11.9z M-150.1,12h-5.3v4.8h5.3V20h-9V8.8h9V12
			L-150.1,12z"/>
		<path id="Shape_14_" class="st12" d="M-166.3,85.2l-5.4-60h58.8l-5.4,60l-24.1,6.7L-166.3,85.2z"/>
		<path id="Shape_13_" class="st13" d="M-142.2,86.7l19.5-5.4l4.6-51.3h-24V86.7z"/>
		<g id="Group_1_" transform="translate(55.000000, 142.000000)">
			<path id="Shape_12_" class="st14" d="M-197.2-90.2h9.7l0.7-7.5h-10.4v-7.4h0h18.4l-0.2,2l-1.8,20.3h-16.5V-90.2z"/>
			<path id="Shape_11_" class="st15" d="M-197.2-71.1L-197.2-71.1l-8.2-2.2l-0.5-5.9h-4h-3.4l1,11.6l15.1,4.2l0,0V-71.1z"/>
			<path id="Shape_10_" class="st14" d="M-188.1-83.2l-0.9,9.9l-8.2,2.2v7.7l15.1-4.2l0.1-1.2l1.3-14.3H-188.1z"/>
			<path id="Shape_9_" class="st15" d="M-197.2-105.1v4.6v2.8v0H-215h0l-0.1-1.7l-0.3-3.7l-0.2-2H-197.2z"/>
			<path id="Shape_8_" class="st15" d="M-197.2-90.2v4.6v2.8v0h-8.1h0l-0.1-1.7l-0.3-3.7l-0.2-2H-197.2z"/>
		</g>
	</g>
</g>
<g>
	<path class="st16" d="M361.9,0c27.6,0,50,22.4,50,50s-22.4,50-50,50c-27.6,0-50-22.4-50-50S334.3,0,361.9,0z"/>
	<path d="M376.1,73.2c1.9,3.3,4.4,5.7,8.9,5.7c3.7,0,6.1-1.9,6.1-4.6c0-3.2-2.4-4.4-6.5-6.2l-2.2-1c-6.5-2.9-10.8-6.5-10.8-14.1
		c0-7,5.1-12.4,13.1-12.4c5.7,0,9.8,2.1,12.8,7.5l-7,4.7c-1.5-2.9-3.2-4-5.8-4c-2.6,0-4.3,1.7-4.3,4c0,2.8,1.7,4,5.5,5.7l2.2,1
		c7.6,3.4,11.9,6.9,11.9,14.7c0,8.4-6.3,13.1-14.9,13.1c-8.3,0-13.7-4.1-16.4-9.6L376.1,73.2z M344.4,74c1.4,2.6,2.7,4.8,5.8,4.8
		c2.9,0,4.8-1.2,4.8-5.9V41h9v32c0,9.7-5.4,14.1-13.4,14.1c-7.2,0-11.3-3.9-13.5-8.6L344.4,74z"/>
</g>
<g>
	<circle class="st17" cx="243" cy="49.8" r="7.5"/>
	<path class="st17" d="M243,67.1c-10.6,0-19.8-1.2-26.7-3.6c-4.5-1.5-8.3-3.6-11-5.9c-2.9-2.5-4.4-5.1-4.4-7.7c0-5,5.5-9.8,14.6-13
		c7.5-2.6,17.3-4.1,27.5-4.1c10,0,19.7,1.4,27.1,4c4.4,1.5,8,3.4,10.6,5.6c2.8,2.4,4.3,5,4.3,7.5c0,5.2-6.1,10.4-15.9,13.7
		C262.2,65.8,252.9,67.1,243,67.1z M243,36.4c-9.7,0-19.3,1.4-26.3,3.9c-8.4,2.9-12.2,7-12.2,9.6c0,2.8,4.1,7.2,13,10.2
		c6.5,2.2,15.4,3.4,25.5,3.4c9.5,0,18.4-1.2,25-3.4c9.2-3.1,13.5-7.5,13.5-10.2c0-1.4-1.1-3.1-3-4.7c-2.3-1.9-5.6-3.6-9.5-5
		C261.9,37.7,252.6,36.4,243,36.4z"/>
	<path class="st17" d="M225.9,87.3c-1.5,0-2.9-0.3-4-1c-4.3-2.5-5.8-9.6-4-19.2c1.5-7.8,5.1-17,10.2-25.8c5-8.7,11-16.3,17-21.5
		c3.5-3,7-5.2,10.2-6.4c3.5-1.3,6.5-1.3,8.7,0c4.5,2.6,6,10.5,3.9,20.6c-1.5,7.2-5,15.9-10,24.4c-5.3,9.1-11,16.5-16.5,21.3
		c-3.6,3.1-7.2,5.4-10.6,6.6C229,87,227.4,87.3,225.9,87.3z M260.1,16.1c-1,0-2.2,0.2-3.6,0.7c-2.8,1-5.9,3-9.1,5.7
		c-5.7,4.9-11.4,12.2-16.2,20.6v0c-4.8,8.4-8.4,17.4-9.8,24.7c-1.7,8.8-0.1,14,2.3,15.4c2.4,1.4,8.2,0.1,15.3-6.1
		c5.2-4.5,10.6-11.6,15.7-20.4c4.8-8.3,8.2-16.6,9.6-23.4c2-9.5,0.3-15.4-2.1-16.8C261.6,16.2,260.9,16.1,260.1,16.1z"/>
	<path class="st17" d="M260.1,87.4c-4.1,0-9.2-2.5-14.6-7.1c-6-5.2-12.2-12.9-17.3-21.8l0,0c-5-8.7-8.6-17.7-10.1-25.5
		c-0.9-4.5-1-8.7-0.5-12c0.6-3.6,2.1-6.2,4.3-7.5c4.5-2.6,12.1,0.1,19.8,6.9c5.5,4.9,11.2,12.3,16.2,20.8
		c5.3,9.1,8.8,17.7,10.3,24.9c0.9,4.6,1.1,9,0.4,12.5c-0.7,3.7-2.2,6.4-4.5,7.7C262.9,87,261.5,87.4,260.1,87.4z M231.3,56.7
		c4.9,8.4,10.9,16,16.5,20.8c6.8,5.8,12.1,7.1,14.4,5.7c2.4-1.4,4.2-7.1,2.4-16.3c-1.3-6.8-4.7-15-9.8-23.8
		c-4.8-8.2-10.3-15.3-15.5-20c-7.3-6.5-13.2-7.9-15.6-6.5c-1.2,0.7-2.1,2.5-2.6,5c-0.5,2.9-0.3,6.6,0.5,10.7
		C223,39.7,226.4,48.4,231.3,56.7L231.3,56.7z"/>
</g>
<path class="st18" d="M-25.8,251.6c0,0,8.5,0.1,13.9,0.1C-16,251.7-22.7,251.6-25.8,251.6C-25.8,251.6-25.8,251.6-25.8,251.6
	L-25.8,251.6z"/>
<path class="st19" d="M50.2-0.1c27.6,0,50,22.4,50,50s-22.4,50-50,50s-50-22.4-50-50S22.6-0.1,50.2-0.1z"/>
<g>
	<path class="st18" d="M32.6,47.3L32.6,47.3L32,49.6L32.6,47.3L32.6,47.3z"/>
	<path class="st18" d="M36,52.3l-0.7,0L36,52.3z"/>
	<path class="st18" d="M35.8,55.8L35.8,55.8l-4.3,0L35.8,55.8L35.8,55.8z"/>
	<path class="st18" d="M36.7,52.4l-0.7,0L36.7,52.4z"/>
	<path class="st18" d="M36.2,55.5l0.8-2.9L36.2,55.5L36.2,55.5L36.2,55.5z"/>
	<path class="st18" d="M52.1,42.3l-1.4,6.6C50.7,48.9,52.1,42.3,52.1,42.3z"/>
	<path class="st18" d="M48.5,42.3l-1.1,4.9L48.5,42.3L48.5,42.3z"/>
	<path class="st18" d="M51.9,42h-3c-0.2,0-0.3,0.1-0.4,0.3l-1.1,4.9l-1.1,4.9c0,0.2-0.2,0.3-0.4,0.3h-2.1c-2.1,0-1.9-1.5-1.4-3.4
		c0,0,0,0,0-0.1l0-0.3c0,0,0,0,0,0l0.1-0.5l0.1-0.5c0-0.2,0.1-0.4,0.1-0.6l0.5-2.4l0.5-2.4c0-0.2-0.1-0.3-0.2-0.3h-3.1
		c-0.2,0-0.3,0.1-0.4,0.3l-0.7,3.1l-0.7,3.1c0,0,0,0,0,0l-0.1,0.3c-0.8,3.5-0.6,6.8,3.6,6.9c0.1,0,0.1,0,0.1,0h6.5
		c0.2,0,0.3-0.1,0.4-0.3l1.4-6.6l1.4-6.6C52.2,42.1,52,42,51.9,42L51.9,42z"/>
	<path class="st18" d="M63.9,52.5c0.2,0,0.3,0.1,0.2,0.3l-0.3,1.4"/>
	<path class="st18" d="M63.5,55.6l0.3-1.4L63.5,55.6C63.5,55.6,63.5,55.6,63.5,55.6L63.5,55.6z"/>
	<path class="st18" d="M63.2,55.9C63.2,55.9,63.2,55.9,63.2,55.9c-0.9,0-3.5,0-5.5,0C60,56,63.2,55.9,63.2,55.9L63.2,55.9z"/>
	<path class="st18" d="M55.8,50.6c0-0.2,0.2-0.4,0.3-0.4l-0.4,0C55.6,51.9,55.8,50.6,55.8,50.6L55.8,50.6z"/>
	<path class="st18" d="M57.9,56C57.9,56,57.9,56,57.9,56C57.9,56,57.9,56,57.9,56z"/>
	<path class="st18" d="M63.9,52.5c0.2,0,0.3,0.1,0.2,0.3l-0.3,1.4l0,0.2"/>
	<path class="st18" d="M59.3,55.9L59.3,55.9L59.3,55.9z"/>
	<path class="st18" d="M58.6,56L58.6,56L58.6,56z"/>
	<path class="st18" d="M58.4,56C58.3,56,58.3,56,58.4,56C58.3,56,58.3,56,58.4,56z"/>
	<path class="st18" d="M58.1,56L58.1,56L58.1,56z"/>
	<path class="st18" d="M58.5,56c-0.1,0-0.1,0-0.2,0C58.4,56,58.5,56,58.5,56z"/>
	<path class="st18" d="M59.3,55.9c-0.2,0-0.5,0-0.7,0C58.8,56,59.1,55.9,59.3,55.9z"/>
	<path class="st18" d="M63.2,55.9L63.2,55.9c-0.6,0-2.2,0-3.8,0C60.9,55.9,62.5,55.9,63.2,55.9z"/>
	<path class="st18" d="M63.5,55.6l0.2-1.2L63.5,55.6C63.5,55.6,63.5,55.6,63.5,55.6L63.5,55.6z"/>
	<path class="st18" d="M58.3,56h-0.2H58.3z"/>
	<path class="st18" d="M57.8,56h-0.2H57.8z"/>
	<path class="st18" d="M58.1,56h-0.2H58.1z"/>
	<path class="st18" d="M14.1,50.7l0.5-2.1L14.1,51l-0.5,2.4l0.4-2.1C14,51.1,14.1,50.8,14.1,50.7L14.1,50.7z"/>
	<path class="st18" d="M19.7,42h-3.3c-0.2,0-0.3,0.1-0.4,0.3l-0.3,1.4L15.4,45c0,0.2,0.1,0.3,0.2,0.3H19c0.2,0,0.3-0.1,0.4-0.3
		l0.3-1.4l0.3-1.4v0C20,42.1,19.9,42,19.7,42L19.7,42z"/>
	<path class="st18" d="M19,46.5L19,46.5L18,51L19,46.5z"/>
	<path class="st18" d="M15.1,46.5l-0.5,2.1C14.6,48.6,15.1,46.5,15.1,46.5z"/>
	<path class="st18" d="M18.8,46.2h-3.3c-0.2,0-0.3,0.1-0.4,0.3l-0.5,2.1l-0.5,2.1c0,0.2-0.1,0.4-0.1,0.6l-0.4,2.1l-0.4,2.1
		c0,0.2-0.1,0.4-0.2,0.6c0,0-0.6,1.8-1.7,1.8c0,0-0.1,0-0.1,0c-0.5,0-0.9,0-0.9,0h0c-0.2,0-0.3,0.1-0.4,0.3l-0.3,1.4l-0.3,1.4
		c0,0.2,0.1,0.3,0.2,0.3c0.6,0,1.9,0,2.7,0c2.6,0,4-1.4,4.9-5.6l1-4.8l1-4.5C19,46.4,18.9,46.2,18.8,46.2L18.8,46.2z"/>
	<path class="st18" d="M66,55.8c-0.2,0-0.3-0.1-0.2-0.3l2.5-11.7"/>
	<path class="st18" d="M69.4,55.5l1-5L69.4,55.5z"/>
	<path class="st18" d="M65.8,55.6c0-0.1,0-0.3,0-0.4l1.2-5.6l-1.2,5.9c0,0.2,0.1,0.3,0.2,0.3h0.3C66.1,55.8,65.8,55.7,65.8,55.6
		L65.8,55.6z"/>
	<path class="st18" d="M69.3,55.7c-0.1,0-0.3,0.1-0.5,0.1h0.3c0.2,0,0.3-0.1,0.4-0.3l0.1-0.3C69.5,55.4,69.3,55.7,69.3,55.7
		L69.3,55.7z"/>
	<path class="st18" d="M70,53l0.4-2.2c0,0,0,0,0,0L70,53L70,53z"/>
	<path class="st18" d="M79.8,44.6l0.1,0.6c0,0.2-0.1,0.3-0.2,0.3"/>
	<path class="st18" d="M69.5,55.2L70,53L69.5,55.2z"/>
	<path class="st18" d="M79.7,44l0.1,0.6L79.7,44z"/>
	<path class="st18" d="M70.4,50.8c0-0.2,0.1-0.4,0.1-0.6L71,48l-0.5,2.5L70.4,50.8L70.4,50.8z"/>
	<path class="st18" d="M68.3,43.6c0,0.2-0.1,0.4-0.1,0.5L67,49.6l1.2-5.9L68.3,43.6L68.3,43.6z"/>
	<path class="st18" d="M80,45.1l-0.1-0.6L79.7,44l-0.1-0.3c-0.3-1-1.1-1.7-2.8-1.7l-2.7,0l-2.5,0h-2.8c-0.2,0-0.3,0.1-0.4,0.3h0
		l-0.1,0.6l-0.1,0.7l0,0.2L67,49.6l-1.2,5.6c0,0.2,0,0.4,0,0.4c0,0.1,0.3,0.1,0.5,0.1h2.5c0.2,0,0.4,0,0.5-0.1
		c0.1,0,0.2-0.4,0.3-0.5L70,53l0.4-2.2c0,0,0,0,0,0l0.1-0.3L71,48l0.5-2.2c0-0.2,0.2-0.3,0.4-0.3l7.9,0C79.9,45.4,80,45.3,80,45.1
		L80,45.1z"/>
	<path class="st18" d="M90.1,40c-0.2,0-0.4,0-0.6,0H87c-0.2,0-0.4,0.1-0.5,0.3l-5.6,8.2c-0.1,0.1-0.2,0.1-0.2,0l-0.4-1.8
		c0-0.2-0.2-0.3-0.4-0.3h-3.6c-0.2,0-0.3,0.1-0.2,0.3l1.6,5.6c0,0.2,0,0.4,0,0.6L77,55.5c0,0.2,0.1,0.3,0.2,0.3h3.5
		c0.2,0,0.3-0.1,0.4-0.3l0.7-2.7c0-0.2,0.2-0.4,0.3-0.5l9.1-12c0.1-0.1,0-0.2-0.1-0.2L90.1,40L90.1,40z"/>
	<path class="st18" d="M61.6,47L61.6,47c0,0.2-0.2,0.3-0.4,0.3h-4.5c-0.2,0-0.2-0.1-0.2-0.2c0,0,0,0,0,0c0,0,0,0,0,0c0,0,0,0,0,0
		c0,0,0,0,0-0.1c0.4-1.2,1.3-1.9,3-1.9C61.4,45.1,61.7,46,61.6,47L61.6,47z M60.3,41.8c-5.8,0-7.2,3.5-8,7.1c-0.8,3.6-0.7,7,5.3,7
		h0.2c0,0,0,0,0.1,0h0.4c0,0,0,0,0.1,0c0.1,0,0.1,0,0.2,0h0c0.2,0,0.5,0,0.7,0h0c1.6,0,3.2,0,3.8,0c0.2,0,0.3-0.1,0.4-0.3l0.2-1.2
		l0-0.2l0.3-1.4c0-0.2-0.1-0.3-0.2-0.3h-5.4c-2.2,0-2.8-0.6-2.6-2.3h8.7l0,0c0,0,0,0,0,0c0.1,0,0.3-0.1,0.3-0.2c0,0,0,0,0-0.1l0,0
		C66.2,45.1,65.8,41.8,60.3,41.8L60.3,41.8z"/>
	<path class="st18" d="M32.7,47l-0.1,0.3c0,0,0,0,0,0L32,49.6l-0.7,2.3c0,0.2-0.2,0.3-0.4,0.3h-3.5c-2.6,0-3.3-2.1-2.6-5.1
		c0.6-3.1,1.9-5,4.5-5.2C32.9,41.7,33.6,44.1,32.7,47L32.7,47z M35.1,52.1c0,0,1.6-4,2-6.3c0.5-3.1-1-7.5-7-7.5
		c-5.9,0-8.5,4.3-9.4,8.9c-1,4.7,0.3,8.7,6.2,8.7l4.6,0l4.3,0c0.2,0,0.3-0.1,0.4-0.3l0.8-2.9c0-0.2-0.1-0.3-0.2-0.3l-0.7,0l-0.7,0
		C35.1,52.3,35.1,52.3,35.1,52.1C35.1,52.1,35.1,52.1,35.1,52.1L35.1,52.1z"/>
	<path class="st18" d="M64.3,49.4c0,0.1-0.1,0.2-0.2,0.2c-0.1,0-0.2-0.1-0.2-0.2c0-0.1,0.1-0.2,0.2-0.2
		C64.2,49.2,64.3,49.3,64.3,49.4z"/>
</g>
<g>
	<path class="st20" d="M559.3,87.3c0,7.1,5.8,12.9,12.9,12.9h74.4c7.1,0,12.9-5.8,12.9-12.9V12.9c0-7.1-5.8-12.9-12.9-12.9h-74.4
		c-7.1,0-12.9,5.8-12.9,12.9V87.3z"/>
	<path class="st14" d="M600.9,44.3V30.1h12.5c1.2,0,2.3,0.1,3.4,0.3c1.1,0.2,2.1,0.6,2.9,1.1s1.5,1.2,2,2.1s0.8,2.1,0.8,3.5
		c0,2.5-0.8,4.4-2.3,5.5c-1.5,1.1-3.5,1.7-5.9,1.7H600.9L600.9,44.3z M587.6,19.8v60.7H617c2.7,0,5.4-0.3,7.9-1
		c2.6-0.7,4.9-1.7,6.9-3.1s3.6-3.2,4.8-5.5c1.2-2.2,1.8-4.9,1.8-7.9c0-3.8-0.9-7-2.8-9.7c-1.8-2.7-4.6-4.6-8.4-5.7
		c2.7-1.3,4.8-3,6.2-5c1.4-2,2.1-4.6,2.1-7.6c0-2.8-0.5-5.2-1.4-7.1s-2.3-3.5-4-4.6c-1.7-1.2-3.7-2-6.1-2.5c-2.4-0.5-5-0.8-7.9-0.8
		H587.6L587.6,19.8z M600.9,70.1V53.4h14.5c2.9,0,5.2,0.7,7,2c1.8,1.3,2.6,3.6,2.6,6.7c0,1.6-0.3,2.9-0.8,3.9
		c-0.5,1-1.3,1.8-2.2,2.4s-2,1-3.1,1.3c-1.2,0.3-2.4,0.4-3.7,0.4H600.9L600.9,70.1z"/>
</g>
<path class="st14" d="M485.1,44.2V30h12.5c1.2,0,2.3,0.1,3.4,0.3s2.1,0.6,2.9,1.1s1.5,1.2,2,2.1c0.5,0.9,0.8,2.1,0.8,3.5
	c0,2.5-0.8,4.4-2.3,5.5c-1.5,1.1-3.5,1.7-5.9,1.7H485.1L485.1,44.2z M471.8,19.6v60.7h29.4c2.7,0,5.4-0.3,7.9-1
	c2.6-0.7,4.9-1.7,6.9-3.1c2-1.4,3.6-3.2,4.8-5.5c1.2-2.2,1.8-4.9,1.8-7.9c0-3.8-0.9-7-2.8-9.7s-4.6-4.6-8.4-5.7c2.7-1.3,4.8-3,6.2-5
	c1.4-2,2.1-4.6,2.1-7.6c0-2.8-0.5-5.2-1.4-7.1c-0.9-1.9-2.3-3.5-4-4.6s-3.7-2-6.1-2.5c-2.4-0.5-5-0.8-7.9-0.8H471.8L471.8,19.6z
	 M485.1,69.9V53.2h14.5c2.9,0,5.2,0.7,7,2c1.8,1.3,2.6,3.6,2.6,6.7c0,1.6-0.3,2.9-0.8,3.9c-0.5,1-1.3,1.8-2.2,2.4s-2,1-3.1,1.3
	c-1.2,0.3-2.4,0.4-3.7,0.4H485.1L485.1,69.9z"/>
</svg>
