<?xml version="1.0" encoding="utf-8"?>
<!-- Generator: Adobe Illustrator 19.2.1, SVG Export Plug-In . SVG Version: 6.00 Build 0)  -->
<svg version="1.1" id="Layer_1" xmlns="http://www.w3.org/2000/svg" xmlns:xlink="http://www.w3.org/1999/xlink" width="100" height="100"
	 viewBox="0 0 100 100" style="enable-background:new 0 0 100 100;" xml:space="preserve">
<style type="text/css">
	.st0{fill:#FFDBC5;}
	.st1{fill:#EDEDED;}
	.st2{fill:#4681A0;}
	.st3{fill:#F6F6F6;}
	.st4{fill:#A3E0F5;}
	.st5{fill:#3DB39E;}
	.st6{fill:#4BC2AD;}
	.st7{fill:#EFC75E;}
	.st8{fill:#1F85A9;}
	.st9{fill:#D5D5D5;}
	.st10{fill:#3F7490;}
	.st11{fill:#131313;}
	.st12{fill:#1572B6;}
	.st13{fill:#33A9DC;}
	.st14{fill:#FFFFFF;}
	.st15{fill:#EBEBEB;}
	.st16{fill:#F7DF1E;}
</style>
<path class="st0" d="M50,0c27.6,0,50,22.4,50,50s-22.4,50-50,50S0,77.6,0,50S22.4,0,50,0z"/>
<path class="st1" d="M-97.7,31.1l51.1-13.7c1.6-0.4,3.3,0.5,3.7,2.1l10.1,37.7c0.4,1.6-0.5,3.2-2.1,3.7l-51.1,13.7
	c-1.6,0.4-3.3-0.5-3.7-2.1l-10.1-37.7C-100.3,33.2-99.4,31.6-97.7,31.1z"/>
<path class="st2" d="M-93.6,34.1l44.8-12c1.2-0.3,2.5,0.4,2.8,1.6l8.4,31.3c0.3,1.2-0.4,2.5-1.6,2.8l-44.8,12
	c-1.2,0.3-2.5-0.4-2.8-1.6L-95.2,37C-95.5,35.7-94.8,34.5-93.6,34.1z"/>
<path class="st3" d="M-88.3,31h52.9c1.7,0,3,1.3,3,3v39c0,1.7-1.4,3-3,3h-52.9c-1.7,0-3-1.3-3-3V34C-91.3,32.4-90,31-88.3,31z"/>
<path class="st4" d="M-85,35h46.4c1.3,0,2.3,1,2.3,2.3v32.4c0,1.3-1,2.3-2.3,2.3H-85c-1.3,0-2.3-1-2.3-2.3V37.3
	C-87.3,36-86.3,35-85,35z"/>
<path class="st5" d="M-83.3,61c-1.4,0-2.7,0.1-4,0.3v8.4c0,1.3,1,2.3,2.3,2.3h17.5c0.1-0.5,0.2-1,0.2-1.5
	C-67.3,65.2-74.5,61-83.3,61z"/>
<path class="st6" d="M-36.3,69.7V57.2c-3.1-0.8-6.5-1.2-10.1-1.2c-14.4,0-26.1,7.2-26.1,16h33.8C-37.4,72-36.3,71-36.3,69.7z"/>
<path class="st7" d="M-87.3,37.3v11.6c0.5,0.1,1,0.1,1.5,0.1c6.9,0,12.5-5.6,12.5-12.5c0-0.5,0-1-0.1-1.5H-85
	C-86.3,35-87.3,36-87.3,37.3z"/>
<path class="st8" d="M-35.4,76h-52.9c-1.7,0-3-1.3-3-3V34c0-0.3,0.1-0.6,0.1-0.9c-1.2,0.4-2.1,1.5-2.1,2.9v39c0,1.7,1.4,3,3,3h52.9
	c1.4,0,2.5-0.9,2.9-2.1C-34.8,75.9-35.1,76-35.4,76z"/>
<path class="st9" d="M-91.3,66.8V34c0-0.3,0.1-0.6,0.1-0.9c-1.2,0.4-2.1,1.5-2.1,2.9v23.3L-91.3,66.8z"/>
<path class="st10" d="M-92.3,33.8c-0.6,0.5-1,1.3-1,2.2V44l2,7.5V34c0-0.2,0-0.3,0.1-0.5L-92.3,33.8z"/>
<g id="Page_1">
	<g id="Layer_1_1_">
		<path id="Shape" class="st11" d="M-17.8,121.1h-8.5l8.8,9.6v4.6h-18.2v-5.3h8.8l-8.8-9.6v-4.6h17.8V121.1L-17.8,121.1z
			 M-39.3,121.1h-8.5l8.8,9.6v4.6h-18.2v-5.3h8.8l-8.8-9.6v-4.6h17.8V121.1L-39.3,121.1z M-60.5,121.3h-9.2v8.4h9.2v5.6h-15.7v-19.5
			h15.7V121.3L-60.5,121.3z"/>
		<path id="Shape_1_" class="st12" d="M-88.6,248.4l-9.3-104.3H4.3L-5,248.4L-46.9,260L-88.6,248.4z"/>
		<path id="Shape_2_" class="st13" d="M-46.8,251.1l33.8-9.4l8-89.1h-41.8V251.1z"/>
		<g id="Group" transform="translate(55.000000, 142.000000)">
			<path id="Shape_3_" class="st14" d="M-101.8,48.4h16.9l1.2-13.1h-18.1V22.5h0h32L-70,26l-3.1,35.3h-28.6V48.4z"/>
			<path id="Shape_4_" class="st15" d="M-101.7,81.7L-101.7,81.7l-14.3-3.8l-0.9-10.2h-6.9h-5.9l1.8,20.1l26.2,7.3l0.1,0V81.7z"/>
			<path id="Shape_5_" class="st14" d="M-86,60.7l-1.5,17.1l-14.3,3.9V95l26.2-7.3l0.2-2.2l2.2-24.9H-86z"/>
			<path id="Shape_6_" class="st15" d="M-101.8,22.5v7.9v4.8v0h-30.9h0l-0.3-2.9l-0.6-6.5l-0.3-3.4H-101.8z"/>
			<path id="Shape_7_" class="st15" d="M-101.8,48.4v7.9v4.8v0h-14h0l-0.3-2.9l-0.6-6.5l-0.3-3.4H-101.8z"/>
		</g>
	</g>
</g>
<g id="Page_1_1_">
	<g id="Layer_1_2_">
		<path id="Shape_15_" class="st11" d="M-125.6,11.9h-4.9l5.1,5.5V20h-10.5V17h5.1l-5.1-5.5V8.8h10.3V11.9L-125.6,11.9z
			 M-137.9,11.9h-4.9l5.1,5.5V20h-10.5V17h5.1l-5.1-5.5V8.8h10.3V11.9L-137.9,11.9z M-150.1,12h-5.3v4.8h5.3V20h-9V8.8h9V12
			L-150.1,12z"/>
		<path id="Shape_14_" class="st12" d="M-166.3,85.2l-5.4-60h58.8l-5.4,60l-24.1,6.7L-166.3,85.2z"/>
		<path id="Shape_13_" class="st13" d="M-142.2,86.7l19.5-5.4l4.6-51.3h-24V86.7z"/>
		<g id="Group_1_" transform="translate(55.000000, 142.000000)">
			<path id="Shape_12_" class="st14" d="M-197.2-90.2h9.7l0.7-7.5h-10.4v-7.4h0h18.4l-0.2,2l-1.8,20.3h-16.5V-90.2z"/>
			<path id="Shape_11_" class="st15" d="M-197.2-71.1L-197.2-71.1l-8.2-2.2l-0.5-5.9h-4h-3.4l1,11.6l15.1,4.2l0,0V-71.1z"/>
			<path id="Shape_10_" class="st14" d="M-188.1-83.2l-0.9,9.9l-8.2,2.2v7.7l15.1-4.2l0.1-1.2l1.3-14.3H-188.1z"/>
			<path id="Shape_9_" class="st15" d="M-197.2-105.1v4.6v2.8v0H-215h0l-0.1-1.7l-0.3-3.7l-0.2-2H-197.2z"/>
			<path id="Shape_8_" class="st15" d="M-197.2-90.2v4.6v2.8v0h-8.1h0l-0.1-1.7l-0.3-3.7l-0.2-2H-197.2z"/>
		</g>
	</g>
</g>
<g>
	<path class="st16" d="M50.6,0c27.6,0,50,22.4,50,50s-22.4,50-50,50s-50-22.4-50-50S22.9,0,50.6,0z"/>
	<path d="M64.7,73.2c1.9,3.3,4.4,5.7,8.9,5.7c3.7,0,6.1-1.9,6.1-4.6c0-3.2-2.4-4.4-6.5-6.2l-2.2-1c-6.5-2.9-10.8-6.5-10.8-14.1
		c0-7,5.1-12.4,13.1-12.4c5.7,0,9.8,2.1,12.8,7.5l-7,4.7c-1.5-2.9-3.2-4-5.8-4c-2.6,0-4.3,1.7-4.3,4c0,2.8,1.7,4,5.5,5.7l2.2,1
		c7.6,3.4,11.9,6.9,11.9,14.7c0,8.4-6.3,13.1-14.9,13.1c-8.3,0-13.7-4.1-16.4-9.6L64.7,73.2z M33,74c1.4,2.6,2.7,4.8,5.8,4.8
		c2.9,0,4.8-1.2,4.8-5.9V41h9v32c0,9.7-5.4,14.1-13.4,14.1c-7.2,0-11.3-3.9-13.5-8.6L33,74z"/>
</g>
</svg>
