<?xml version="1.0" encoding="utf-8"?>
<!-- Generator: Adobe Illustrator 19.2.1, SVG Export Plug-In . SVG Version: 6.00 Build 0)  -->
<svg version="1.1" id="Layer_1" xmlns="http://www.w3.org/2000/svg" xmlns:xlink="http://www.w3.org/1999/xlink" width="100" height="100"
	 viewBox="0 0 100 100" style="enable-background:new 0 0 100 100;" xml:space="preserve">
<style type="text/css">
	.st0{fill:#C5E9FF;}
	.st1{clip-path:url(#SVGID_2_);}
	.st2{fill:#4C9AD6;}
	.st3{fill:#B8D9F2;}
	.st4{fill:#FFFFFF;}
	.st5{fill:#55ACEE;}
	.st6{fill:#448AC0;}
	.st7{fill:#E44D26;}
	.st8{fill:#F16529;}
	.st9{fill:#EBEBEB;}
</style>
<path class="st0" d="M50.1,0c-27.6,0-50,22.4-50,50c0,27.6,22.4,50,50,50s50-22.4,50-50C100.1,22.4,77.7,0,50.1,0z"/>
<g>
	<defs>
		<circle id="SVGID_1_" cx="-75.8" cy="50" r="50"/>
	</defs>
	<clipPath id="SVGID_2_">
		<use xlink:href="#SVGID_1_"  style="overflow:visible;"/>
	</clipPath>
	<g class="st1">
		<path class="st2" d="M-122.8,11h30c2.2,0,4,1.8,4,4v22c0,2.2-1.8,4-4,4h-14c-0.6,0-2.5,0.3-3,0.8c-1.5,1.2-1.4,1.5-3.5,3.2
			c0.1,0-2.5,2.3-2.5,0c0-2.4,0-4,0-4h-7c-2.2,0-4-1.8-4-4V15C-126.8,12.8-125,11-122.8,11z"/>
		<path class="st3" d="M-29.8,21h-30c-2.2,0-4,1.8-4,4v22c0,2.2,1.8,4,4,4h14c0.6,0,2.5,0.3,3,0.8c1.5,1.2,1.4,1.5,3.5,3.2
			c-0.1,0,2.5,2.3,2.5,0c0-2.4,0-4,0-4h7c2.2,0,4-1.8,4-4V25C-25.8,22.8-27.6,21-29.8,21z"/>
		<path class="st4" d="M-97.8,30h44c2.2,0,4,1.8,4,4v34c0,2.2-1.8,4-4,4h-23c-0.6,0-2.5,0.3-3,0.8l-6.5,5.2c0.1,0-2.5,2.3-2.5,0
			c0-2.4,0-6,0-6h-9c-2.2,0-4-1.8-4-4V34C-101.8,31.8-100,30-97.8,30z"/>
		<path class="st5" d="M-60.8,42.6c-1.1,0.4-2.2,0.7-3.4,0.9c1.2-0.7,2.2-1.8,2.6-3.1c-1.2,0.6-2.4,1.1-3.8,1.3
			c-1.1-1.1-2.6-1.8-4.3-1.8c-3.3,0-6,2.5-6,5.6c0,0.4,0.1,0.9,0.2,1.3c-4.9-0.2-9.3-2.4-12.3-5.8c-0.5,0.8-0.8,1.8-0.8,2.8
			c0,1.9,1.1,3.6,2.6,4.6c-1,0-1.9-0.3-2.7-0.7v0.1c0,2.7,2.1,4.9,4.8,5.4c-0.5,0.1-1,0.2-1.6,0.2c-0.4,0-0.8,0-1.1-0.1
			c0.8,2.2,3,3.8,5.6,3.9c-2,1.5-4.6,2.4-7.4,2.4c-0.5,0-1,0-1.4-0.1c2.6,1.6,5.8,2.5,9.1,2.5c10.9,0,16.9-8.5,16.9-15.8
			c0-0.2,0-0.5,0-0.7C-62.6,44.7-61.6,43.7-60.8,42.6z"/>
		<g>
			<path class="st2" d="M-53.8,72h-23c-0.6,0-2.5,0.3-3,0.8l-1.2,1c0.5-0.5,2.5-0.8,3-0.8h23c1.2,0,2.3-0.6,3.1-1.5
				C-52.6,71.8-53.2,72-53.8,72z M-88.8,78c0-2.4,0-6,0-6h-9c-2.2,0-4-1.8-4-4V34c0-1,0.4-1.9,0.9-2.5c-1.3,0.7-2.2,2-2.2,3.5v34
				c0,2.2,1.8,4,4,4h9c0,0,0,3.6,0,6c0,2.3,2.5,0,2.5,0l0.7-0.5C-87.6,79-88.8,79.6-88.8,78z"/>
		</g>
		<path class="st6" d="M-101.8,41v-7c0-1,0.4-1.9,0.9-2.5c-1.3,0.7-2.2,2-2.2,3.5v6H-101.8z"/>
	</g>
</g>
<g>
	<polygon class="st7" points="25.8,85.1 20.5,24.6 79.7,24.6 74.3,85.1 50,91.8 	"/>
	<polygon class="st8" points="50.1,86.7 69.7,81.2 74.3,29.6 50.1,29.6 	"/>
	<polygon class="st9" points="50.1,52 40.3,52 39.6,44.4 50.1,44.4 50.1,37 50.1,37 31.5,37 31.7,39 33.5,59.4 50.1,59.4 	"/>
	<polygon class="st9" points="50.1,71.3 50.1,71.3 41.8,69 41.3,63.1 37.2,63.1 33.8,63.1 34.9,74.8 50,79 50.1,79 	"/>
	<path d="M26,8.2h3.8v3.7h3.4V8.2H37v11.3h-3.8v-3.8h-3.4v3.8H26L26,8.2L26,8.2z"/>
	<path d="M41.9,11.9h-3.3V8.2H49v3.7h-3.3v7.5h-3.8L41.9,11.9L41.9,11.9z"/>
	<path d="M50.7,8.2h3.9l2.4,4l2.4-4h3.9v11.3h-3.8v-5.6l-2.6,4h-0.1l-2.6-4v5.6h-3.7V8.2z"/>
	<path d="M65.2,8.2H69v7.6h5.3v3.7h-9.1V8.2z"/>
	<polygon class="st4" points="50.1,52 50.1,59.4 59.2,59.4 58.3,69 50.1,71.3 50.1,79 65.3,74.8 65.4,73.5 67.1,54 67.3,52 65.3,52 
			"/>
	<polygon class="st4" points="50.1,37 50.1,41.6 50.1,44.4 50.1,44.4 68,44.4 68,44.4 68,44.4 68.1,42.7 68.5,39 68.6,37 	"/>
</g>
</svg>
