<?xml version="1.0" encoding="utf-8"?>
<!-- Generator: Adobe Illustrator 19.2.1, SVG Export Plug-In . SVG Version: 6.00 Build 0)  -->
<svg version="1.1" id="Layer_1" xmlns="http://www.w3.org/2000/svg" xmlns:xlink="http://www.w3.org/1999/xlink" x="0px" y="0px"
	 viewBox="0 0 1920 1080" style="enable-background:new 0 0 1920 1080;" xml:space="preserve">
<style type="text/css">
	.st0{fill:#010101;}
</style>
<path class="st0" d="M0,14v568.3h768V14H0z M635.5,90.8l9.6,26.9h28.8l-23,17.3l9.6,26.9l-23-17.3l-23,17.3L624,135l-23-17.3h28.8
	L635.5,90.8z M658.6,273.2l-23-17.3l-23,17.3l9.6-26.9L599,229h28.8l9.6-26.9L647,229h28.8l-25,15.4L658.6,273.2z M658.6,382.6
	l-23-17.3l-23,17.3l9.6-26.9l-23-17.3h28.8l9.6-26.9l9.6,26.9h28.8l-23,17.3L658.6,382.6z M597.1,436.4l-23-17.3l-23,17.3l9.6-26.9
	l-23-17.3h28.8l9.6-26.9l9.6,26.9h28.8l-23,17.3L597.1,436.4z M531.8,382.6l-23-17.3l-23,17.3l9.6-26.9l-23-17.3h26.9l9.6-26.9
	l9.6,26.9h28.8l-23,17.3L531.8,382.6z M468.5,436.4l-23-17.3l-23,17.3l9.6-26.9l-23-17.3h28.8l9.6-26.9l9.6,26.9h28.8l-23,17.3
	L468.5,436.4z M403.2,382.6l-23-17.3l-23,17.3l9.6-26.9l-23-17.3h28.8l9.6-26.9l9.6,26.9h28.8l-23,17.3L403.2,382.6z M339.8,436.4
	l-23-17.3l-23,17.3l9.6-26.9l-23-17.3h26.9l9.6-26.9l9.6,26.9h28.8l-23,17.3L339.8,436.4z M276.5,382.6l-23-17.3l-23,17.3l9.6-26.9
	l-23-17.3h28.8l9.6-26.9l9.6,26.9h28.8l-23,17.3L276.5,382.6z M211.2,436.4l-23-17.3l-23,17.3l7.7-26.9l-23-17.3h28.8l9.6-26.9
	l9.6,26.9h28.8l-23,17.3L211.2,436.4z M147.8,382.6l-23-17.3l-23,17.3l9.6-26.9l-23-17.3h26.9l9.6-26.9l9.6,26.9h28.8l-23,17.3
	L147.8,382.6z M86.4,229h28.8l9.6-26.9l9.6,26.9h28.8l-25,15.4l9.6,26.9l-23-17.3l-23,17.3l7.7-26.9L86.4,229z M597.1,215.6
	l-23-17.3l-23,17.3l9.6-26.9l-23-17.3h28.8l9.6-26.9l9.6,26.9h28.8l-23,17.3L597.1,215.6z M597.1,325l-23-17.3L551,325l9.6-26.9
	l-23-17.3h28.8L576,254l9.6,26.9h28.8l-23,17.3L597.1,325z M547.2,229l-23,15.4l9.6,26.9l-23-17.3l-23,17.3l9.6-26.9l-23-17.3h25
	l9.6-26.9l9.6,26.9h28.8V229z M468.5,325l-23-17.3l-23,17.3l9.6-26.9l-23-17.3h28.8l9.6-26.9l9.6,26.9h28.8l-23,17.3L468.5,325z
	 M458.9,188.7l9.6,26.9l-23-17.3l-23,17.3l9.6-26.9l-23-17.3h28.8l9.6-26.9l9.6,26.9h28.8L458.9,188.7z M416.6,229l-23,15.4
	l9.6,26.9l-23-17.3l-23,17.3l7.7-26.9l-23-17.3h28.8l9.6-26.9l9.6,26.9h26.9V229z M339.8,325l-23-17.3l-23,17.3l9.6-26.9l-23-17.3
	h26.9l9.6-26.9l9.6,26.9h28.8l-23,17.3L339.8,325z M330.2,188.7l9.6,26.9l-23-17.3l-23,17.3l9.6-26.9l-23-17.3h26.9l9.6-26.9
	l9.6,26.9h28.8L330.2,188.7z M289.9,229l-23,15.4l9.6,26.9l-23-17.3l-23,19.2l9.6-26.9L217,229h28.8l9.6-26.9L265,229
	C265,229,289.9,229,289.9,229z M211.2,325l-23-17.3l-23,17.3l7.7-26.9l-23-17.3h28.8l9.6-26.9l9.6,26.9h28.8l-23,17.3L211.2,325z
	 M201.6,192.6l9.6,26.9l-23-17.3l-23,17.3l7.7-26.9l-23-17.3h28.8l9.6-26.9l9.6,26.9h28.8L201.6,192.6z M564.5,62l9.6-28.8l9.6,26.9
	h28.8l-23,17.3l9.6,26.9L576,87l-23,17.3l9.6-26.9l-23-17.3L564.5,62L564.5,62z M508.8,90.8l9.6,26.9h28.8l-23,17.3l9.6,26.9
	l-23-17.3l-23,17.3l9.6-26.9l-23-17.3h25L508.8,90.8z M435.8,62l9.6-28.8l9.6,26.9h28.8l-23,17.3l9.6,26.9l-23-17.3l-25,19.2
	l9.6-26.9L409,62H435.8L435.8,62z M380.2,90.8l9.6,26.9h28.8l-23,17.3l7.7,26.9l-23-17.3l-23,17.3l7.7-26.9l-23-17.3h28.8
	L380.2,90.8z M307.2,62l9.6-28.8l9.6,28.8h28.8l-23,17.3l9.6,26.9l-23-17.3l-23,17.3l9.6-26.9l-23-17.3H307.2z M253.4,90.8l9.6,26.9
	h28.8l-23,17.3l9.6,26.9l-23-17.3l-25,17.3L240,135l-23-17.3h28.8L253.4,90.8z M178.6,62l9.6-28.8l9.6,26.9h28.8l-23,17.3l7.7,28.8
	l-23-17.3l-23,17.3l7.7-28.8l-23-15.4H178.6z M124.8,90.8l9.6,26.9h28.8l-25,17.3l9.6,26.9l-23-17.3l-23,17.3l9.6-26.9l-25-17.3
	h28.8L124.8,90.8z M51.8,62l9.6-28.8L71,60.1h28.8l-25,17.3l9.6,26.9l-23-15.4l-23,17.3L48,79.3L23,62H51.8z M51.8,171.4l9.6-26.9
	l9.6,26.9h28.8l-25,17.3l9.6,26.9l-23-15.4l-23,15.4l9.6-26.9l-25-17.3H51.8z M51.8,280.9l9.6-26.9l9.6,26.9h28.8l-23,17.3l9.6,26.9
	l-23-17.3l-25,17.3l9.6-26.9l-23-17.3C25,280.9,51.8,280.9,51.8,280.9z M51.8,392.2l9.6-26.9l9.6,26.9h28.8l-23,17.3l7.7,26.9
	l-23-17.3l-23,17.3l9.6-26.9l-23-17.3H51.8z M84.5,547.8l-23-17.3l-23,17.3l9.6-26.9l-23-17.3h28.8l9.6-26.9l9.6,26.9h28.8l-23,17.3
	L84.5,547.8z M124.8,474.8l-23,17.3l9.6-26.9l-23-17.3h26.9l9.6-26.9l9.6,26.9h28.8l-23,17.3l9.6,26.9L124.8,474.8z M211.2,547.8
	l-23-17.3l-23,17.3l7.7-26.9l-23-17.3h28.8l9.6-26.9l9.6,26.9h28.8l-23,17.3L211.2,547.8z M253.4,474.8l-23,17.3l9.6-26.9l-23-17.3
	h28.8l9.6-26.9l9.6,26.9h28.8l-23,17.3l9.6,26.9L253.4,474.8z M339.8,547.8l-23-17.3l-23,17.3l9.6-26.9l-23-17.3h26.9l9.6-26.9
	l9.6,26.9h28.8l-23,17.3L339.8,547.8z M380.2,472.9l-23,17.3l9.6-26.9l-23-17.3h28.8l9.6-26.9l9.6,26.9h28.8l-23,17.3l9.6,26.9
	L380.2,472.9z M468.5,549.7l-23-17.3l-23,17.3l9.6-26.9l-23-17.3h28.8l9.6-26.9l9.6,26.9h28.8l-23,17.3L468.5,549.7z M508.8,474.8
	l-23,17.3l9.6-26.9l-23-17.3h26.9l9.6-26.9l9.6,26.9h28.8l-23,17.3l9.6,26.9L508.8,474.8z M597.1,547.8l-23-17.3l-23,17.3l9.6-26.9
	l-23-17.3h28.8l9.6-26.9l9.6,26.9h28.8l-23,17.3L597.1,547.8z M635.5,474.8l-23,17.3l9.6-26.9l-23-17.3h28.8l9.6-26.9l9.6,26.9h28.8
	l-23,17.3l9.6,26.9L635.5,474.8z M723.8,547.8l-23-17.3l-23,17.3l9.6-26.9l-23-17.3h26.9l9.6-26.9l9.6,26.9h28.8l-23,17.3
	L723.8,547.8z M714.2,409.5l9.6,26.9l-23-17.3l-25,17.3l9.6-26.9l-23-17.3h28.8l9.6-26.9l9.6,26.9h28.8L714.2,409.5z M714.2,298.2
	l9.6,26.9l-23-17.3l-23,17.3l9.6-26.9l-23-17.3h26.9l9.6-26.9l9.6,26.9h28.8L714.2,298.2z M714.2,188.7l9.6,26.9l-23-17.3l-23,17.3
	l9.6-26.9l-23-17.3h26.9l9.6-26.9l9.6,26.9h28.8L714.2,188.7z M714.2,77.4l9.6,26.9l-23-17.3l-23,17.3l9.6-26.9l-23-17.3h26.9
	l9.6-26.9l9.6,26.9h28.8L714.2,77.4z"/>
<rect y="985.5" class="st0" width="1920" height="80.6"/>
<rect y="824.2" class="st0" width="1920" height="80.6"/>
<rect y="663" class="st0" width="1920" height="80.6"/>
<rect x="769.9" y="501.7" class="st0" width="1150.1" height="80.6"/>
<rect x="769.9" y="336.6" class="st0" width="1150.1" height="80.6"/>
<rect x="769.9" y="175.3" class="st0" width="1150.1" height="80.6"/>
<rect x="769.9" y="14" class="st0" width="1150.1" height="80.6"/>
</svg>
