<?xml version="1.0" encoding="utf-8"?>
<!-- Generator: Adobe Illustrator 19.2.1, SVG Export Plug-In . SVG Version: 6.00 Build 0)  -->
<svg version="1.1" id="Layer_1" xmlns="http://www.w3.org/2000/svg" xmlns:xlink="http://www.w3.org/1999/xlink" width="100" height="100"
	 viewBox="0 0 100 100" style="enable-background:new 0 0 100 100;" xml:space="preserve">
<style type="text/css">
	.st0{fill:#FAFAFA;}
	.st1{fill:#EDEDED;}
	.st2{fill:#4681A0;}
	.st3{fill:#F6F6F6;}
	.st4{fill:#A3E0F5;}
	.st5{fill:#3DB39E;}
	.st6{fill:#4BC2AD;}
	.st7{fill:#EFC75E;}
	.st8{fill:#1F85A9;}
	.st9{fill:#D5D5D5;}
	.st10{fill:#3F7490;}
	.st11{fill:#131313;}
	.st12{fill:#1572B6;}
	.st13{fill:#33A9DC;}
	.st14{fill:#FFFFFF;}
	.st15{fill:#EBEBEB;}
	.st16{fill:#F7DF1E;}
	.st17{fill:#00D8FF;}
	.st18{fill:#131B28;}
	.st19{fill:#563D7C;}
	.st20{fill:url(#SVGID_1_);}
	.st21{fill:#31C5F0;}
	.st22{fill:url(#SVGID_2_);}
	.st23{fill:#E579FF;}
	.st24{fill:url(#SVGID_3_);}
	.st25{fill:#FF7F18;}
	.st26{fill:url(#SVGID_4_);}
	.st27{fill:#D8A1FF;}
</style>
<path class="st0" d="M50.2-107.6c27.6,0,50,22.4,50,50s-22.4,50-50,50s-50-22.4-50-50S22.6-107.6,50.2-107.6z"/>
<path class="st1" d="M-97.7,31.1l51.1-13.7c1.6-0.4,3.3,0.5,3.7,2.1l10.1,37.7c0.4,1.6-0.5,3.2-2.1,3.7L-86,74.6
	c-1.6,0.4-3.3-0.5-3.7-2.1l-10.1-37.7C-100.3,33.2-99.4,31.6-97.7,31.1z"/>
<path class="st2" d="M-93.6,34.1l44.8-12c1.2-0.3,2.5,0.4,2.8,1.6l8.4,31.3c0.3,1.2-0.4,2.5-1.6,2.8l-44.8,12
	c-1.2,0.3-2.5-0.4-2.8-1.6L-95.2,37C-95.5,35.7-94.8,34.5-93.6,34.1z"/>
<path class="st3" d="M-88.3,31h52.9c1.7,0,3,1.3,3,3v39c0,1.7-1.4,3-3,3h-52.9c-1.7,0-3-1.3-3-3V34C-91.3,32.4-90,31-88.3,31z"/>
<path class="st4" d="M-85,35h46.4c1.3,0,2.3,1,2.3,2.3v32.4c0,1.3-1,2.3-2.3,2.3H-85c-1.3,0-2.3-1-2.3-2.3V37.3
	C-87.3,36-86.3,35-85,35z"/>
<path class="st5" d="M-83.3,61c-1.4,0-2.7,0.1-4,0.3v8.4c0,1.3,1,2.3,2.3,2.3h17.5c0.1-0.5,0.2-1,0.2-1.5
	C-67.3,65.2-74.5,61-83.3,61z"/>
<path class="st6" d="M-36.3,69.7V57.2c-3.1-0.8-6.5-1.2-10.1-1.2c-14.4,0-26.1,7.2-26.1,16h33.8C-37.4,72-36.3,71-36.3,69.7z"/>
<path class="st7" d="M-87.3,37.3v11.6c0.5,0.1,1,0.1,1.5,0.1c6.9,0,12.5-5.6,12.5-12.5c0-0.5,0-1-0.1-1.5H-85
	C-86.3,35-87.3,36-87.3,37.3z"/>
<path class="st8" d="M-35.4,76h-52.9c-1.7,0-3-1.3-3-3V34c0-0.3,0.1-0.6,0.1-0.9c-1.2,0.4-2.1,1.5-2.1,2.9v39c0,1.7,1.4,3,3,3h52.9
	c1.4,0,2.5-0.9,2.9-2.1C-34.8,75.9-35.1,76-35.4,76z"/>
<path class="st9" d="M-91.3,66.8V34c0-0.3,0.1-0.6,0.1-0.9c-1.2,0.4-2.1,1.5-2.1,2.9v23.3L-91.3,66.8z"/>
<path class="st10" d="M-92.3,33.8c-0.6,0.5-1,1.3-1,2.2v8l2,7.5V34c0-0.2,0-0.3,0.1-0.5L-92.3,33.8z"/>
<g id="Page_1_1_">
	<g id="Layer_1_2_">
		<path id="Shape_15_" class="st11" d="M-125.6,11.9h-4.9l5.1,5.5V20h-10.5v-3h5.1l-5.1-5.5V8.8h10.3L-125.6,11.9L-125.6,11.9z
			 M-137.9,11.9h-4.9l5.1,5.5V20h-10.5v-3h5.1l-5.1-5.5V8.8h10.3L-137.9,11.9L-137.9,11.9z M-150.1,12h-5.3v4.8h5.3V20h-9V8.8h9V12
			L-150.1,12z"/>
		<path id="Shape_14_" class="st12" d="M-166.3,85.2l-5.4-60h58.8l-5.4,60l-24.1,6.7L-166.3,85.2z"/>
		<path id="Shape_13_" class="st13" d="M-142.2,86.7l19.5-5.4l4.6-51.3h-24L-142.2,86.7L-142.2,86.7z"/>
		<g id="Group_1_" transform="translate(55.000000, 142.000000)">
			<path id="Shape_12_" class="st14" d="M-197.2-90.2h9.7l0.7-7.5h-10.4v-7.4l0,0h18.4l-0.2,2l-1.8,20.3h-16.5v-7.4H-197.2z"/>
			<path id="Shape_11_" class="st15" d="M-197.2-71.1L-197.2-71.1l-8.2-2.2l-0.5-5.9h-4h-3.4l1,11.6l15.1,4.2l0,0L-197.2-71.1
				L-197.2-71.1z"/>
			<path id="Shape_10_" class="st14" d="M-188.1-83.2l-0.9,9.9l-8.2,2.2v7.7l15.1-4.2l0.1-1.2l1.3-14.3L-188.1-83.2L-188.1-83.2z"/>
			<path id="Shape_9_" class="st15" d="M-197.2-105.1v4.6v2.8l0,0H-215l0,0l-0.1-1.7l-0.3-3.7l-0.2-2
				C-215.6-105.1-197.2-105.1-197.2-105.1z"/>
			<path id="Shape_8_" class="st15" d="M-197.2-90.2v4.6v2.8l0,0h-8.1l0,0l-0.1-1.7l-0.3-3.7l-0.2-2
				C-205.9-90.2-197.2-90.2-197.2-90.2z"/>
		</g>
	</g>
</g>
<g>
	<path class="st16" d="M361.9,0c27.6,0,50,22.4,50,50s-22.4,50-50,50s-50-22.4-50-50S334.3,0,361.9,0z"/>
	<path d="M376.1,73.2c1.9,3.3,4.4,5.7,8.9,5.7c3.7,0,6.1-1.9,6.1-4.6c0-3.2-2.4-4.4-6.5-6.2l-2.2-1c-6.5-2.9-10.8-6.5-10.8-14.1
		c0-7,5.1-12.4,13.1-12.4c5.7,0,9.8,2.1,12.8,7.5l-7,4.7c-1.5-2.9-3.2-4-5.8-4c-2.6,0-4.3,1.7-4.3,4c0,2.8,1.7,4,5.5,5.7l2.2,1
		c7.6,3.4,11.9,6.9,11.9,14.7c0,8.4-6.3,13.1-14.9,13.1c-8.3,0-13.7-4.1-16.4-9.6L376.1,73.2z M344.4,74c1.4,2.6,2.7,4.8,5.8,4.8
		c2.9,0,4.8-1.2,4.8-5.9V41h9v32c0,9.7-5.4,14.1-13.4,14.1c-7.2,0-11.3-3.9-13.5-8.6L344.4,74z"/>
</g>
<g>
	<circle class="st17" cx="243" cy="49.8" r="7.5"/>
	<path class="st17" d="M243,67.1c-10.6,0-19.8-1.2-26.7-3.6c-4.5-1.5-8.3-3.6-11-5.9c-2.9-2.5-4.4-5.1-4.4-7.7c0-5,5.5-9.8,14.6-13
		c7.5-2.6,17.3-4.1,27.5-4.1c10,0,19.7,1.4,27.1,4c4.4,1.5,8,3.4,10.6,5.6c2.8,2.4,4.3,5,4.3,7.5c0,5.2-6.1,10.4-15.9,13.7
		C262.2,65.8,252.9,67.1,243,67.1z M243,36.4c-9.7,0-19.3,1.4-26.3,3.9c-8.4,2.9-12.2,7-12.2,9.6c0,2.8,4.1,7.2,13,10.2
		c6.5,2.2,15.4,3.4,25.5,3.4c9.5,0,18.4-1.2,25-3.4c9.2-3.1,13.5-7.5,13.5-10.2c0-1.4-1.1-3.1-3-4.7c-2.3-1.9-5.6-3.6-9.5-5
		C261.9,37.7,252.6,36.4,243,36.4z"/>
	<path class="st17" d="M225.9,87.3c-1.5,0-2.9-0.3-4-1c-4.3-2.5-5.8-9.6-4-19.2c1.5-7.8,5.1-17,10.2-25.8c5-8.7,11-16.3,17-21.5
		c3.5-3,7-5.2,10.2-6.4c3.5-1.3,6.5-1.3,8.7,0c4.5,2.6,6,10.5,3.9,20.6c-1.5,7.2-5,15.9-10,24.4c-5.3,9.1-11,16.5-16.5,21.3
		c-3.6,3.1-7.2,5.4-10.6,6.6C229,87,227.4,87.3,225.9,87.3z M260.1,16.1c-1,0-2.2,0.2-3.6,0.7c-2.8,1-5.9,3-9.1,5.7
		c-5.7,4.9-11.4,12.2-16.2,20.6l0,0c-4.8,8.4-8.4,17.4-9.8,24.7c-1.7,8.8-0.1,14,2.3,15.4c2.4,1.4,8.2,0.1,15.3-6.1
		c5.2-4.5,10.6-11.6,15.7-20.4c4.8-8.3,8.2-16.6,9.6-23.4c2-9.5,0.3-15.4-2.1-16.8C261.6,16.2,260.9,16.1,260.1,16.1z"/>
	<path class="st17" d="M260.1,87.4c-4.1,0-9.2-2.5-14.6-7.1c-6-5.2-12.2-12.9-17.3-21.8l0,0c-5-8.7-8.6-17.7-10.1-25.5
		c-0.9-4.5-1-8.7-0.5-12c0.6-3.6,2.1-6.2,4.3-7.5c4.5-2.6,12.1,0.1,19.8,6.9c5.5,4.9,11.2,12.3,16.2,20.8
		c5.3,9.1,8.8,17.7,10.3,24.9c0.9,4.6,1.1,9,0.4,12.5c-0.7,3.7-2.2,6.4-4.5,7.7C262.9,87,261.5,87.4,260.1,87.4z M231.3,56.7
		c4.9,8.4,10.9,16,16.5,20.8c6.8,5.8,12.1,7.1,14.4,5.7c2.4-1.4,4.2-7.1,2.4-16.3c-1.3-6.8-4.7-15-9.8-23.8
		c-4.8-8.2-10.3-15.3-15.5-20c-7.3-6.5-13.2-7.9-15.6-6.5c-1.2,0.7-2.1,2.5-2.6,5c-0.5,2.9-0.3,6.6,0.5,10.7
		C223,39.7,226.4,48.4,231.3,56.7L231.3,56.7z"/>
</g>
<g>
	<path class="st18" d="M-178.3,143.5L-178.3,143.5l-0.7,2.3L-178.3,143.5L-178.3,143.5z"/>
	<path class="st18" d="M-174.9,148.5h-0.7H-174.9z"/>
	<path class="st18" d="M-175.1,152L-175.1,152h-4.3H-175.1L-175.1,152z"/>
	<path class="st18" d="M-174.2,148.5h-0.7H-174.2z"/>
	<path class="st18" d="M-174.7,151.7l0.8-2.9L-174.7,151.7L-174.7,151.7L-174.7,151.7z"/>
	<path class="st18" d="M-158.8,138.5l-1.4,6.6C-160.2,145.1-158.8,138.5-158.8,138.5z"/>
	<path class="st18" d="M-162.4,138.5l-1.1,4.9L-162.4,138.5L-162.4,138.5z"/>
	<path class="st18" d="M-159,138.2h-3c-0.2,0-0.3,0.1-0.4,0.3l-1.1,4.9l-1.1,4.9c0,0.2-0.2,0.3-0.4,0.3h-2.1c-2.1,0-1.9-1.5-1.4-3.4
		c0,0,0,0,0-0.1v-0.3l0,0l0.1-0.5l0.1-0.5c0-0.2,0.1-0.4,0.1-0.6l0.5-2.4l0.5-2.4c0-0.2-0.1-0.3-0.2-0.3h-3.1
		c-0.2,0-0.3,0.1-0.4,0.3l-0.7,3.1l-0.7,3.1l0,0l-0.1,0.3c-0.8,3.5-0.6,6.8,3.6,6.9c0.1,0,0.1,0,0.1,0h6.5c0.2,0,0.3-0.1,0.4-0.3
		l1.4-6.6L-159,138.2C-158.7,138.3-158.9,138.2-159,138.2L-159,138.2z"/>
	<path class="st18" d="M-147,148.7c0.2,0,0.3,0.1,0.2,0.3l-0.3,1.4"/>
	<path class="st18" d="M-147.4,151.8l0.3-1.4L-147.4,151.8L-147.4,151.8L-147.4,151.8z"/>
	<path class="st18" d="M-147.7,152.1L-147.7,152.1c-0.9,0-3.5,0-5.5,0C-150.9,152.1-147.7,152.1-147.7,152.1L-147.7,152.1z"/>
	<path class="st18" d="M-155.1,146.8c0-0.2,0.2-0.4,0.3-0.4h-0.4C-155.3,148.1-155.1,146.8-155.1,146.8L-155.1,146.8z"/>
	<path class="st18" d="M-153,152.1L-153,152.1L-153,152.1z"/>
	<path class="st18" d="M-147,148.7c0.2,0,0.3,0.1,0.2,0.3l-0.3,1.4v0.2"/>
	<path class="st18" d="M-151.6,152.1L-151.6,152.1L-151.6,152.1z"/>
	<path class="st18" d="M-152.3,152.1L-152.3,152.1L-152.3,152.1z"/>
	<path class="st18" d="M-152.5,152.1C-152.6,152.1-152.6,152.1-152.5,152.1C-152.6,152.1-152.6,152.1-152.5,152.1z"/>
	<path class="st18" d="M-152.8,152.1L-152.8,152.1L-152.8,152.1z"/>
	<path class="st18" d="M-152.4,152.1c-0.1,0-0.1,0-0.2,0C-152.5,152.1-152.4,152.1-152.4,152.1z"/>
	<path class="st18" d="M-151.6,152.1c-0.2,0-0.5,0-0.7,0C-152.1,152.1-151.8,152.1-151.6,152.1z"/>
	<path class="st18" d="M-147.7,152.1L-147.7,152.1c-0.6,0-2.2,0-3.8,0C-150,152.1-148.4,152.1-147.7,152.1z"/>
	<path class="st18" d="M-147.4,151.8l0.2-1.2L-147.4,151.8L-147.4,151.8L-147.4,151.8z"/>
	<path class="st18" d="M-152.6,152.1h-0.2H-152.6z"/>
	<path class="st18" d="M-153.1,152.1h-0.2H-153.1z"/>
	<path class="st18" d="M-152.8,152.1h-0.2H-152.8z"/>
	<path class="st18" d="M-196.8,146.9l0.5-2.1l-0.5,2.4l-0.5,2.4l0.4-2.1C-196.9,147.3-196.8,147-196.8,146.9L-196.8,146.9z"/>
	<path class="st18" d="M-191.2,138.1h-3.3c-0.2,0-0.3,0.1-0.4,0.3l-0.3,1.4l-0.3,1.4c0,0.2,0.1,0.3,0.2,0.3h3.4
		c0.2,0,0.3-0.1,0.4-0.3l0.3-1.4l0.3-1.4l0,0C-190.9,138.3-191,138.1-191.2,138.1L-191.2,138.1z"/>
	<path class="st18" d="M-191.9,142.7L-191.9,142.7l-1,4.5L-191.9,142.7z"/>
	<path class="st18" d="M-195.8,142.7l-0.5,2.1L-195.8,142.7z"/>
	<path class="st18" d="M-192.1,142.4h-3.3c-0.2,0-0.3,0.1-0.4,0.3l-0.5,2.1l-0.5,2.1c0,0.2-0.1,0.4-0.1,0.6l-0.4,2.1l-0.4,2.1
		c0,0.2-0.1,0.4-0.2,0.6c0,0-0.6,1.8-1.7,1.8h-0.1c-0.5,0-0.9,0-0.9,0l0,0c-0.2,0-0.3,0.1-0.4,0.3l-0.3,1.4l-0.3,1.4
		c0,0.2,0.1,0.3,0.2,0.3c0.6,0,1.9,0,2.7,0c2.6,0,4-1.4,4.9-5.6l1-4.8l1-4.5C-191.9,142.6-192,142.4-192.1,142.4L-192.1,142.4z"/>
	<path class="st18" d="M-144.9,152c-0.2,0-0.3-0.1-0.2-0.3l2.5-11.7"/>
	<path class="st18" d="M-141.5,151.7l1-5L-141.5,151.7z"/>
	<path class="st18" d="M-145.1,151.8c0-0.1,0-0.3,0-0.4l1.2-5.6l-1.2,5.9c0,0.2,0.1,0.3,0.2,0.3h0.3
		C-144.8,152-145.1,151.9-145.1,151.8L-145.1,151.8z"/>
	<path class="st18" d="M-141.6,151.9c-0.1,0-0.3,0.1-0.5,0.1h0.3c0.2,0,0.3-0.1,0.4-0.3l0.1-0.3
		C-141.4,151.5-141.6,151.9-141.6,151.9L-141.6,151.9z"/>
	<path class="st18" d="M-140.9,149.2l0.4-2.2l0,0L-140.9,149.2L-140.9,149.2z"/>
	<path class="st18" d="M-131.1,140.7l0.1,0.6c0,0.2-0.1,0.3-0.2,0.3"/>
	<path class="st18" d="M-141.4,151.4l0.4-2.2L-141.4,151.4z"/>
	<path class="st18" d="M-131.2,140.2l0.1,0.6L-131.2,140.2z"/>
	<path class="st18" d="M-140.5,147c0-0.2,0.1-0.4,0.1-0.6l0.5-2.2l-0.5,2.5L-140.5,147L-140.5,147z"/>
	<path class="st18" d="M-142.6,139.8c0,0.2-0.1,0.4-0.1,0.5l-1.2,5.6l1.2-5.9L-142.6,139.8L-142.6,139.8z"/>
	<path class="st18" d="M-130.9,141.3l-0.1-0.6l-0.1-0.6l-0.1-0.3c-0.3-1-1.1-1.7-2.8-1.7h-2.7h-2.5h-2.8c-0.2,0-0.3,0.1-0.4,0.3l0,0
		l-0.1,0.6l-0.1,0.7v0.2l-1.2,5.9l-1.2,5.6c0,0.2,0,0.4,0,0.4c0,0.1,0.3,0.1,0.5,0.1h2.5c0.2,0,0.4,0,0.5-0.1c0.1,0,0.2-0.4,0.3-0.5
		l0.4-2.2l0.4-2.2l0,0l0.1-0.3l0.5-2.5l0.5-2.2c0-0.2,0.2-0.3,0.4-0.3h7.9C-131,141.6-130.9,141.5-130.9,141.3L-130.9,141.3z"/>
	<path class="st18" d="M-120.8,136.2c-0.2,0-0.4,0-0.6,0h-2.5c-0.2,0-0.4,0.1-0.5,0.3l-5.6,8.2c-0.1,0.1-0.2,0.1-0.2,0l-0.4-1.8
		c0-0.2-0.2-0.3-0.4-0.3h-3.6c-0.2,0-0.3,0.1-0.2,0.3l1.6,5.6c0,0.2,0,0.4,0,0.6l-0.7,2.7c0,0.2,0.1,0.3,0.2,0.3h3.5
		c0.2,0,0.3-0.1,0.4-0.3l0.7-2.7c0-0.2,0.2-0.4,0.3-0.5l9.1-12c0.1-0.1,0-0.2-0.1-0.2L-120.8,136.2L-120.8,136.2z"/>
	<path class="st18" d="M-149.3,143.2L-149.3,143.2c0,0.2-0.2,0.3-0.4,0.3h-4.5c-0.2,0-0.2-0.1-0.2-0.2l0,0l0,0l0,0c0,0,0,0,0-0.1
		c0.4-1.2,1.3-1.9,3-1.9C-149.5,141.3-149.2,142.2-149.3,143.2L-149.3,143.2z M-150.6,138c-5.8,0-7.2,3.5-8,7.1
		c-0.8,3.6-0.7,7,5.3,7h0.2c0,0,0,0,0.1,0h0.4c0,0,0,0,0.1,0c0.1,0,0.1,0,0.2,0l0,0c0.2,0,0.5,0,0.7,0l0,0c1.6,0,3.2,0,3.8,0
		c0.2,0,0.3-0.1,0.4-0.3l0.2-1.2v-0.2l0.3-1.4c0-0.2-0.1-0.3-0.2-0.3h-5.4c-2.2,0-2.8-0.6-2.6-2.3h8.7l0,0l0,0
		c0.1,0,0.3-0.1,0.3-0.2c0,0,0,0,0-0.1l0,0C-144.7,141.2-145.1,138-150.6,138L-150.6,138z"/>
	<path class="st18" d="M-178.2,143.2l-0.1,0.3l0,0l-0.7,2.3l-0.7,2.3c0,0.2-0.2,0.3-0.4,0.3h-3.5c-2.6,0-3.3-2.1-2.6-5.1
		c0.6-3.1,1.9-5,4.5-5.2C-178,137.8-177.3,140.3-178.2,143.2L-178.2,143.2z M-175.8,148.2c0,0,1.6-4,2-6.3c0.5-3.1-1-7.5-7-7.5
		c-5.9,0-8.5,4.3-9.4,8.9c-1,4.7,0.3,8.7,6.2,8.7h4.6h4.3c0.2,0,0.3-0.1,0.4-0.3l0.8-2.9c0-0.2-0.1-0.3-0.2-0.3h-0.7h-0.7
		C-175.8,148.5-175.8,148.4-175.8,148.2C-175.8,148.3-175.8,148.3-175.8,148.2L-175.8,148.2z"/>
	<path class="st18" d="M-146.6,145.6c0,0.1-0.1,0.2-0.2,0.2c-0.1,0-0.2-0.1-0.2-0.2c0-0.1,0.1-0.2,0.2-0.2
		C-146.7,145.4-146.6,145.5-146.6,145.6z"/>
</g>
<g>
	<path class="st19" d="M559.3,87.3c0,7.1,5.8,12.9,12.9,12.9h74.4c7.1,0,12.9-5.8,12.9-12.9V12.9c0-7.1-5.8-12.9-12.9-12.9h-74.4
		c-7.1,0-12.9,5.8-12.9,12.9V87.3z"/>
	<path class="st14" d="M600.9,44.3V30.1h12.5c1.2,0,2.3,0.1,3.4,0.3c1.1,0.2,2.1,0.6,2.9,1.1s1.5,1.2,2,2.1s0.8,2.1,0.8,3.5
		c0,2.5-0.8,4.4-2.3,5.5s-3.5,1.7-5.9,1.7H600.9L600.9,44.3z M587.6,19.8v60.7H617c2.7,0,5.4-0.3,7.9-1c2.6-0.7,4.9-1.7,6.9-3.1
		s3.6-3.2,4.8-5.5c1.2-2.2,1.8-4.9,1.8-7.9c0-3.8-0.9-7-2.8-9.7c-1.8-2.7-4.6-4.6-8.4-5.7c2.7-1.3,4.8-3,6.2-5s2.1-4.6,2.1-7.6
		c0-2.8-0.5-5.2-1.4-7.1s-2.3-3.5-4-4.6c-1.7-1.2-3.7-2-6.1-2.5c-2.4-0.5-5-0.8-7.9-0.8h-28.5V19.8z M600.9,70.1V53.4h14.5
		c2.9,0,5.2,0.7,7,2s2.6,3.6,2.6,6.7c0,1.6-0.3,2.9-0.8,3.9s-1.3,1.8-2.2,2.4s-2,1-3.1,1.3c-1.2,0.3-2.4,0.4-3.7,0.4L600.9,70.1
		L600.9,70.1z"/>
</g>
<path class="st19" d="M50.2-107.6c27.6,0,50,22.4,50,50s-22.4,50-50,50s-50-22.4-50-50S22.6-107.6,50.2-107.6z"/>
<path class="st14" d="M38.1-63.3v-14.2h12.5c1.2,0,2.3,0.1,3.4,0.3c1.1,0.2,2.1,0.6,2.9,1.1c0.8,0.5,1.5,1.2,2,2.1s0.8,2.1,0.8,3.5
	c0,2.5-0.8,4.4-2.3,5.5s-3.5,1.7-5.9,1.7H38.1L38.1-63.3z M24.8-87.9v60.7h29.4c2.7,0,5.4-0.3,7.9-1c2.6-0.7,4.9-1.7,6.9-3.1
	s3.6-3.2,4.8-5.5c1.2-2.2,1.8-4.9,1.8-7.9c0-3.8-0.9-7-2.8-9.7c-1.8-2.7-4.6-4.6-8.4-5.7c2.7-1.3,4.8-3,6.2-5c1.4-2,2.1-4.6,2.1-7.6
	c0-2.8-0.5-5.2-1.4-7.1s-2.3-3.5-4-4.6c-1.7-1.2-3.7-2-6.1-2.5s-5-0.8-7.9-0.8H24.8V-87.9z M38.1-37.6v-16.7h14.5c2.9,0,5.2,0.7,7,2
	s2.6,3.6,2.6,6.7c0,1.6-0.3,2.9-0.8,3.9s-1.3,1.8-2.2,2.4s-2,1-3.1,1.3s-2.4,0.4-3.7,0.4L38.1-37.6L38.1-37.6z"/>
<radialGradient id="SVGID_1_" cx="-772.631" cy="122.1118" r="3.033915e-002" gradientTransform="matrix(2291.6716 0 0 -2283.7224 1771021.625 279075.0625)" gradientUnits="userSpaceOnUse">
	<stop  offset="0" style="stop-color:#34364E;stop-opacity:0.98"/>
	<stop  offset="1" style="stop-color:#0C0824"/>
</radialGradient>
<path class="st20" d="M375,185.2h91.5v91.6H375V185.2z"/>
<path class="st21" d="M375,185.2h91.5v91.6H375V185.2z M370.8,281.1h99.8V180.9h-99.8V281.1z M438.1,222c-3.3,0-4.4,1.7-4.4,3.1
	c0,1.5,0.7,2.6,5.2,5c6.5,3.3,8.6,6.4,8.6,11c0,6.8-5.1,10.5-11.9,10.5c-3.6,0-6.7-0.8-8.5-1.8c-0.3-0.1-0.3-0.3-0.3-0.7v-6.3
	c0-0.4,0.2-0.6,0.5-0.3c2.6,1.8,5.6,2.5,8.4,2.5c3.3,0,4.7-1.4,4.7-3.3c0-1.5-1-2.9-5.2-5.1c-5.9-2.9-8.4-5.9-8.4-10.8
	c0-5.5,4.2-10.1,11.5-10.1c3.6,0,6.1,0.6,7.4,1.2c0.3,0.2,0.4,0.6,0.4,0.9v5.9c0,0.3-0.2,0.6-0.6,0.4
	C443.5,222.7,440.8,222,438.1,222L438.1,222z M402.4,227.1c1,0.1,1.7,0.1,3.4,0.1c4.9,0,9.4-1.8,9.4-8.6c0-5.4-3.3-8.2-8.8-8.2
	c-1.7,0-3.2,0.1-4,0.1V227.1z M395,204.4c0-0.3,0.6-0.5,0.9-0.5c2.7-0.1,6.6-0.2,10.7-0.2c11.5,0,16,6.5,16,14.8
	c0,10.9-7.7,15.5-17,15.5c-1.6,0-2.1-0.1-3.2-0.1v16.4c0,0.3-0.1,0.5-0.5,0.5h-6.4c-0.3,0-0.5-0.1-0.5-0.5L395,204.4L395,204.4z"/>
<radialGradient id="SVGID_2_" cx="-772.6855" cy="122.1112" r="3.033915e-002" gradientTransform="matrix(2291.6716 0 0 -2272.2808 1771021.625 277676.8438)" gradientUnits="userSpaceOnUse">
	<stop  offset="0" style="stop-color:#4B2D4F;stop-opacity:0.98"/>
	<stop  offset="1" style="stop-color:#180024"/>
</radialGradient>
<path class="st22" d="M250.1,185.4h91.5v91.1h-91.5V185.4z"/>
<path class="st23" d="M250.1,185.4h91.5v91.1h-91.5V185.4z M245.9,280.8h99.8v-99.7h-99.8V280.8z M305.8,223.2c0-0.5,0-1.7-0.2-4.1
	c0-0.3,0-0.4,0.3-0.6c2.5-1.1,8.5-2.9,15.2-2.9c0.3,0,0.5,0.1,0.5,0.4v6.2c0,0.3-0.1,0.4-0.5,0.4c-2.6-0.1-6.4,0.2-7.9,0.9v26.8
	c0,0.3-0.1,0.5-0.5,0.5h-6.5c-0.3,0-0.5-0.1-0.5-0.5L305.8,223.2L305.8,223.2z M279.2,227.1c1,0.1,1.7,0.1,3.4,0.1
	c4.9,0,9.4-1.7,9.4-8.5c0-5.4-3.2-8.1-8.8-8.1c-1.7,0-3.2,0.1-4,0.1V227.1L279.2,227.1z M271.8,204.5c0-0.3,0.1-0.5,0.4-0.5
	c2.7-0.1,6.6-0.2,10.7-0.2c11.5,0,16.6,6.5,16.6,14.8c0,10.8-7.7,15.5-17,15.5c-1.6,0-2.1-0.1-3.2-0.1v16.4c0,0.3-0.1,0.5-0.5,0.5
	h-6.4c-0.3,0-0.5-0.1-0.5-0.5L271.8,204.5L271.8,204.5L271.8,204.5z"/>
<radialGradient id="SVGID_3_" cx="-772.7401" cy="122.1113" r="3.037684e-002" gradientTransform="matrix(2291.6716 0 0 -2290.8716 1771021.625 279948.7188)" gradientUnits="userSpaceOnUse">
	<stop  offset="0" style="stop-color:#423325;stop-opacity:0.98"/>
	<stop  offset="1" style="stop-color:#1C0A00"/>
</radialGradient>
<path class="st24" d="M125.1,186.8h91.6v92h-91.6V186.8z"/>
<path class="st25" d="M125.1,186.8h91.6v92h-91.6V186.8z M120.9,283.1h99.9V182.5h-99.9V283.1z M186.4,218.4c0-0.3,0.1-0.5,0.5-0.5
	h6.5c0.3,0,0.5,0.1,0.5,0.5v33.9c0,0.3-0.1,0.5-0.5,0.5h-6.5c-0.4,0-0.5-0.2-0.5-0.6L186.4,218.4L186.4,218.4L186.4,218.4z
	 M185.9,208.6c0-2.8,1.9-4.4,4.2-4.4c2.5,0,4.2,1.8,4.2,4.4c0,2.8-1.8,4.4-4.3,4.4C187.6,213,185.9,211.5,185.9,208.6z M167.2,232.5
	c-1.2-4.8-3.9-15.2-5-20.2h-0.1c-0.9,5-3.1,13.5-4.8,20.2H167.2z M155.6,239.5l-3.3,12.9c-0.1,0.3-0.2,0.4-0.6,0.4h-6.1
	c-0.4,0-0.5-0.1-0.4-0.6l11.8-42.7c0.2-0.8,0.3-1.5,0.4-3.6c0-0.3,0.1-0.4,0.3-0.4h8.7c0.3,0,0.4,0.1,0.5,0.4l13.2,46.4
	c0.1,0.3,0,0.6-0.3,0.6h-6.9c-0.3,0-0.5-0.1-0.6-0.4l-3.4-12.9H155.6L155.6,239.5z"/>
<radialGradient id="SVGID_4_" cx="-772.7928" cy="122.1097" r="3.037684e-002" gradientTransform="matrix(2291.6716 0 0 -2272.325 1771021.625 277682.25)" gradientUnits="userSpaceOnUse">
	<stop  offset="0" style="stop-color:#442F55;stop-opacity:0.98"/>
	<stop  offset="1" style="stop-color:#12002C"/>
</radialGradient>
<path class="st26" d="M4.2,189h91.6v91.3H4.2V189z"/>
<path class="st27" d="M4.2,189h91.6v91.3H4.2V189z M0,284.5H100v-99.8H0V284.5z M70.7,232.8c2.1,0,2.9,0,3.1-0.1
	c0-0.3,0.1-0.5,0.1-0.7c0-2.3-1.1-6.6-5.4-6.6c-4,0-5.7,3.6-6.1,7.4H70.7L70.7,232.8z M62.3,238.7c0.1,5.8,2.7,9.6,9.1,9.6
	c2.5,0,4.6-0.3,6.8-1.3c0.3-0.1,0.5-0.1,0.5,0.3v5.3c0,0.4-0.1,0.6-0.4,0.9c-2.2,1.1-5,1.6-8.4,1.6c-11,0-15.1-8.3-15.1-17.6
	c0-10.1,5.1-18.3,14-18.3c9.1,0,12.2,7.8,12.2,14.2c0,2-0.1,3.7-0.3,4.5c-0.1,0.3-0.2,0.5-0.5,0.6c-0.8,0.1-3.3,0.3-7,0.3
	L62.3,238.7L62.3,238.7z M40,234.3c-1.2-4.7-4-15.1-5-20h-0.1c-0.9,5-3.2,13.4-4.9,20H40z M28.3,241.2L25,254
	c-0.1,0.3-0.2,0.5-0.6,0.5h-6.1c-0.4,0-0.5-0.1-0.4-0.6l11.8-42.3c0.2-0.8,0.3-1.4,0.4-3.5c0-0.3,0.1-0.4,0.3-0.4h8.7
	c0.3,0,0.4,0.1,0.5,0.4l13.2,45.9c0.1,0.3,0,0.6-0.3,0.6h-6.9c-0.3,0-0.5-0.1-0.6-0.4l-3.4-12.8L28.3,241.2L28.3,241.2z"/>
<path d="M47.8-0.1c-4.4,0.3-8.2,0.9-12.1,2.1C25,5.2,15.8,11.7,9.3,20.8c-3.4,4.7-5.9,10-7.4,15.5C0.9,39.8,0.3,42.9,0,47
	C0,47.8,0,52,0,53c0.2,2.7,0.6,5.4,1.2,8.1C3.3,70.2,8,78.7,14.7,85.4c3.2,3.2,6.7,5.9,10.6,8.1c6.2,3.5,13.1,5.7,20.2,6.4
	c1.4,0.1,1.9,0.2,4,0.2c2.2,0,3.1,0,4.5-0.1c5.7-0.5,11.2-1.9,16.4-4.2c0.8-0.4,2.8-1.4,3.7-1.8c3-1.6,5.8-3.5,8.4-5.7
	c2.1-1.8,4.1-3.8,5.9-5.9c5.3-6.3,9-13.7,10.7-21.7c0.9-4,1.2-7.7,1.1-12.1c-0.1-6.4-1.5-12.6-4.2-18.7c-2-4.6-4.7-8.9-8-12.7
	c-1.7-1.9-3.5-3.8-5.5-5.4C74.6,5,64.9,1,54.6,0c-1.5-0.1-1.9-0.2-4.2-0.2C49.1-0.1,47.9-0.1,47.8-0.1z M53.4,6.3
	c5.9,0.5,11.2,1.9,16.4,4.5c11.4,5.7,19.8,16.1,22.8,28.5c0.7,2.9,1.1,5.8,1.3,9.2c0.1,1.8-0.1,4.6-0.4,6.9
	c-1.1,8.1-4.4,15.8-9.7,22.1c-1.6,1.9-3.4,3.7-5.3,5.4c-6.4,5.5-14.3,8.9-22.7,10c-1.8,0.2-3.7,0.4-5.5,0.3c-1.3,0-2.7,0-4-0.2
	c-6.8-0.6-13.3-2.8-19.1-6.4c-2.8-1.7-5.4-3.8-7.7-6.2c-17-17-17-44.5,0-61.5c5.2-5.2,11.6-9,18.7-11C41.4,7,44.7,6.4,48,6.2
	C49,6.2,52.5,6.2,53.4,6.3L53.4,6.3z"/>
<path d="M44,19.6c-0.1,0-0.2,0.1-0.4,0.1c-0.5,0.1-1.3,0.4-2.1,0.6c-3.6,1.2-6.9,2.8-10,4.9c-4.2,2.8-8.4,6.6-13.1,11.9
	c-3.2,3.6-5.5,7.3-7,11c-1.3,3.4-1.9,7-1.7,9.8c0,0.2,0.1,0.5,0.1,0.5l0,0.1l0-0.1c0.1-0.4,0.9-1.7,1.3-2.6c2.1-3.6,4.6-7,7.4-10
	c2.2-2.3,3.9-3.7,5.6-4.5c1.1-0.5,2-0.7,2.8-0.6c0.7,0.1,1.2,0.3,1.6,0.8c0.3,0.3,0.5,0.7,0.6,1.1l0.1,0.3l0,12c0,7.8,0,12.1,0,12.3
	c0,0.4-0.1,0.8-0.3,1.1c-0.4,0.9-1.5,1.4-3,1.3c-0.6-0.1-1.1-0.2-1.7-0.3c-0.1,0-0.2-0.1-0.2,0c0,0,0.1,0.2,0.2,0.3
	c1,1.4,2.6,3,4.3,4.3c4.4,3.3,11,5.7,18.1,6.7l0.9,0.1l0.2-0.2c0.1-0.1,0.6-0.7,1.1-1.2c1.5-1.6,1.7-1.8,3.9-4.1
	c1.1-1.2,2-2.1,2.1-2.1s0.5,0.3,1,0.8l3.8,3.2l2.1,1.7c0,0,0.1,0,0.6-0.3c2-1.3,4-2.7,5.8-4.3c0.7-0.7,2.8-2.7,3.5-3.5
	c2-2.3,3.8-4.7,5.4-7.2c1-1.6,2.1-3.6,2.7-4.7l0.2-0.4l-1,1c-1.9,1.9-3.3,3.1-4.9,4.1c-2.6,1.7-4.8,2.3-6.4,1.6
	c-0.4-0.1-0.7-0.4-1-0.6l-0.2-0.2l0-0.4c-0.1-1.2-0.1-3.9-0.2-8.9C66,50.4,66,39.7,66,37.9c0.1-1.6,0.1-2.4,0.2-2.9
	c0.1-0.4,0.1-0.4,0.4-0.9c0.8-1.3,1.8-2.8,3.3-4.8c1.3-1.8,3.5-4.5,4.9-6.2c0.2-0.2,0.3-0.4,0.3-0.4c0.1-0.1,0.1-0.1-0.1,0
	c-0.8,0.1-2.9,0.7-4.2,1.1c-5.5,1.8-10.8,5.1-14.5,8.9l-0.5,0.6l-0.2-0.1c-1-0.7-3.1-1.2-5.2-1.2l-0.7,0l0.2,0.1
	c0.7,0.5,1.5,1.3,2.2,2.3c0.6,0.9,1.1,2,1.3,3.1l0.1,0.4l0,12.8l0,12.8L53,63.9c-2.1,1.7-4.2,2.8-5.9,3.2c-1.5,0.3-3,0-4.1-1
	c-0.5-0.5-0.9-1-1.2-1.6l-0.1-0.3V48.8c0-8.5,0-15.4,0-15.4c-0.7,0.4-1,0.5-1.5,0.5c-0.5,0-1-0.2-1.3-0.6c-0.4-0.4-0.7-0.9-0.9-1.7
	c-0.2-0.6-0.2-1.1-0.2-2.2c0-1.1,0-1.5,0.2-2.3c0.3-1.1,0.8-2.1,1.4-3.1c1-1.5,2.6-3,4.3-4.2C43.9,19.8,44.1,19.6,44,19.6
	C44.1,19.6,44.1,19.6,44,19.6z"/>
<path d="M82.9,25.8c-0.3,0.3-0.6,0.6-1,0.8c-0.8,0.4-1.5,0.5-3.1,0.5c-0.6,0-0.7,0-0.7,0.1c0,0-1.5,2.1-3.2,4.6l-3.1,4.5l-0.2,1.3
	c-0.1,0.7-0.2,1.3-0.2,1.3c0,0,1.5,0,3.4,0h3.4l0,0.1c0,0.2-0.5,3.6-0.5,3.7c0,0.1,0.1,0.1,1.9,0.1l1.9,0l0-0.3c0-0.2,0-0.4,0-0.4
	v-0.1h-0.3c-0.3,0-0.3,0-0.3,0c0,0,0.1-0.5,0.1-1c0.1-0.5,0.2-1.2,0.2-1.4l0.1-0.5h1.9l0.1-0.5c0.2-1.6,0.2-2,0.3-2.1
	c0,0-0.2,0-0.9,0c-0.3,0-0.6,0-0.9,0c0,0,0.1-0.6,0.2-1.3c0.1-0.7,0.2-1.7,0.3-2.2s0.3-2.3,0.5-4s0.4-3.1,0.4-3.1
	C83.1,25.6,83,25.7,82.9,25.8z M79.1,31.7c-0.1,0.8-0.2,2-0.3,2.5c-0.1,0.5-0.1,1.2-0.2,1.5l-0.1,0.6l-1.7,0c-1.5,0-1.7,0-1.7,0
	c0,0,4.2-6.1,4.2-6.1S79.2,30.9,79.1,31.7z"/>
</svg>
