<?xml version="1.0" encoding="utf-8"?>
<!-- Generator: Adobe Illustrator 19.2.1, SVG Export Plug-In . SVG Version: 6.00 Build 0)  -->
<svg version="1.1" id="Layer_1" xmlns="http://www.w3.org/2000/svg" xmlns:xlink="http://www.w3.org/1999/xlink" x="0px" y="0px"
	 viewBox="0 0 1920 1080" style="enable-background:new 0 0 1920 1080;" xml:space="preserve">
<style type="text/css">
	.st0{fill:#0068B4;stroke:#0068B4;stroke-width:2;stroke-miterlimit:10;}
	.st1{fill:#A180BE;stroke:#A180BE;stroke-width:2;stroke-miterlimit:10;}
	.st2{fill:#A180BE;}
	.st3{fill:#0068B4;}
</style>
<g>
	<path class="st0" d="M1265.1,382.4h-34.9v-1.2c3.2-0.3,5.4-0.8,6.6-1.6c2.2-1.4,3.3-3.3,3.3-5.7c0-1.5-0.5-3.4-1.5-5.9l-0.9-2.2
		l-5.1-12.6h-23.4l-2.8,7.3l-1.3,3.3c-1.6,3.9-2.4,7-2.4,9.2c0,1.3,0.3,2.5,0.9,3.7c0.6,1.1,1.4,2.1,2.4,2.8c1.4,1,3.2,1.5,5.3,1.7
		v1.2h-23.8v-1.2c1.9-0.1,3.5-0.6,4.9-1.4c1.4-0.8,2.8-2.1,4.1-3.9c1.1-1.5,2.2-3.3,3.3-5.6c1.1-2.3,2.5-5.7,4.3-10.3l19.5-50.2h3
		l23.1,55.9c1.7,4.2,3.1,7.2,4.1,9c1,1.8,2.1,3.2,3.4,4.1c0.9,0.6,1.8,1.1,2.9,1.5c1.1,0.3,2.7,0.6,4.9,0.9V382.4z M1231.7,351
		l-11.2-27.6L1210,351H1231.7z"/>
	<path class="st0" d="M1358.5,311c-2,0.1-3.6,0.4-4.9,0.8c-1.2,0.4-2.3,1.2-3.4,2.2c-0.8,0.7-1.4,1.6-1.8,2.5
		c-0.4,0.9-0.7,2-0.8,3.4c-0.2,1.8-0.4,4-0.4,6.5v39.2c0,3.7,0.2,6.4,0.6,8.1c0.4,1.8,1.2,3.2,2.3,4.3c1.9,1.9,4.7,2.9,8.2,3.1v1.2
		h-34v-1.2c2.1-0.1,3.7-0.4,5-0.9c1.3-0.5,2.4-1.2,3.4-2.2c1.1-1.1,1.9-2.6,2.3-4.3c0.4-1.8,0.6-4.4,0.6-8.1v-47.5l-27.4,64.2h-1.1
		l-27.2-63.3v46.6c0,3.7,0.2,6.3,0.6,8.1c0.4,1.7,1.2,3.2,2.3,4.3c1,1,2.1,1.8,3.4,2.2c1.3,0.5,2.9,0.7,4.9,0.9v1.2h-24.5v-1.2
		c2-0.1,3.7-0.4,4.9-0.9c1.3-0.5,2.4-1.2,3.4-2.2c1.1-1.1,1.9-2.6,2.3-4.3c0.4-1.8,0.6-4.4,0.6-8.1v-39.2c0-1.6-0.1-3.2-0.2-4.6
		c-0.2-2.6-0.6-4.5-1.2-5.7c-0.9-1.7-2.1-2.9-3.6-3.7c-1.5-0.8-3.6-1.3-6.1-1.4v-1.2h23.1l23,56.9l23.9-56.9h21.9V311z"/>
	<path class="st0" d="M1420.9,309.8l0.9,17.6l-1.2,0.1c-0.5-3-1.2-5.4-2.3-7.4c-1.1-1.9-2.6-3.7-4.6-5.2c-1.7-1.2-3.6-2.1-5.9-2.6
		c-2.3-0.5-5.3-0.8-9-0.8h-12.2v31.9h3.2c3.2,0,5.7-0.2,7.3-0.6c1.6-0.4,3-1.2,4-2.3c1-1,1.7-2.2,2.2-3.6c0.5-1.4,0.9-3.5,1.2-6.2
		l1.2,0.1l-0.2,28.5h-1.2c-0.3-2.7-0.8-4.9-1.4-6.6c-0.6-1.7-1.5-3.1-2.6-4.3c-1.1-1.1-2.4-2-4.1-2.5c-1.7-0.5-3.9-0.8-6.5-0.8h-3
		v12.2c0,4.9,0.1,8.4,0.4,10.6c0.2,2.2,0.7,4.1,1.4,5.6c1.2,2.6,3,4.4,5.5,5.6c2.5,1.2,5.7,1.8,9.8,1.8c4.3,0,7.8-0.5,10.7-1.6
		c2.9-1.1,5.2-2.8,7-5c1.3-1.5,2.3-3.3,3.1-5.2c0.8-1.9,1.5-4.5,2.2-7.7l1.2,0.1l-0.7,21.2h-63.5v-1.2c2-0.1,3.7-0.4,4.9-0.9
		c1.3-0.5,2.4-1.2,3.4-2.2c1.1-1.1,1.9-2.6,2.3-4.3c0.4-1.8,0.6-4.4,0.6-8.1v-39.2c0-3.6-0.2-6.3-0.6-8.1c-0.4-1.8-1.2-3.2-2.3-4.3
		c-1-1-2.1-1.8-3.3-2.2c-1.3-0.5-2.9-0.7-5-0.9v-1.2H1420.9z"/>
	<path class="st0" d="M1454.4,346.9v18.8c0,3.6,0.2,6.3,0.6,8.1c0.4,1.8,1.2,3.2,2.3,4.3c1,1,2.1,1.7,3.3,2.2c1.3,0.5,2.9,0.8,5,0.9
		v1.2h-34v-1.2c2.1-0.1,3.7-0.4,5-0.9c1.3-0.5,2.4-1.2,3.3-2.2c1.1-1.1,1.9-2.6,2.3-4.3c0.4-1.7,0.6-4.4,0.6-8.1v-39.2
		c0-3.7-0.2-6.3-0.6-8.1c-0.4-1.7-1.2-3.2-2.3-4.3c-1-1-2.1-1.8-3.4-2.2c-1.3-0.5-2.9-0.7-4.9-0.9v-1.2h25.6c4.3,0,7.1,0,8.5,0.1
		c5.5,0.2,9.8,1,12.9,2.2c3.5,1.4,6.2,3.5,8.2,6.4s2.9,6.1,2.9,9.8c0,5.5-2.1,10-6.3,13.3c-1.3,1-2.7,1.8-4.2,2.4s-3.6,1.2-6.2,1.8
		c2.1,0.9,3.7,1.8,4.7,2.8c0.8,0.7,1.6,1.7,2.2,2.8c0.7,1.1,1.7,3.1,3,5.9c3.2,6.5,5.5,11.2,7.2,14.2c1.6,3,3,5.2,4.1,6.5
		c0.9,1.1,1.7,1.9,2.6,2.3c0.8,0.4,2,0.7,3.4,0.9v1.2h-17.7c-0.9-1.9-1.5-3.2-1.7-3.7l-3.7-8.5c-2.2-5.1-4.5-9.6-6.8-13.5
		c-2.3-3.9-4.3-6.5-6.2-7.9c-1-0.7-2-1.2-3.1-1.5c-1.1-0.3-2.4-0.5-4-0.5H1454.4z M1454.4,345.7h2c4.4,0,7.5-0.2,9.4-0.7
		c1.9-0.5,3.7-1.5,5.3-3.1c3.7-3.5,5.6-7.9,5.6-13.2c0-2.8-0.5-5.4-1.6-7.9c-1.1-2.5-2.6-4.5-4.5-6.1c-1.5-1.2-3.3-2-5.3-2.5
		c-2.1-0.5-5-0.7-8.8-0.7h-2.2V345.7z"/>
	<path class="st0" d="M1536.1,309.8v1.2c-2,0.1-3.7,0.4-4.9,0.9c-1.3,0.5-2.4,1.2-3.4,2.2c-1.4,1.4-2.2,3.4-2.6,5.9
		c-0.2,1.9-0.3,4-0.3,6.5v39.2c0,2.9,0.1,5.3,0.4,7c0.3,1.7,0.7,3.1,1.4,4.1c0.9,1.4,2.1,2.5,3.6,3.2s3.4,1.1,5.8,1.3v1.2h-34v-1.2
		c2.1-0.1,3.7-0.4,5-0.9c1.3-0.5,2.4-1.2,3.3-2.2c1.1-1.1,1.9-2.6,2.3-4.3c0.4-1.7,0.6-4.4,0.6-8.1v-39.2c0-3.7-0.2-6.3-0.6-8.1
		c-0.4-1.7-1.2-3.2-2.3-4.3c-1-1-2.1-1.8-3.4-2.2c-1.3-0.5-2.9-0.7-4.9-0.9v-1.2H1536.1z"/>
	<path class="st0" d="M1606.7,309.4l0.6,23.8h-1.2c-0.4-1-0.7-1.8-0.9-2.3c-1.2-3.4-2.3-5.9-3-7.6c-1.4-3-3.4-5.7-6-8.2
		c-2-1.9-4-3.2-6.2-4.1c-2.1-0.9-4.5-1.3-7.2-1.3c-4,0-7.5,0.9-10.4,2.6c-2.6,1.5-5,3.7-7.2,6.6c-2.2,2.9-4.1,6.1-5.5,9.8
		c-2,5.1-3,11-3,17.6c0,5.6,0.7,10.6,2.1,15.1c1.4,4.5,3.4,8.2,6.1,11.2c4.9,5.6,11.4,8.4,19.5,8.4c4,0,7.7-0.7,10.9-2.1
		c3.2-1.4,5.7-3.4,7.5-5.9c2.1-2.9,3.5-6.9,4.5-11.9l1.2,0.2c-0.7,5.6-2.2,10.1-4.6,13.4c-2.3,3.2-5.4,5.6-9.4,7.2
		s-8.6,2.5-13.9,2.5c-4.9,0-9.6-0.7-14-2.2c-7.1-2.3-12.7-6.6-16.7-12.7c-4-6.1-6-13.4-6-21.9c0-6.5,1.2-12.5,3.5-18
		c2.3-5.5,5.6-9.9,9.8-13.2c3.2-2.6,7.1-4.6,11.6-6.1c4.5-1.5,9-2.3,13.5-2.3c4.3,0,8.8,0.8,13.6,2.4l4.4,1.4
		c0.9,0.3,1.6,0.5,2.2,0.5c0.9,0,1.6-0.4,2.2-1.1c0.2-0.4,0.5-0.9,0.9-1.8H1606.7z"/>
	<path class="st0" d="M1688.3,382.4h-34.9v-1.2c3.2-0.3,5.4-0.8,6.6-1.6c2.2-1.4,3.3-3.3,3.3-5.7c0-1.5-0.5-3.4-1.5-5.9l-0.9-2.2
		l-5.1-12.6h-23.4l-2.8,7.3l-1.3,3.3c-1.6,3.9-2.4,7-2.4,9.2c0,1.3,0.3,2.5,0.9,3.7c0.6,1.1,1.4,2.1,2.4,2.8c1.4,1,3.2,1.5,5.3,1.7
		v1.2h-23.8v-1.2c1.9-0.1,3.5-0.6,4.9-1.4c1.4-0.8,2.8-2.1,4.1-3.9c1.1-1.5,2.2-3.3,3.3-5.6c1.1-2.3,2.5-5.7,4.3-10.3l19.5-50.2h3
		l23.1,55.9c1.7,4.2,3.1,7.2,4.1,9c1,1.8,2.1,3.2,3.4,4.1c0.9,0.6,1.8,1.1,2.9,1.5c1.1,0.3,2.7,0.6,4.9,0.9V382.4z M1654.9,351
		l-11.2-27.6l-10.5,27.6H1654.9z"/>
	<path class="st0" d="M1703.1,319.4v46.3c0,3.7,0.2,6.3,0.6,8.1c0.4,1.7,1.2,3.2,2.3,4.3c1,1,2.1,1.8,3.4,2.2
		c1.3,0.5,2.9,0.7,4.9,0.9v1.2h-24.5v-1.2c2-0.1,3.7-0.4,4.9-0.9c1.3-0.5,2.4-1.2,3.4-2.2c1.1-1.1,1.9-2.6,2.3-4.3
		c0.4-1.8,0.6-4.4,0.6-8.1v-39.3c0-3.6-0.2-6.2-0.6-8c-0.4-1.8-1.2-3.2-2.3-4.3c-1-1-2.1-1.8-3.3-2.2c-1.3-0.5-2.9-0.7-5-0.9v-1.2
		h20.5l43.2,55.1v-38.4c0-3.7-0.2-6.3-0.6-8.1c-0.4-1.7-1.2-3.2-2.3-4.3c-1-1-2.1-1.8-3.4-2.2c-1.3-0.5-2.9-0.7-4.9-0.9v-1.2h24.5
		v1.2c-3.5,0-6.3,1-8.3,3.1c-1.1,1.1-1.9,2.6-2.3,4.3c-0.4,1.8-0.6,4.4-0.6,8v56h-2.4L1703.1,319.4z"/>
	<path class="st0" d="M1186,417.4v1.2c-2,0.1-3.7,0.4-4.9,0.9c-1.3,0.5-2.4,1.2-3.4,2.2c-1.2,1.2-1.9,2.7-2.3,4.5
		c-0.4,1.8-0.6,4.8-0.6,9.1v30.1c0,4.9,0.2,8.4,0.6,10.6s1.1,4.2,2.3,6c1.7,2.8,3.8,4.8,6.3,6.1c2.5,1.3,5.6,1.9,9.4,1.9
		c3.7,0,7.2-0.6,10.6-1.7c3.4-1.1,6.1-2.7,8.4-4.7c1.4-1.2,2.4-2.6,3.1-4c0.7-1.5,1.1-3.3,1.3-5.5c0.1-1.5,0.2-4.9,0.2-10.3v-29.7
		c0-3.7-0.2-6.3-0.6-8.1c-0.4-1.7-1.2-3.2-2.3-4.3c-1-1-2.1-1.8-3.4-2.2c-1.3-0.5-2.9-0.7-4.9-0.9v-1.2h24.5v1.2
		c-2,0.1-3.7,0.4-4.9,0.9c-1.3,0.5-2.4,1.2-3.4,2.2c-1.1,1.1-1.9,2.6-2.3,4.3c-0.4,1.8-0.6,4.4-0.6,8.1v33.6c0,5-0.4,8.6-1.1,11
		c-0.8,2.4-2.3,4.5-4.5,6.5c-5.2,4.5-12.6,6.7-22.2,6.7c-10,0-17.4-2.1-22.2-6.3c-3.1-2.7-4.9-6.2-5.5-10.6
		c-0.2-1.6-0.3-4.4-0.3-8.5v-32.3c0-3.7-0.2-6.3-0.6-8.1c-0.4-1.7-1.2-3.2-2.3-4.3c-1-1-2.1-1.8-3.3-2.2c-1.3-0.5-2.9-0.7-5-0.9
		v-1.2H1186z"/>
	<path class="st0" d="M1248.1,427v46.3c0,3.7,0.2,6.3,0.6,8.1c0.4,1.7,1.2,3.2,2.3,4.3c1,1,2.1,1.8,3.4,2.2c1.3,0.5,2.9,0.7,4.9,0.9
		v1.2h-24.5v-1.2c2-0.1,3.7-0.4,4.9-0.9c1.3-0.5,2.4-1.2,3.4-2.2c1.1-1.1,1.9-2.6,2.3-4.3c0.4-1.8,0.6-4.4,0.6-8.1V434
		c0-3.6-0.2-6.2-0.6-8c-0.4-1.8-1.2-3.2-2.3-4.3c-1-1-2.1-1.8-3.3-2.2c-1.3-0.5-2.9-0.7-5-0.9v-1.2h20.5l43.2,55.1v-38.4
		c0-3.7-0.2-6.3-0.6-8.1c-0.4-1.7-1.2-3.2-2.3-4.3c-1-1-2.1-1.8-3.4-2.2c-1.3-0.5-2.9-0.7-4.9-0.9v-1.2h24.5v1.2
		c-3.5,0-6.3,1-8.3,3.1c-1.1,1.1-1.9,2.6-2.3,4.3c-0.4,1.8-0.6,4.4-0.6,8v56h-2.4L1248.1,427z"/>
	<path class="st0" d="M1351.1,417.4v1.2c-2,0.1-3.7,0.4-4.9,0.9c-1.3,0.5-2.4,1.2-3.4,2.2c-1.4,1.4-2.2,3.4-2.6,5.9
		c-0.2,1.9-0.3,4-0.3,6.5v39.2c0,2.9,0.1,5.3,0.4,7c0.3,1.7,0.7,3.1,1.4,4.1c0.9,1.4,2.1,2.5,3.6,3.2s3.4,1.1,5.8,1.3v1.2h-34v-1.2
		c2.1-0.1,3.7-0.4,5-0.9c1.3-0.5,2.4-1.2,3.3-2.2c1.1-1.1,1.9-2.6,2.3-4.3c0.4-1.7,0.6-4.4,0.6-8.1v-39.2c0-3.7-0.2-6.3-0.6-8.1
		c-0.4-1.7-1.2-3.2-2.3-4.3c-1-1-2.1-1.8-3.4-2.2c-1.3-0.5-2.9-0.7-4.9-0.9v-1.2H1351.1z"/>
	<path class="st0" d="M1351.9,417.4h35.1v1.2c-2.7,0.2-4.6,0.7-5.7,1.2c-1.1,0.5-2,1.4-2.7,2.5c-0.7,1.1-1,2.3-1,3.6
		c0,0.9,0.1,1.7,0.3,2.4c0.2,0.7,0.7,2.3,1.6,4.6l15.7,42.8l15.3-37.5c2.1-5.3,3.2-9.1,3.2-11.5c0-1.3-0.2-2.6-0.6-3.8
		c-0.4-1.2-1-2.1-1.7-2.7c-0.7-0.6-1.5-1-2.3-1.3c-0.9-0.2-2-0.4-3.3-0.4v-1.2h23.7v1.2c-2,0.2-3.6,0.7-5.1,1.4
		c-1.4,0.8-2.8,2-4.1,3.6c-0.9,1.1-1.8,2.7-2.8,4.7c-1,2-2.3,5-4,9.1l-21.8,52.6h-2.2l-21.2-54.4c-2.8-7.1-5-11.6-6.6-13.6
		c-1.1-1.2-2.4-2.1-3.9-2.6c-1.5-0.5-3.4-0.8-5.7-0.8V417.4z"/>
	<path class="st0" d="M1487.3,417.4l0.9,17.6l-1.2,0.1c-0.5-3-1.2-5.4-2.3-7.4c-1.1-1.9-2.6-3.7-4.6-5.2c-1.7-1.2-3.6-2.1-5.9-2.6
		c-2.3-0.5-5.3-0.8-9-0.8h-12.2V451h3.2c3.2,0,5.7-0.2,7.3-0.6c1.6-0.4,3-1.2,4-2.3c1-1,1.7-2.2,2.2-3.6c0.5-1.4,0.9-3.5,1.2-6.2
		l1.2,0.1l-0.2,28.5h-1.2c-0.3-2.7-0.8-4.9-1.4-6.6c-0.6-1.7-1.5-3.1-2.6-4.3c-1.1-1.1-2.4-2-4.1-2.5c-1.7-0.5-3.9-0.8-6.5-0.8h-3
		v12.2c0,4.9,0.1,8.4,0.4,10.6c0.2,2.2,0.7,4.1,1.4,5.6c1.2,2.6,3,4.4,5.5,5.6c2.5,1.2,5.7,1.8,9.8,1.8c4.3,0,7.8-0.5,10.7-1.6
		c2.9-1.1,5.2-2.8,7-5c1.3-1.5,2.3-3.3,3.1-5.2c0.8-1.9,1.5-4.5,2.2-7.7l1.2,0.1l-0.7,21.2h-63.5v-1.2c2-0.1,3.7-0.4,4.9-0.9
		c1.3-0.5,2.4-1.2,3.4-2.2c1.1-1.1,1.9-2.6,2.3-4.3c0.4-1.8,0.6-4.4,0.6-8.1v-39.2c0-3.6-0.2-6.3-0.6-8.1c-0.4-1.8-1.2-3.2-2.3-4.3
		c-1-1-2.1-1.8-3.3-2.2c-1.3-0.5-2.9-0.7-5-0.9v-1.2H1487.3z"/>
	<path class="st0" d="M1520.8,454.5v18.8c0,3.6,0.2,6.3,0.6,8.1c0.4,1.8,1.2,3.2,2.3,4.3c1,1,2.1,1.7,3.3,2.2c1.3,0.5,2.9,0.8,5,0.9
		v1.2h-34v-1.2c2.1-0.1,3.7-0.4,5-0.9c1.3-0.5,2.4-1.2,3.3-2.2c1.1-1.1,1.9-2.6,2.3-4.3c0.4-1.7,0.6-4.4,0.6-8.1v-39.2
		c0-3.7-0.2-6.3-0.6-8.1c-0.4-1.7-1.2-3.2-2.3-4.3c-1-1-2.1-1.8-3.4-2.2c-1.3-0.5-2.9-0.7-4.9-0.9v-1.2h25.6c4.3,0,7.1,0,8.5,0.1
		c5.5,0.2,9.8,1,12.9,2.2c3.5,1.4,6.2,3.5,8.2,6.4s2.9,6.1,2.9,9.8c0,5.5-2.1,10-6.3,13.3c-1.3,1-2.7,1.8-4.2,2.4s-3.6,1.2-6.2,1.8
		c2.1,0.9,3.7,1.8,4.7,2.8c0.8,0.7,1.6,1.7,2.2,2.8c0.7,1.1,1.7,3.1,3,5.9c3.2,6.5,5.5,11.2,7.2,14.2c1.6,3,3,5.2,4.1,6.5
		c0.9,1.1,1.7,1.9,2.6,2.3c0.8,0.4,2,0.7,3.4,0.9v1.2h-17.7c-0.9-1.9-1.5-3.2-1.7-3.7l-3.7-8.5c-2.2-5.1-4.5-9.6-6.8-13.5
		c-2.3-3.9-4.3-6.5-6.2-7.9c-1-0.7-2-1.2-3.1-1.5c-1.1-0.3-2.4-0.5-4-0.5H1520.8z M1520.8,453.3h2c4.4,0,7.5-0.2,9.4-0.7
		c1.9-0.5,3.7-1.5,5.3-3.1c3.7-3.5,5.6-7.9,5.6-13.2c0-2.8-0.5-5.4-1.6-7.9c-1.1-2.5-2.6-4.5-4.5-6.1c-1.5-1.2-3.3-2-5.3-2.5
		c-2.1-0.5-5-0.7-8.8-0.7h-2.2V453.3z"/>
	<path class="st0" d="M1571.1,489.8l0.2-22l1.2,0.1c1.5,5.6,3.3,10,5.3,13.2c3.9,5.9,8.7,8.9,14.6,8.9c4.1,0,7.4-1.4,10.1-4.1
		c2.7-2.7,4-6.2,4-10.4c0-1.8-0.3-3.7-0.9-5.5c-0.6-1.9-1.4-3.5-2.4-4.8c-1-1.4-2.5-2.7-4.3-4c-1.9-1.3-4.7-2.9-8.5-4.8
		c-3.4-1.7-5.9-3.1-7.7-4.3c-1.8-1.2-3.2-2.4-4.3-3.6c-3-3.3-4.6-7.4-4.6-12.2c0-2.9,0.6-5.8,1.8-8.5c1.2-2.7,2.8-5.1,5-7
		c3.8-3.5,8.2-5.2,13.3-5.2c1.7,0,3.2,0.2,4.6,0.5c1.4,0.3,3.3,1,5.7,2c1.8,0.7,3,1.2,3.6,1.4c0.6,0.2,1.2,0.3,1.7,0.3
		c1.2,0,2.1-0.9,2.5-2.7h1.2l0.4,21.1h-1.2c-1-3.4-1.8-5.9-2.5-7.7c-0.7-1.8-1.5-3.4-2.5-5c-1.7-2.8-3.6-4.8-5.7-6.1
		c-2.1-1.3-4.5-2-7.2-2c-4,0-7.1,1.3-9.4,4c-1,1.1-1.7,2.4-2.3,3.9c-0.5,1.5-0.8,3-0.8,4.5c0,5.9,3.8,10.7,11.4,14.3l7.5,3.6
		c5.8,2.7,9.9,5.8,12.5,9.1c2.9,3.7,4.4,8,4.4,12.9c0,3.3-0.7,6.4-2,9.3c-1.8,4.1-4.6,7.3-8.3,9.6c-3.7,2.2-8,3.4-13,3.4
		c-4.6,0-9-0.9-13.2-2.7c-2.2-1-3.5-1.5-3.9-1.6c-0.4-0.1-0.9-0.2-1.4-0.2c-1.7,0-2.9,0.9-3.5,2.6H1571.1z"/>
	<path class="st0" d="M1658.8,417.4v1.2c-2,0.1-3.7,0.4-4.9,0.9c-1.3,0.5-2.4,1.2-3.4,2.2c-1.4,1.4-2.2,3.4-2.6,5.9
		c-0.2,1.9-0.3,4-0.3,6.5v39.2c0,2.9,0.1,5.3,0.4,7c0.3,1.7,0.7,3.1,1.4,4.1c0.9,1.4,2.1,2.5,3.6,3.2s3.4,1.1,5.8,1.3v1.2h-34v-1.2
		c2.1-0.1,3.7-0.4,5-0.9c1.3-0.5,2.4-1.2,3.3-2.2c1.1-1.1,1.9-2.6,2.3-4.3c0.4-1.7,0.6-4.4,0.6-8.1v-39.2c0-3.7-0.2-6.3-0.6-8.1
		c-0.4-1.7-1.2-3.2-2.3-4.3c-1-1-2.1-1.8-3.4-2.2c-1.3-0.5-2.9-0.7-4.9-0.9v-1.2H1658.8z"/>
	<path class="st0" d="M1692.7,419c-2.2,0-4.6,0.1-7.2,0.2c-5.5,0.3-9.5,1-12.2,2.1c-2.7,1.1-4.9,3-6.6,5.7
		c-1.6,2.5-2.8,5.9-3.7,10.1l-1.2-0.1l1-19.6h72l1,19.6l-1.2,0.1c-1-4.9-2.5-8.7-4.5-11.2c-2-2.5-5-4.4-8.9-5.5
		c-3.3-1-8.9-1.4-16.8-1.4v54.3c0,3.6,0.2,6.3,0.6,8.1c0.4,1.8,1.2,3.2,2.3,4.3c1,1,2.1,1.8,3.4,2.2c1.3,0.5,2.9,0.7,4.9,0.9v1.2
		h-34v-1.2c2.1-0.1,3.7-0.4,5-0.9c1.3-0.5,2.4-1.2,3.4-2.2c1.1-1.1,1.9-2.6,2.3-4.3c0.4-1.7,0.6-4.4,0.6-8.1V419z"/>
	<path class="st0" d="M1756.1,490v-1.2c2-0.1,3.7-0.4,4.9-0.9c1.3-0.5,2.4-1.2,3.4-2.2c1.1-1.1,1.8-2.6,2.2-4.3
		c0.4-1.7,0.6-4.4,0.6-8.1l0.1-10.4c0-1.5-0.3-3.1-0.9-4.9c-0.7-2.1-2.1-4.7-4.1-7.9l-13.8-20.7l-2.4-3.7c-1.8-2.7-3.6-4.5-5.3-5.5
		c-0.9-0.5-1.8-0.9-2.7-1.1c-0.9-0.2-2.1-0.4-3.7-0.4v-1.2h34.7v1.2c-2.9,0.2-4.8,0.4-5.6,0.8c-2,0.9-3,2.4-3,4.6
		c0,0.8,0.2,1.7,0.7,2.8c0.4,1,1.2,2.3,2.2,3.9l14.4,22.6L1790,434l1.4-2.2c1.3-2.1,2-4.1,2-6.1c0-2.3-0.7-4-2.2-5.3
		c-1.5-1.2-3.5-1.9-6.1-1.9v-1.2h24.5v1.2c-1.8,0.2-3.3,0.5-4.3,0.9c-1,0.4-2,1.1-3,2c-2.4,2.3-5.1,5.7-8,10.2l-12.1,18.5
		c-1.5,2.2-2.3,3.8-2.7,4.8c-0.3,1-0.5,2.8-0.5,5.2v13c0,3.8,0.2,6.5,0.6,8.2c0.4,1.6,1.1,3.1,2.3,4.2c1.9,2.1,4.7,3.1,8.4,3.1v1.2
		H1756.1z"/>
	<path class="st0" d="M1264.1,525v1.2c-2,0.1-3.7,0.4-4.9,0.9c-1.3,0.5-2.4,1.2-3.4,2.2c-1.4,1.4-2.2,3.4-2.6,5.9
		c-0.2,1.9-0.3,4-0.3,6.5v39.2c0,2.9,0.1,5.3,0.4,7c0.3,1.7,0.7,3.1,1.4,4.1c0.9,1.4,2.1,2.5,3.6,3.2s3.4,1.1,5.8,1.3v1.2h-34v-1.2
		c2.1-0.1,3.7-0.4,5-0.9c1.3-0.5,2.4-1.2,3.3-2.2c1.1-1.1,1.9-2.6,2.3-4.3c0.4-1.7,0.6-4.4,0.6-8.1v-39.2c0-3.7-0.2-6.3-0.6-8.1
		c-0.4-1.7-1.2-3.2-2.3-4.3c-1-1-2.1-1.8-3.4-2.2c-1.3-0.5-2.9-0.7-4.9-0.9V525H1264.1z"/>
	<path class="st0" d="M1282.7,534.6v46.3c0,3.7,0.2,6.3,0.6,8.1c0.4,1.7,1.2,3.2,2.3,4.3c1,1,2.1,1.8,3.4,2.2s2.9,0.7,4.9,0.9v1.2
		h-24.5v-1.2c2-0.1,3.7-0.4,4.9-0.9c1.3-0.5,2.4-1.2,3.4-2.2c1.1-1.1,1.9-2.6,2.3-4.3c0.4-1.8,0.6-4.4,0.6-8.1v-39.3
		c0-3.6-0.2-6.2-0.6-8c-0.4-1.8-1.2-3.2-2.3-4.3c-1-1-2.1-1.8-3.3-2.2c-1.3-0.5-2.9-0.7-5-0.9V525h20.5l43.2,55.1v-38.4
		c0-3.7-0.2-6.3-0.6-8.1c-0.4-1.7-1.2-3.2-2.3-4.3c-1-1-2.1-1.8-3.4-2.2c-1.3-0.5-2.9-0.7-4.9-0.9V525h24.5v1.2
		c-3.5,0-6.3,1-8.3,3.1c-1.1,1.1-1.9,2.6-2.3,4.3c-0.4,1.8-0.6,4.4-0.6,8v56h-2.4L1282.7,534.6z"/>
	<path class="st0" d="M1378.9,596.4c2.1-0.1,3.7-0.4,4.9-0.9c1.2-0.5,2.4-1.2,3.4-2.2c1.1-1.1,1.9-2.6,2.3-4.3
		c0.4-1.8,0.6-4.4,0.6-8.1v-39.2c0-3.9-0.2-6.8-0.7-8.6c-0.5-1.8-1.4-3.3-2.8-4.5c-1.7-1.5-4.3-2.3-7.7-2.4V525h29.3
		c6.5,0,10.6,0.1,12.4,0.2c7.5,0.6,13.8,2.7,19,6.4c5,3.5,8.8,8.1,11.6,13.8c2.8,5.7,4.1,11.9,4.1,18.6c0,4.9-0.8,9.5-2.4,13.9
		c-1.6,4.3-3.8,8-6.6,10.8c-3.9,4-8.8,6.6-14.7,7.7c-4.4,0.8-8.9,1.2-13.5,1.2h-39.3V596.4z M1401.7,526.6v52.9
		c0,3.5,0.2,6.1,0.6,7.9c0.4,1.8,1.1,3.4,2.2,4.6c2.3,2.8,6,4.1,11.1,4.1c4.4,0,8.1-0.7,11.2-2.2c3.1-1.4,5.9-3.8,8.3-7
		c2.4-3.1,4.2-6.7,5.5-10.7c1.3-4,1.9-8.3,1.9-12.8c0-5-0.8-9.8-2.3-14.4c-1.5-4.5-3.7-8.5-6.5-11.9c-3.9-4.7-8.6-7.8-14.1-9.4
		c-3-0.8-6.8-1.2-11.4-1.2H1401.7z"/>
	<path class="st0" d="M1496.2,525v1.2c-2,0.1-3.7,0.4-4.9,0.9c-1.3,0.5-2.4,1.2-3.4,2.2c-1.2,1.2-1.9,2.7-2.3,4.5
		c-0.4,1.8-0.6,4.8-0.6,9.1V573c0,4.9,0.2,8.4,0.6,10.6s1.1,4.2,2.3,6c1.7,2.8,3.8,4.8,6.3,6.1c2.5,1.3,5.6,1.9,9.4,1.9
		c3.7,0,7.2-0.6,10.6-1.7c3.4-1.1,6.1-2.7,8.4-4.7c1.4-1.2,2.4-2.6,3.1-4c0.7-1.5,1.1-3.3,1.3-5.5c0.1-1.5,0.2-4.9,0.2-10.3v-29.7
		c0-3.7-0.2-6.3-0.6-8.1c-0.4-1.7-1.2-3.2-2.3-4.3c-1-1-2.1-1.8-3.4-2.2c-1.3-0.5-2.9-0.7-4.9-0.9V525h24.5v1.2
		c-2,0.1-3.7,0.4-4.9,0.9c-1.3,0.5-2.4,1.2-3.4,2.2c-1.1,1.1-1.9,2.6-2.3,4.3c-0.4,1.8-0.6,4.4-0.6,8.1v33.6c0,5-0.4,8.6-1.1,11
		c-0.8,2.4-2.3,4.5-4.5,6.5c-5.2,4.5-12.6,6.7-22.2,6.7c-10,0-17.4-2.1-22.2-6.3c-3.1-2.7-4.9-6.2-5.5-10.6
		c-0.2-1.6-0.3-4.4-0.3-8.5v-32.3c0-3.7-0.2-6.3-0.6-8.1c-0.4-1.7-1.2-3.2-2.3-4.3c-1-1-2.1-1.8-3.3-2.2c-1.3-0.5-2.9-0.7-5-0.9V525
		H1496.2z"/>
	<path class="st0" d="M1545,597.6v-1.2c2.1-0.1,3.7-0.4,5-0.9c1.3-0.5,2.4-1.2,3.3-2.2c1.1-1.1,1.9-2.6,2.3-4.3
		c0.4-1.7,0.6-4.4,0.6-8.1v-39.2c0-3.7-0.2-6.3-0.6-8.1c-0.4-1.7-1.2-3.2-2.3-4.3c-1-1-2.1-1.8-3.4-2.2c-1.3-0.5-2.9-0.7-4.9-0.9
		V525h34.9c3.5,0,5.9,0,7,0.1c4,0.3,7.4,1.3,10.1,2.9c2.3,1.4,4.1,3.3,5.3,5.6c1.3,2.3,1.9,4.9,1.9,7.8c0,4.6-1.4,8.5-4.3,11.4
		c-1,1.1-2.2,2-3.5,2.7c-1.3,0.7-3.2,1.5-5.7,2.4c3.4,0.6,6,1.2,7.9,1.9c1.9,0.7,3.6,1.6,5.1,2.8c2.3,1.8,4,4.1,5.3,6.9
		c1.3,2.7,1.9,5.7,1.9,8.9c0,3.2-0.6,6.2-1.9,8.9c-1.3,2.7-3.1,4.8-5.4,6.5c-2.1,1.5-4.6,2.5-7.5,3c-2.9,0.6-7,0.9-12.2,0.9H1545z
		 M1567.8,526.6v31.6h4.3c2,0,4.1-0.1,6.3-0.4c1.9-0.3,3.4-0.6,4.5-1c1.2-0.4,2.2-0.9,3.2-1.6c1.8-1.3,3.2-3.1,4.2-5.2
		c1-2.1,1.5-4.4,1.5-7c0-2.7-0.5-5.3-1.5-7.7c-1-2.4-2.3-4.3-4-5.7c-1.5-1.2-3.1-2-5-2.4c-1.9-0.4-4.7-0.6-8.5-0.6H1567.8z
		 M1567.8,559.9v21.9c0,2.7,0.2,4.8,0.6,6.4c0.4,1.6,1,3,1.8,4.1c1.8,2.4,4.9,3.6,9.3,3.6c5.7,0,10.2-1.6,13.5-4.7s5-7.4,5-12.8
		c0-3.1-0.5-5.9-1.5-8.6s-2.4-4.7-4.1-6.1c-3.2-2.6-8.2-3.9-15-3.9H1567.8z"/>
	<path class="st0" d="M1692.3,597.6h-34.9v-1.2c3.2-0.3,5.4-0.8,6.6-1.6c2.2-1.4,3.3-3.3,3.3-5.7c0-1.5-0.5-3.4-1.5-5.9l-0.9-2.2
		l-5.1-12.6h-23.4l-2.8,7.3l-1.3,3.3c-1.6,3.9-2.4,7-2.4,9.2c0,1.3,0.3,2.5,0.9,3.7c0.6,1.1,1.4,2.1,2.4,2.8c1.4,1,3.2,1.5,5.3,1.7
		v1.2h-23.8v-1.2c1.9-0.1,3.5-0.6,4.9-1.4c1.4-0.8,2.8-2.1,4.1-3.9c1.1-1.5,2.2-3.3,3.3-5.6c1.1-2.3,2.5-5.7,4.3-10.3l19.5-50.2h3
		l23.1,55.9c1.7,4.2,3.1,7.2,4.1,9c1,1.8,2.1,3.2,3.4,4.1c0.9,0.6,1.8,1.1,2.9,1.5c1.1,0.3,2.7,0.6,4.9,0.9V597.6z M1658.9,566.2
		l-11.2-27.5l-10.5,27.5H1658.9z"/>
	<path class="st0" d="M1727.8,525v1.2c-2,0.1-3.7,0.4-4.9,0.9c-1.3,0.5-2.4,1.2-3.4,2.2c-1.4,1.4-2.2,3.4-2.6,5.9
		c-0.2,1.9-0.3,4-0.3,6.5v39.2c0,2.9,0.1,5.3,0.4,7c0.3,1.7,0.7,3.1,1.4,4.1c0.9,1.4,2.1,2.5,3.6,3.2s3.4,1.1,5.8,1.3v1.2h-34v-1.2
		c2.1-0.1,3.7-0.4,5-0.9c1.3-0.5,2.4-1.2,3.3-2.2c1.1-1.1,1.9-2.6,2.3-4.3c0.4-1.7,0.6-4.4,0.6-8.1v-39.2c0-3.7-0.2-6.3-0.6-8.1
		c-0.4-1.7-1.2-3.2-2.3-4.3c-1-1-2.1-1.8-3.4-2.2c-1.3-0.5-2.9-0.7-4.9-0.9V525H1727.8z"/>
</g>
<g>
	<path class="st1" d="M16,771.9l0.2-24.4l1.4,0.1c1.7,6.2,3.6,11.1,5.9,14.7c4.3,6.6,9.7,9.9,16.2,9.9c4.5,0,8.3-1.5,11.2-4.6
		c3-3,4.4-6.9,4.4-11.5c0-2-0.3-4.1-1-6.2c-0.7-2.1-1.5-3.9-2.6-5.4c-1.1-1.5-2.8-3-4.8-4.4c-2.1-1.4-5.2-3.2-9.5-5.4
		c-3.7-1.9-6.6-3.5-8.6-4.8c-2-1.3-3.6-2.6-4.8-4c-3.4-3.7-5.1-8.2-5.1-13.5c0-3.3,0.7-6.4,2-9.5c1.3-3,3.2-5.6,5.5-7.8
		c4.2-3.9,9.1-5.8,14.8-5.8c1.9,0,3.6,0.2,5.1,0.6c1.6,0.4,3.7,1.1,6.3,2.2c2,0.8,3.3,1.3,4,1.5c0.7,0.2,1.3,0.3,1.9,0.3
		c1.4,0,2.3-1,2.8-3h1.4l0.4,23.5h-1.4c-1.1-3.7-2-6.6-2.7-8.6c-0.8-2-1.7-3.8-2.7-5.5c-1.9-3.1-4.1-5.4-6.4-6.8s-5-2.2-8-2.2
		c-4.4,0-7.9,1.5-10.4,4.5c-1.1,1.2-1.9,2.7-2.5,4.3c-0.6,1.7-0.9,3.3-0.9,5c0,6.6,4.2,11.9,12.7,15.9l8.3,4c6.4,3,11,6.4,13.9,10.1
		c3.2,4.1,4.8,8.9,4.8,14.3c0,3.6-0.7,7.1-2.2,10.4c-2.1,4.6-5.1,8.2-9.2,10.7c-4.1,2.5-8.9,3.7-14.5,3.7c-5.1,0-10-1-14.7-3
		c-2.4-1.1-3.9-1.7-4.4-1.8c-0.5-0.2-1-0.2-1.6-0.2c-1.9,0-3.2,0.9-3.9,2.8H16z"/>
	<path class="st1" d="M118.7,761l1.2,0.4c-1.4,4.2-3.5,7.2-6.3,9c-2.8,1.9-6.7,2.8-11.7,2.8c-8,0-14.2-2.4-18.7-7.1
		c-4.4-4.7-6.6-10.5-6.6-17.6c0-3.5,0.6-6.9,1.8-10.3c1.2-3.4,2.9-6.3,5-8.7c2.4-2.8,5.4-4.9,8.8-6.3c3.5-1.5,7.3-2.2,11.4-2.2
		c5.7,0,10.2,1.3,13.4,3.8c2,1.6,3,3.3,3,5.2c0,1.3-0.4,2.3-1.2,3.2c-0.8,0.8-1.8,1.3-3,1.3c-2.6,0-4.5-1.9-5.7-5.6
		c-0.6-1.7-1-2.9-1.3-3.5c-0.3-0.6-0.8-1.2-1.4-1.7c-1.2-0.9-2.7-1.4-4.5-1.4c-2.3,0-4.5,0.7-6.4,2c-1.7,1.1-3.2,2.6-4.4,4.3
		c-1.2,1.7-2.3,3.9-3.2,6.5c-1.4,4-2.1,7.9-2.1,11.7c0,3.5,0.6,6.9,1.9,10.3c1.3,3.4,3,6.2,5.1,8.4c3.4,3.5,7.4,5.3,11.9,5.3
		c3.8,0,6.9-1.2,9.4-3.6C116.4,765.8,117.6,763.8,118.7,761z"/>
	<path class="st1" d="M142.5,689v40.5c1.4-1.7,2.6-3,3.7-4c1.1-0.9,2.3-1.8,3.8-2.5c2.9-1.4,6.2-2.1,9.8-2.1c4.7,0,8.5,0.9,11.5,2.8
		c2.2,1.4,3.7,3.1,4.5,5.1c0.8,2,1.2,5,1.2,8.9V755l0.1,4.5c0,2.7,0.2,4.6,0.5,5.9c0.3,1.2,0.9,2.3,1.8,3.1c1.1,1.1,3.1,1.9,6.1,2.4
		v1.2h-26.1v-1.2c2.1-0.3,3.6-0.6,4.5-1c0.9-0.4,1.7-1.1,2.4-2c0.7-1,1.2-2.3,1.5-4c0.3-1.7,0.4-4.2,0.4-7.5v-18.7
		c0-2.8-0.2-5.1-0.6-6.7c-0.4-1.7-1.2-3.1-2.2-4.3c-2-2.3-4.8-3.5-8.5-3.5c-9.5,0-14.3,7.5-14.3,22.6v9.5l0.1,4.4
		c0,2.7,0.2,4.6,0.5,5.9c0.3,1.2,0.9,2.3,1.8,3.1c1.1,1.1,3.1,1.9,6.1,2.4v1.2h-26.1v-1.2c2.4-0.3,4.1-0.8,5.1-1.3
		c1-0.6,1.9-1.5,2.5-2.9c0.4-0.9,0.7-2.3,0.9-4.1c0.2-1.8,0.3-4.5,0.3-7.9v-46.4c0-4-0.1-6.8-0.3-8.5c-0.2-1.7-0.6-3-1.3-4
		c-0.7-1.1-1.5-1.9-2.4-2.4c-0.9-0.5-2.3-0.8-4.1-0.9v-1.3L142.5,689z"/>
	<path class="st1" d="M190.3,747.2c0-6.4,2.4-12.1,7.1-17.1c5.8-6.1,12.6-9.1,20.6-9.1c8,0,14.9,3,20.6,9.1c4.7,5,7.1,10.8,7.1,17.2
		c0,6.3-2.2,11.9-6.7,16.9c-5.5,6.1-12.5,9.1-20.9,9.1c-8.4,0-15.4-3-21-9.1c-2.2-2.4-3.8-5-5-7.9
		C190.9,753.2,190.3,750.2,190.3,747.2z M201.1,746.5c0,6.9,1.5,12.7,4.6,17.4c3.5,5.3,7.7,8,12.7,8c2.1,0,4.2-0.6,6.2-1.8
		c2-1.2,3.7-2.8,5.2-5c1.5-2.2,2.8-5,3.7-8.3c0.9-3.3,1.4-6.5,1.4-9.7c0-3.2-0.5-6.5-1.5-9.8s-2.4-6.1-4.1-8.5
		c-3.2-4.5-7.2-6.7-11.9-6.7c-4.5,0-8.3,2.3-11.5,7C202.7,734,201.1,739.7,201.1,746.5z"/>
	<path class="st1" d="M253,747.2c0-6.4,2.4-12.1,7.1-17.1c5.8-6.1,12.6-9.1,20.6-9.1c8,0,14.9,3,20.6,9.1c4.7,5,7.1,10.8,7.1,17.2
		c0,6.3-2.2,11.9-6.7,16.9c-5.5,6.1-12.5,9.1-20.9,9.1c-8.4,0-15.4-3-21-9.1c-2.2-2.4-3.8-5-5-7.9C253.6,753.2,253,750.2,253,747.2z
		 M263.8,746.5c0,6.9,1.5,12.7,4.6,17.4c3.5,5.3,7.7,8,12.7,8c2.1,0,4.2-0.6,6.2-1.8c2-1.2,3.7-2.8,5.2-5c1.5-2.2,2.8-5,3.7-8.3
		c0.9-3.3,1.4-6.5,1.4-9.7c0-3.2-0.5-6.5-1.5-9.8s-2.4-6.1-4.1-8.5c-3.2-4.5-7.2-6.7-11.9-6.7c-4.5,0-8.3,2.3-11.5,7
		C265.4,734,263.8,739.7,263.8,746.5z"/>
	<path class="st1" d="M314.3,691.2l17-2.1v66l0.1,4.5c0,2.7,0.2,4.6,0.5,5.9c0.3,1.2,0.9,2.3,1.8,3.1c1.1,1.1,3.1,1.9,6.1,2.4v1.2
		h-26.1v-1.2c2.4-0.3,4.1-0.8,5.1-1.3c1-0.6,1.9-1.5,2.5-2.9c0.4-0.9,0.7-2.3,0.9-4.1c0.2-1.8,0.3-4.5,0.3-7.9v-46.4
		c0-4-0.1-6.8-0.3-8.5c-0.2-1.7-0.6-3-1.3-4c-0.7-1.1-1.5-1.9-2.4-2.4c-0.9-0.5-2.3-0.8-4.1-0.9V691.2z"/>
	<path class="st1" d="M375.3,747.2c0-6.4,2.4-12.1,7.1-17.1c5.8-6.1,12.6-9.1,20.6-9.1c8,0,14.9,3,20.6,9.1c4.7,5,7.1,10.8,7.1,17.2
		c0,6.3-2.2,11.9-6.7,16.9c-5.5,6.1-12.5,9.1-20.9,9.1c-8.4,0-15.4-3-21-9.1c-2.2-2.4-3.8-5-5-7.9
		C375.9,753.2,375.3,750.2,375.3,747.2z M386.1,746.5c0,6.9,1.5,12.7,4.6,17.4c3.5,5.3,7.7,8,12.7,8c2.1,0,4.2-0.6,6.2-1.8
		c2-1.2,3.7-2.8,5.2-5c1.5-2.2,2.8-5,3.7-8.3c0.9-3.3,1.4-6.5,1.4-9.7c0-3.2-0.5-6.5-1.5-9.8s-2.4-6.1-4.1-8.5
		c-3.2-4.5-7.2-6.7-11.9-6.7c-4.5,0-8.3,2.3-11.5,7C387.7,734,386.1,739.7,386.1,746.5z"/>
	<path class="st1" d="M453.7,724.1V755l0.1,4.5c0,2.7,0.2,4.6,0.5,5.9c0.3,1.2,0.9,2.3,1.8,3.1c1.1,1.1,3.1,1.9,6.1,2.4v1.2H436
		v-1.2c2.4-0.3,4.1-0.8,5.1-1.3c1-0.6,1.9-1.5,2.5-2.9c0.4-0.9,0.7-2.3,0.9-4.1c0.2-1.8,0.3-4.5,0.3-7.9v-30.5h-8.6v-2.2h8.6v-14.4
		c0-3.5,0.4-6.2,1.3-8.2c0.9-2,2.5-3.9,4.8-5.6c2.1-1.5,4.6-2.7,7.6-3.5c3-0.8,6.1-1.3,9.4-1.3c3.1,0,5.5,0.5,7.4,1.6
		c1.9,1.1,2.8,2.5,2.8,4.3c0,1.2-0.4,2.2-1.2,3c-0.8,0.8-1.7,1.2-2.8,1.2c-1.1,0-2-0.3-2.8-0.9c-0.8-0.6-1.6-1.5-2.4-2.8
		c-1.1-1.8-2-3-2.7-3.6c-0.7-0.6-1.7-0.9-2.9-0.9c-1.5,0-2.9,0.3-4.3,0.9c-1.3,0.6-2.4,1.4-3.1,2.4c-0.8,1.1-1.4,2.6-1.7,4.3
		c-0.3,1.8-0.5,4.4-0.5,7.8v15.7h11.7v2.2H453.7z"/>
	<path class="st1" d="M583.8,772.1h-38.9v-1.4c3.5-0.3,6-0.9,7.3-1.8c2.4-1.5,3.7-3.7,3.7-6.4c0-1.6-0.6-3.8-1.7-6.5l-1-2.5l-5.7-14
		h-26l-3.1,8.2l-1.5,3.7c-1.8,4.3-2.7,7.7-2.7,10.2c0,1.5,0.3,2.8,1,4.1s1.5,2.3,2.6,3.1c1.5,1.1,3.5,1.7,5.9,1.9v1.4h-26.5v-1.4
		c2.1-0.1,3.9-0.6,5.5-1.5c1.6-0.9,3.1-2.4,4.6-4.4c1.3-1.6,2.5-3.7,3.7-6.2c1.2-2.5,2.8-6.4,4.8-11.4l21.6-55.8h3.4l25.7,62.2
		c1.9,4.7,3.5,8,4.6,10.1c1.1,2,2.4,3.5,3.7,4.6c0.9,0.7,2,1.3,3.3,1.6c1.2,0.4,3.1,0.7,5.5,1V772.1z M546.7,737.2l-12.4-30.6
		l-11.7,30.6H546.7z"/>
	<path class="st1" d="M601.1,730.1c1.4-2.5,3-4.4,4.8-5.6c3.3-2.3,7-3.5,11.2-3.5c2.6,0,4.5,0.6,5.9,1.7c1.2,1,1.8,2.3,1.8,3.8
		c0,1.1-0.4,2-1.1,2.7c-0.7,0.7-1.7,1.1-2.8,1.1c-1.3,0-2.5-0.6-3.5-1.7l-1.8-2c-1.5-1.5-3.2-2.3-5.1-2.3c-2.7,0-4.8,1.7-6.3,5.2
		c-1.5,3.5-2.2,8.3-2.2,14.5v11l0.1,4.5c0,2.7,0.2,4.6,0.5,5.9c0.3,1.2,0.9,2.3,1.8,3.1c1.1,1.1,3.1,1.9,6.1,2.4v1.2h-26.1v-1.2
		c2.4-0.3,4.1-0.8,5.1-1.3c1-0.6,1.9-1.5,2.5-2.9c0.4-0.9,0.7-2.3,0.9-4.1s0.3-4.5,0.3-7.9v-14.5c0-4-0.1-6.9-0.3-8.5
		c-0.2-1.6-0.6-3-1.3-4c-0.7-1.1-1.5-1.9-2.4-2.4c-0.9-0.5-2.3-0.8-4.1-0.9v-1.2l15.2-2.1C600.7,724.5,601.1,727.5,601.1,730.1z"/>
	<path class="st1" d="M670.5,761l1.2,0.4c-1.4,4.2-3.5,7.2-6.3,9c-2.8,1.9-6.7,2.8-11.7,2.8c-8,0-14.2-2.4-18.7-7.1
		c-4.4-4.7-6.6-10.5-6.6-17.6c0-3.5,0.6-6.9,1.8-10.3c1.2-3.4,2.9-6.3,5-8.7c2.4-2.8,5.4-4.9,8.8-6.3c3.5-1.5,7.3-2.2,11.4-2.2
		c5.7,0,10.2,1.3,13.4,3.8c2,1.6,3,3.3,3,5.2c0,1.3-0.4,2.3-1.2,3.2c-0.8,0.8-1.8,1.3-3,1.3c-2.6,0-4.5-1.9-5.7-5.6
		c-0.6-1.7-1-2.9-1.3-3.5c-0.3-0.6-0.8-1.2-1.4-1.7c-1.2-0.9-2.7-1.4-4.5-1.4c-2.3,0-4.5,0.7-6.4,2c-1.7,1.1-3.2,2.6-4.4,4.3
		c-1.2,1.7-2.3,3.9-3.2,6.5c-1.4,4-2.1,7.9-2.1,11.7c0,3.5,0.6,6.9,1.9,10.3c1.3,3.4,3,6.2,5.1,8.4c3.4,3.5,7.4,5.3,11.9,5.3
		c3.8,0,6.9-1.2,9.4-3.6C668.2,765.8,669.4,763.8,670.5,761z"/>
	<path class="st1" d="M694.3,689v40.5c1.4-1.7,2.6-3,3.7-4c1.1-0.9,2.3-1.8,3.8-2.5c2.9-1.4,6.2-2.1,9.8-2.1c4.7,0,8.5,0.9,11.5,2.8
		c2.2,1.4,3.7,3.1,4.5,5.1c0.8,2,1.2,5,1.2,8.9V755l0.1,4.5c0,2.7,0.2,4.6,0.5,5.9c0.3,1.2,0.9,2.3,1.8,3.1c1.1,1.1,3.1,1.9,6.1,2.4
		v1.2h-26.1v-1.2c2.1-0.3,3.6-0.6,4.5-1c0.9-0.4,1.7-1.1,2.4-2c0.7-1,1.2-2.3,1.5-4c0.3-1.7,0.4-4.2,0.4-7.5v-18.7
		c0-2.8-0.2-5.1-0.6-6.7c-0.4-1.7-1.2-3.1-2.2-4.3c-2-2.3-4.8-3.5-8.5-3.5c-9.5,0-14.3,7.5-14.3,22.6v9.5l0.1,4.4
		c0,2.7,0.2,4.6,0.5,5.9c0.3,1.2,0.9,2.3,1.8,3.1c1.1,1.1,3.1,1.9,6.1,2.4v1.2h-26.1v-1.2c2.4-0.3,4.1-0.8,5.1-1.3
		c1-0.6,1.9-1.5,2.5-2.9c0.4-0.9,0.7-2.3,0.9-4.1c0.2-1.8,0.3-4.5,0.3-7.9v-46.4c0-4-0.1-6.8-0.3-8.5c-0.2-1.7-0.6-3-1.3-4
		c-0.7-1.1-1.5-1.9-2.4-2.4c-0.9-0.5-2.3-0.8-4.1-0.9v-1.3L694.3,689z"/>
	<path class="st1" d="M740.8,723.1l17-2.1V755l0.1,4.5c0,2.7,0.2,4.6,0.5,5.9c0.3,1.2,0.9,2.3,1.8,3.1c1.1,1.1,3.1,1.9,6.1,2.4v1.2
		h-26.1v-1.2c2.4-0.3,4.1-0.8,5.1-1.3c1-0.6,1.9-1.5,2.5-2.9c0.4-0.9,0.7-2.3,0.9-4.1s0.3-4.5,0.3-7.9v-14.5c0-4-0.1-6.9-0.3-8.5
		c-0.2-1.6-0.6-3-1.3-4c-0.7-1.1-1.5-1.9-2.4-2.4c-0.9-0.5-2.3-0.8-4.1-0.9V723.1z M753.1,699.7c-1.5,0-2.8-0.5-3.8-1.5
		c-1-1-1.5-2.2-1.5-3.7c0-1.5,0.5-2.7,1.5-3.7c1-1,2.3-1.5,3.8-1.5c1.5,0,2.8,0.5,3.8,1.5c1,1,1.5,2.2,1.5,3.7
		c0,1.5-0.5,2.7-1.5,3.7C755.9,699.2,754.6,699.7,753.1,699.7z"/>
	<path class="st1" d="M784.8,721.9h15v2.2h-15v34.4c0,4.1,0.7,7.1,2.1,8.9c0.7,1,1.7,1.8,2.9,2.3c1.2,0.6,2.5,0.8,3.9,0.8
		c1.8,0,3.2-0.4,4.4-1.1c1.2-0.7,2.5-2.1,3.9-4l0.9,0.8c-1.3,2.4-3.1,4.1-5.5,5.3c-2.3,1.1-5.3,1.7-8.8,1.7c-4.7,0-8-0.9-10.2-2.7
		c-1.1-0.9-1.9-2.1-2.2-3.4c-0.4-1.3-0.5-3.7-0.5-7.1v-35.8h-6.3v-0.9c2.6-0.8,4.9-2.4,7.1-4.8c1.3-1.5,2.4-2.9,3.2-4.3
		c0.8-1.4,1.5-3.3,2.3-5.6l0.6-2h2.2V721.9z"/>
	<path class="st1" d="M813.4,740c-0.2,1.9-0.2,3.3-0.2,4.2c0,3.4,0.5,6.8,1.5,10.1c1,3.3,2.4,6,4.1,8.2c1.8,2.2,4,3.9,6.6,5.2
		c2.6,1.3,5.4,1.9,8.2,1.9c2.1,0,4.1-0.4,6-1.1c1.9-0.7,3.5-1.7,4.7-3c1.4-1.4,2.6-3.6,3.7-6.6l1.2,0.4c-1,4.6-3.2,8.1-6.6,10.4
		c-3.4,2.3-7.9,3.5-13.5,3.5c-4.8,0-9-0.8-12.5-2.3c-3.5-1.5-6.4-3.9-8.8-7.1c-3.4-4.5-5-9.9-5-16.4c0-8.9,3.2-15.8,9.5-20.9
		c4.6-3.7,9.9-5.5,15.8-5.5c3.2,0,6.1,0.6,8.8,1.7c2.7,1.1,4.9,2.8,6.8,4.9c2.9,3.3,4.3,7.5,4.3,12.4H813.4z M839.2,737.7
		c-0.3-3.9-1-7-2.2-9.1c-1.1-1.9-2.5-3.5-4.2-4.6c-1.8-1.1-3.7-1.7-5.7-1.7c-3.4,0-6.3,1.5-8.9,4.4c-2.5,2.9-4,6.6-4.5,11H839.2z"/>
	<path class="st1" d="M899.7,761l1.2,0.4c-1.4,4.2-3.5,7.2-6.3,9c-2.8,1.9-6.7,2.8-11.7,2.8c-8,0-14.2-2.4-18.7-7.1
		c-4.4-4.7-6.6-10.5-6.6-17.6c0-3.5,0.6-6.9,1.8-10.3c1.2-3.4,2.9-6.3,5-8.7c2.4-2.8,5.4-4.9,8.8-6.3c3.5-1.5,7.3-2.2,11.4-2.2
		c5.7,0,10.2,1.3,13.4,3.8c2,1.6,3,3.3,3,5.2c0,1.3-0.4,2.3-1.2,3.2c-0.8,0.8-1.8,1.3-3,1.3c-2.6,0-4.5-1.9-5.7-5.6
		c-0.6-1.7-1-2.9-1.3-3.5c-0.3-0.6-0.8-1.2-1.4-1.7c-1.2-0.9-2.7-1.4-4.5-1.4c-2.3,0-4.5,0.7-6.4,2c-1.7,1.1-3.2,2.6-4.4,4.3
		c-1.2,1.7-2.3,3.9-3.2,6.5c-1.4,4-2.1,7.9-2.1,11.7c0,3.5,0.6,6.9,1.9,10.3c1.3,3.4,3,6.2,5.1,8.4c3.4,3.5,7.4,5.3,11.9,5.3
		c3.8,0,6.9-1.2,9.4-3.6C897.3,765.8,898.5,763.8,899.7,761z"/>
	<path class="st1" d="M921.2,721.9h15v2.2h-15v34.4c0,4.1,0.7,7.1,2.1,8.9c0.7,1,1.7,1.8,2.9,2.3c1.2,0.6,2.5,0.8,3.9,0.8
		c1.8,0,3.2-0.4,4.4-1.1c1.2-0.7,2.5-2.1,3.9-4l0.9,0.8c-1.3,2.4-3.1,4.1-5.5,5.3c-2.3,1.1-5.3,1.7-8.8,1.7c-4.7,0-8-0.9-10.2-2.7
		c-1.1-0.9-1.9-2.1-2.2-3.4c-0.4-1.3-0.5-3.7-0.5-7.1v-35.8h-6.3v-0.9c2.6-0.8,4.9-2.4,7.1-4.8c1.3-1.5,2.4-2.9,3.2-4.3
		c0.8-1.4,1.5-3.3,2.3-5.6l0.6-2h2.2V721.9z"/>
	<path class="st1" d="M979.8,773.2c-0.5-2.4-0.8-4.9-0.8-7.4c-4.9,4.9-10.8,7.4-17.5,7.4c-4.9,0-8.9-1.2-11.9-3.6
		c-2.9-2.4-4.4-5.7-4.4-10V739l-0.1-4.5c0-2.7-0.2-4.6-0.5-5.8c-0.3-1.2-0.9-2.3-1.8-3.1c-1.1-1.1-3.2-1.9-6.2-2.4v-1.3h17.4v30
		c0,4.2,0.1,7.3,0.4,9.4c0.3,2,0.8,3.7,1.6,5c0.9,1.3,2.1,2.4,3.7,3.2s3.4,1.2,5.4,1.2c2.2,0,4.3-0.4,6.2-1.3c1.9-0.9,3.4-2,4.5-3.5
		c1.1-1.5,1.9-3.3,2.3-5.3c0.4-2,0.6-5.3,0.6-9.9v-11.6l-0.1-4.4c0-2.7-0.1-4.6-0.4-5.8s-0.9-2.3-1.8-3.1c-1.1-1.1-3.2-1.9-6.2-2.4
		v-1.3h17.4v32.1c0,4.1,0.1,6.9,0.3,8.5c0.2,1.6,0.6,3,1.3,4c0.7,1.1,1.5,1.9,2.5,2.4c0.9,0.5,2.3,0.8,4.1,0.9v1.2L979.8,773.2z"/>
	<path class="st1" d="M1016.1,730.1c1.4-2.5,3-4.4,4.8-5.6c3.3-2.3,7-3.5,11.2-3.5c2.6,0,4.5,0.6,5.9,1.7c1.2,1,1.8,2.3,1.8,3.8
		c0,1.1-0.4,2-1.1,2.7c-0.7,0.7-1.7,1.1-2.8,1.1c-1.3,0-2.5-0.6-3.5-1.7l-1.8-2c-1.5-1.5-3.2-2.3-5.1-2.3c-2.7,0-4.8,1.7-6.3,5.2
		c-1.5,3.5-2.2,8.3-2.2,14.5v11l0.1,4.5c0,2.7,0.2,4.6,0.5,5.9c0.3,1.2,0.9,2.3,1.8,3.1c1.1,1.1,3.1,1.9,6.1,2.4v1.2h-26.1v-1.2
		c2.4-0.3,4.1-0.8,5.1-1.3c1-0.6,1.9-1.5,2.5-2.9c0.4-0.9,0.7-2.3,0.9-4.1s0.3-4.5,0.3-7.9v-14.5c0-4-0.1-6.9-0.3-8.5
		c-0.2-1.6-0.6-3-1.3-4c-0.7-1.1-1.5-1.9-2.4-2.4c-0.9-0.5-2.3-0.8-4.1-0.9v-1.2l15.2-2.1C1015.8,724.5,1016.1,727.5,1016.1,730.1z"
		/>
	<path class="st1" d="M1053.9,740c-0.2,1.9-0.2,3.3-0.2,4.2c0,3.4,0.5,6.8,1.5,10.1s2.4,6,4.1,8.2c1.8,2.2,4,3.9,6.6,5.2
		s5.4,1.9,8.2,1.9c2.1,0,4.1-0.4,6-1.1c1.9-0.7,3.5-1.7,4.7-3c1.4-1.4,2.6-3.6,3.7-6.6l1.2,0.4c-1,4.6-3.2,8.1-6.6,10.4
		s-7.9,3.5-13.5,3.5c-4.8,0-9-0.8-12.5-2.3c-3.5-1.5-6.4-3.9-8.8-7.1c-3.4-4.5-5-9.9-5-16.4c0-8.9,3.2-15.8,9.5-20.9
		c4.6-3.7,9.9-5.5,15.8-5.5c3.2,0,6.1,0.6,8.8,1.7c2.7,1.1,4.9,2.8,6.8,4.9c2.9,3.3,4.3,7.5,4.3,12.4H1053.9z M1079.7,737.7
		c-0.3-3.9-1-7-2.2-9.1c-1.1-1.9-2.5-3.5-4.2-4.6c-1.8-1.1-3.7-1.7-5.7-1.7c-3.4,0-6.3,1.5-8.9,4.4c-2.5,2.9-4,6.6-4.5,11H1079.7z"
		/>
	<path class="st1" d="M1100.2,789.8l-0.5-1.3c2.6-1.1,4.6-2.2,6.1-3.4c1.5-1.2,2.8-2.7,3.8-4.6c1.7-2.8,2.6-5.6,2.8-8.3
		c-1.1,0.4-2,0.5-2.8,0.5c-2.2,0-3.9-0.6-5.3-1.9c-1.4-1.3-2.1-2.9-2.1-5c0-2,0.7-3.7,2.1-5.1c1.4-1.4,3-2.1,5-2.1
		c2.4,0,4.3,0.9,5.7,2.8c1.5,1.9,2.2,4.4,2.2,7.5c0,3.1-0.7,6.1-2.2,9.2c-1.5,3-3.4,5.5-5.9,7.4
		C1106.6,787.7,1103.6,789.1,1100.2,789.8z"/>
	<path class="st1" d="M1238.7,772.1h-38.9v-1.4c3.5-0.3,6-0.9,7.3-1.8c2.4-1.5,3.7-3.7,3.7-6.4c0-1.6-0.6-3.8-1.7-6.5l-1-2.5
		l-5.7-14h-26l-3.1,8.2l-1.5,3.7c-1.8,4.3-2.7,7.7-2.7,10.2c0,1.5,0.3,2.8,1,4.1c0.7,1.3,1.5,2.3,2.6,3.1c1.5,1.1,3.5,1.7,5.9,1.9
		v1.4h-26.5v-1.4c2.1-0.1,3.9-0.6,5.5-1.5c1.6-0.9,3.1-2.4,4.6-4.4c1.3-1.6,2.5-3.7,3.7-6.2c1.2-2.5,2.8-6.4,4.8-11.4l21.6-55.8h3.4
		l25.7,62.2c1.9,4.7,3.5,8,4.6,10.1s2.4,3.5,3.7,4.6c0.9,0.7,2,1.3,3.3,1.6c1.2,0.4,3.1,0.7,5.5,1V772.1z M1201.6,737.2l-12.4-30.6
		l-11.7,30.6H1201.6z"/>
	<path class="st1" d="M1256,730.1c1.4-2.5,3-4.4,4.8-5.6c3.3-2.3,7-3.5,11.2-3.5c2.6,0,4.5,0.6,5.9,1.7c1.2,1,1.8,2.3,1.8,3.8
		c0,1.1-0.4,2-1.1,2.7c-0.7,0.7-1.7,1.1-2.8,1.1c-1.3,0-2.5-0.6-3.5-1.7l-1.8-2c-1.5-1.5-3.2-2.3-5.1-2.3c-2.7,0-4.8,1.7-6.3,5.2
		c-1.5,3.5-2.2,8.3-2.2,14.5v11l0.1,4.5c0,2.7,0.2,4.6,0.5,5.9c0.3,1.2,0.9,2.3,1.8,3.1c1.1,1.1,3.1,1.9,6.1,2.4v1.2H1239v-1.2
		c2.4-0.3,4.1-0.8,5.1-1.3c1-0.6,1.9-1.5,2.5-2.9c0.4-0.9,0.7-2.3,0.9-4.1s0.3-4.5,0.3-7.9v-14.5c0-4-0.1-6.9-0.3-8.5
		c-0.2-1.6-0.6-3-1.3-4c-0.7-1.1-1.5-1.9-2.4-2.4c-0.9-0.5-2.3-0.8-4.1-0.9v-1.2l15.2-2.1C1255.6,724.5,1256,727.5,1256,730.1z"/>
	<path class="st1" d="M1296.5,721.9h15v2.2h-15v34.4c0,4.1,0.7,7.1,2.1,8.9c0.7,1,1.7,1.8,2.9,2.3c1.2,0.6,2.5,0.8,4,0.8
		c1.8,0,3.2-0.4,4.4-1.1c1.2-0.7,2.5-2.1,3.9-4l0.9,0.8c-1.3,2.4-3.1,4.1-5.5,5.3c-2.3,1.1-5.3,1.7-8.8,1.7c-4.7,0-8-0.9-10.2-2.7
		c-1.1-0.9-1.9-2.1-2.2-3.4c-0.4-1.3-0.5-3.7-0.5-7.1v-35.8h-6.3v-0.9c2.6-0.8,4.9-2.4,7.1-4.8c1.3-1.5,2.4-2.9,3.2-4.3
		c0.8-1.4,1.5-3.3,2.3-5.6l0.6-2h2.2V721.9z"/>
	<path class="st1" d="M1316.9,789.8l-0.5-1.3c2.6-1.1,4.6-2.2,6.1-3.4c1.5-1.2,2.8-2.7,3.8-4.6c1.7-2.8,2.6-5.6,2.8-8.3
		c-1.1,0.4-2,0.5-2.8,0.5c-2.2,0-3.9-0.6-5.3-1.9c-1.4-1.3-2.1-2.9-2.1-5c0-2,0.7-3.7,2.1-5.1c1.4-1.4,3-2.1,5-2.1
		c2.4,0,4.3,0.9,5.7,2.8c1.5,1.9,2.2,4.4,2.2,7.5c0,3.1-0.7,6.1-2.2,9.2c-1.5,3-3.4,5.5-5.9,7.4
		C1323.3,787.7,1320.3,789.1,1316.9,789.8z"/>
	<path class="st1" d="M1422.3,766.4l1,0.6c-1.4,4.1-4.7,6.2-9.8,6.2c-2.8,0-5.1-0.7-7-2.1c-1.2-0.9-2.5-2.5-3.8-4.7
		c-2.6,2.4-4.6,3.9-6,4.7c-2.6,1.4-5.5,2.1-8.9,2.1c-4.3,0-7.8-1-10.3-3.1c-2.5-2.1-3.8-4.9-3.8-8.5c0-3.3,1-6,3.1-8.2
		c1.2-1.2,2.5-2.2,4.1-2.9s3.8-1.5,6.7-2.2c3.4-0.9,6-1.6,7.6-2.2c1.6-0.6,3-1.3,4.1-2.1c1.3-0.9,2.1-2,2.6-3.2
		c0.5-1.2,0.7-2.9,0.7-5.1c0-4.6-0.9-8-2.6-10.1c-0.8-1-1.8-1.8-3-2.4s-2.5-0.9-3.9-0.9c-1.6,0-3.1,0.4-4.3,1.2
		c-1.3,0.8-2.2,2-2.8,3.4l-1.5,3.4c-0.8,1.9-2.2,2.8-4.3,2.8c-1.3,0-2.5-0.4-3.4-1.3c-0.9-0.9-1.4-2-1.4-3.3c0-2,1.4-3.7,4.3-5.1
		c1.5-0.7,3.4-1.3,5.7-1.7c2.3-0.5,4.5-0.7,6.7-0.7c2.4,0,5,0.3,7.6,0.9c2.6,0.6,4.9,1.4,6.6,2.4c2.6,1.5,4.2,3.4,4.8,5.7
		c0.3,1.2,0.5,3.2,0.5,6v21.9c0,3.7,0.2,6.2,0.5,7.6c0.7,2.8,2.3,4.2,4.8,4.2c1.2,0,2.2-0.2,2.9-0.7
		C1420.6,768.6,1421.4,767.7,1422.3,766.4z M1402.8,743.1c-2.1,1.8-4.5,3.3-7,4.7c-2.9,1.5-4.9,2.7-6,3.5c-1.1,0.8-2.1,1.7-3,2.8
		c-1.8,2.3-2.8,4.9-2.8,8c0,2.6,0.7,4.8,2.2,6.4c1.4,1.7,3.3,2.5,5.5,2.5c1.9,0,3.7-0.6,5.5-1.8c1.7-1.2,3-2.8,3.9-4.8
		c1.2-2.6,1.8-6.5,1.8-11.5V743.1z"/>
	<path class="st1" d="M1440.3,721c0.6,2.3,0.8,4.4,0.8,6.4v1c4.9-4.9,10.7-7.4,17.4-7.4c5,0,9.1,1.2,12.2,3.5c3,2.3,4.6,5.6,4.6,9.9
		v25c0,2.7,0.2,4.6,0.5,5.9c0.3,1.2,0.9,2.3,1.8,3.1c1.1,1.1,3.1,1.9,6.1,2.4v1.2h-26.1v-1.2c2.4-0.3,4.1-0.8,5.1-1.3
		c1-0.6,1.9-1.5,2.5-2.9c0.4-0.9,0.7-2.3,0.9-4.1c0.2-1.8,0.3-4.5,0.3-7.9v-12.5c0-4.3-0.1-7.4-0.4-9.5c-0.3-2-0.9-3.6-1.7-4.8
		c-0.9-1.4-2.2-2.5-3.9-3.2s-3.6-1.2-5.6-1.2c-2.2,0-4.3,0.4-6.2,1.3c-1.9,0.9-3.4,2-4.5,3.5c-1.2,1.6-2,3.4-2.3,5.3
		c-0.4,2-0.6,5.3-0.6,9.9v11.6l0.1,4.4c0,2.7,0.2,4.6,0.5,5.9c0.3,1.2,0.9,2.3,1.8,3.1c1.1,1.1,3.1,1.9,6.1,2.4v1.2h-26.1v-1.2
		c2.4-0.3,4.1-0.8,5.1-1.3c1-0.6,1.9-1.5,2.5-2.9c0.4-0.9,0.7-2.3,0.9-4.1s0.3-4.5,0.3-7.9v-14.5c0-4-0.1-6.9-0.3-8.5
		c-0.2-1.6-0.6-3-1.3-4c-0.7-1.1-1.5-1.9-2.4-2.4c-0.9-0.5-2.3-0.8-4.1-0.9v-1.2L1440.3,721z"/>
	<path class="st1" d="M1529.4,774.1c-0.4-2-0.6-4.1-0.6-6.3c-2.9,1.9-5.7,3.3-8.2,4.1c-2.6,0.8-5.3,1.2-8.3,1.2
		c-6,0-11.1-1.8-15.4-5.4c-2.7-2.3-4.8-5.2-6.3-8.6c-1.5-3.4-2.2-7.2-2.2-11.3c0-4.3,0.8-8.3,2.4-12c1.6-3.7,3.8-6.8,6.6-9.2
		c4.5-3.8,9.8-5.7,16-5.7c3,0,5.6,0.4,7.7,1.3s4.6,2.4,7.4,4.7v-21.9c0-4.3-0.7-7.4-2.1-9.3c-1.4-1.9-3.8-2.8-7.1-2.8v-1.4l18.2-2.3
		v68.4c0,4.4,0.7,7.6,2.1,9.5c1.4,1.9,3.8,2.8,7,2.8v1.5L1529.4,774.1z M1528.6,746.6c0-5.5-0.2-9.6-0.7-12.3s-1.3-5-2.5-6.7
		c-1.1-1.5-2.5-2.7-4.3-3.6c-1.8-0.9-3.6-1.4-5.5-1.4c-4.2,0-7.8,2-10.9,5.9c-1.8,2.4-3.3,5.2-4.3,8.5c-1,3.3-1.6,6.6-1.6,10.1
		c0,3.4,0.5,6.7,1.5,10s2.3,6,4,8.4c2.9,4,6.6,6,10.8,6c2,0,4-0.5,5.8-1.5c1.8-1,3.3-2.4,4.5-4.3c1.2-1.9,2-4.2,2.5-7
		C1528.3,755.8,1528.6,751.8,1528.6,746.6z"/>
	<path class="st1" d="M1581.5,770.8c2.3-0.1,4.1-0.4,5.5-0.9c1.4-0.5,2.6-1.3,3.7-2.5c1.2-1.3,2.1-2.9,2.5-4.8c0.5-2,0.7-4.9,0.7-9
		V710c0-4.3-0.3-7.5-0.8-9.5s-1.6-3.7-3.1-5c-1.9-1.6-4.8-2.5-8.5-2.7v-1.4h32.5c7.2,0,11.8,0.1,13.8,0.2c8.3,0.6,15.4,3,21.2,7.1
		c5.5,3.9,9.8,9,12.9,15.3c3.1,6.3,4.6,13.2,4.6,20.7c0,5.4-0.9,10.6-2.6,15.4c-1.8,4.8-4.2,8.8-7.3,12c-4.4,4.5-9.8,7.4-16.4,8.6
		c-4.9,0.9-9.9,1.4-15,1.4h-43.7V770.8z M1606.9,693.2V752c0,3.9,0.2,6.8,0.7,8.8c0.4,2,1.2,3.7,2.4,5.1c2.5,3.1,6.6,4.6,12.3,4.6
		c4.8,0,9-0.8,12.5-2.4c3.4-1.6,6.5-4.2,9.3-7.8c2.7-3.5,4.7-7.4,6.1-11.9c1.4-4.5,2.1-9.2,2.1-14.3c0-5.6-0.8-10.9-2.5-16
		c-1.7-5-4.1-9.5-7.3-13.2c-4.4-5.2-9.6-8.7-15.7-10.4c-3.3-0.9-7.5-1.4-12.7-1.4H1606.9z"/>
	<path class="st1" d="M1686.2,740c-0.2,1.9-0.2,3.3-0.2,4.2c0,3.4,0.5,6.8,1.5,10.1s2.4,6,4.1,8.2c1.8,2.2,4,3.9,6.6,5.2
		s5.4,1.9,8.2,1.9c2.1,0,4.1-0.4,6-1.1c1.9-0.7,3.5-1.7,4.7-3c1.4-1.4,2.6-3.6,3.7-6.6l1.2,0.4c-1,4.6-3.2,8.1-6.6,10.4
		s-7.9,3.5-13.5,3.5c-4.8,0-9-0.8-12.5-2.3c-3.5-1.5-6.4-3.9-8.8-7.1c-3.4-4.5-5-9.9-5-16.4c0-8.9,3.2-15.8,9.5-20.9
		c4.6-3.7,9.9-5.5,15.8-5.5c3.2,0,6.1,0.6,8.8,1.7c2.7,1.1,4.9,2.8,6.8,4.9c2.9,3.3,4.3,7.5,4.3,12.4H1686.2z M1712,737.7
		c-0.3-3.9-1-7-2.2-9.1c-1.1-1.9-2.5-3.5-4.2-4.6c-1.8-1.1-3.7-1.7-5.7-1.7c-3.4,0-6.3,1.5-8.9,4.4c-2.5,2.9-4,6.6-4.5,11H1712z"/>
	<path class="st1" d="M1732.4,772.1v-16.7h0.9c1.1,4.1,2.5,7.4,4.1,9.8c3,4.5,6.6,6.7,10.6,6.7c2.5,0,4.6-0.7,6.4-2.2c2-1.7,3-4,3-7
		c0-2.5-0.7-4.7-2.1-6.5c-0.8-1-1.8-1.9-3-2.7c-1.2-0.8-3.2-2-6-3.5c-5-2.6-8.3-4.8-9.9-6.6c-2.4-2.5-3.5-5.4-3.5-8.8
		c0-3.5,1.2-6.6,3.5-9.2c2.7-2.9,6.3-4.4,10.8-4.4c2,0,3.9,0.4,5.6,1.1l2,0.9c0.6,0.2,1.2,0.4,1.7,0.4c0.7,0,1.5-0.6,2.1-1.8h1.2
		l0.7,13.4h-1.2c-0.4-1.9-0.9-3.4-1.4-4.6s-1.2-2.2-2.1-3.3c-1.2-1.5-2.6-2.7-4.2-3.5c-1.6-0.8-3.2-1.3-4.8-1.3
		c-2.2,0-4.1,0.8-5.6,2.4c-1.6,1.6-2.3,3.6-2.3,5.9c0,1.9,0.7,3.7,2.1,5.2c1.4,1.6,3.6,3,6.5,4.3l6.3,2.8c3.7,1.7,6.5,3.8,8.4,6.3
		c1.8,2.5,2.8,5.5,2.8,8.9c0,4.1-1.3,7.6-4,10.3c-3.1,3.2-7,4.7-11.8,4.7c-2.6,0-5.2-0.5-7.9-1.5c-1.7-0.7-2.8-1.1-3.1-1.2
		c-0.4-0.1-0.8-0.1-1.4-0.1c-1.4,0-2.4,0.6-3.1,1.8H1732.4z"/>
	<path class="st1" d="M1771.8,723.1l17-2.1V755l0.1,4.5c0,2.7,0.2,4.6,0.5,5.9c0.3,1.2,0.9,2.3,1.8,3.1c1.1,1.1,3.1,1.9,6.1,2.4v1.2
		h-26.1v-1.2c2.4-0.3,4.1-0.8,5.1-1.3c1-0.6,1.9-1.5,2.5-2.9c0.4-0.9,0.7-2.3,0.9-4.1s0.3-4.5,0.3-7.9v-14.5c0-4-0.1-6.9-0.3-8.5
		c-0.2-1.6-0.6-3-1.3-4c-0.7-1.1-1.5-1.9-2.4-2.4c-0.9-0.5-2.3-0.8-4.1-0.9V723.1z M1784.1,699.7c-1.5,0-2.8-0.5-3.8-1.5
		c-1-1-1.5-2.2-1.5-3.7c0-1.5,0.5-2.7,1.5-3.7c1-1,2.3-1.5,3.8-1.5c1.5,0,2.8,0.5,3.8,1.5c1,1,1.5,2.2,1.5,3.7
		c0,1.5-0.5,2.7-1.5,3.7C1786.9,699.2,1785.6,699.7,1784.1,699.7z"/>
	<path class="st1" d="M1815.2,777.2l-1.1,0.3c-0.7-1.1-1.3-1.9-2-2.3c-0.7-0.4-1.5-0.7-2.5-0.7c-1.7,0-3,0.6-4.1,1.9
		c-1,1.3-1.6,2.9-1.6,4.9c0,3.2,1.6,5.8,4.8,7.9c3.2,2,7.3,3.1,12.2,3.1c5.3,0,9.6-1.1,12.8-3.4c3.3-2.3,4.9-5.2,4.9-8.8
		c0-2.9-1.1-5.2-3.3-6.7c-2.2-1.6-5.3-2.3-9.3-2.3h-9.4c-3.9,0-7-0.9-9.3-2.7c-2.4-1.9-3.7-4.2-3.7-6.8c0-2.8,1.3-5,3.9-6.6
		c1.3-0.8,3.8-1.6,7.3-2.6c-3.4-1.6-6.1-3.6-8-6.2c-1.9-2.6-2.8-5.4-2.8-8.5c0-4,1.5-7.5,4.4-10.6c1.7-1.8,3.8-3.3,6.2-4.3
		c2.4-1,4.8-1.5,7.3-1.5c3.8,0,7.7,1.3,11.6,4c1.9-1.5,3.5-2.5,5-3.1s3.1-0.9,4.8-0.9c1.9,0,3.5,0.4,4.7,1.2c1.4,1,2.1,2.3,2.1,3.8
		c0,0.9-0.3,1.7-0.8,2.3c-0.6,0.6-1.3,0.9-2.1,0.9c-1.3,0-2.4-0.7-3.5-2l-1.4-1.8c-0.7-0.9-1.8-1.4-3.2-1.4c-1.5,0-3,0.7-4.6,2.2
		c3.2,3.9,4.8,7.9,4.8,12.1c0,5.2-2.3,9.2-6.9,12.2c-2.3,1.5-4.8,2.5-7.4,3c-0.8,0.1-3.3,0.3-7.5,0.6c-5.8,0.4-8.7,2-8.7,4.9
		c0,2.5,2.5,3.8,7.4,3.8h9.8c3.4,0,6.3,0.3,8.7,0.9c2.4,0.6,4.4,1.6,6.2,2.9c3.5,2.6,5.2,6.2,5.2,10.8c0,5.1-2,9.1-6,12
		c-4.1,3-10.2,4.4-18.2,4.4c-8.6,0-14.7-1.7-18.3-5.2c-2.3-2.2-3.4-5-3.4-8.4c0-2.6,0.8-4.9,2.5-6.7c1.7-1.8,3.8-2.8,6.2-2.8
		c1.8,0,3.2,0.5,4.3,1.6s1.7,2.5,1.7,4.2V777.2z M1812.7,737.9c0,4.3,0.9,7.7,2.7,10.4c1.8,2.7,4.1,4,6.9,4c2.8,0,5-1.3,6.6-4
		c1.6-2.7,2.4-6.3,2.4-11.1c0-4.9-1-8.8-3.1-11.7c-1.5-2.2-3.4-3.2-5.8-3.2c-2.8,0-5.1,1.4-6.8,4.3c-0.9,1.4-1.6,3.1-2.1,5.2
		S1812.7,735.8,1812.7,737.9z"/>
	<path class="st1" d="M1867.1,721c0.6,2.3,0.8,4.4,0.8,6.4v1c4.9-4.9,10.7-7.4,17.4-7.4c5,0,9.1,1.2,12.2,3.5c3,2.3,4.6,5.6,4.6,9.9
		v25c0,2.7,0.2,4.6,0.5,5.9c0.3,1.2,0.9,2.3,1.8,3.1c1.1,1.1,3.1,1.9,6.1,2.4v1.2h-26.1v-1.2c2.4-0.3,4.1-0.8,5.1-1.3
		c1-0.6,1.9-1.5,2.5-2.9c0.4-0.9,0.7-2.3,0.9-4.1c0.2-1.8,0.3-4.5,0.3-7.9v-12.5c0-4.3-0.1-7.4-0.4-9.5c-0.3-2-0.9-3.6-1.7-4.8
		c-0.9-1.4-2.2-2.5-3.9-3.2s-3.6-1.2-5.6-1.2c-2.2,0-4.3,0.4-6.2,1.3c-1.9,0.9-3.4,2-4.5,3.5c-1.2,1.6-2,3.4-2.3,5.3
		c-0.4,2-0.6,5.3-0.6,9.9v11.6l0.1,4.4c0,2.7,0.2,4.6,0.5,5.9c0.3,1.2,0.9,2.3,1.8,3.1c1.1,1.1,3.1,1.9,6.1,2.4v1.2h-26.1v-1.2
		c2.4-0.3,4.1-0.8,5.1-1.3c1-0.6,1.9-1.5,2.5-2.9c0.4-0.9,0.7-2.3,0.9-4.1s0.3-4.5,0.3-7.9v-14.5c0-4-0.1-6.9-0.3-8.5
		c-0.2-1.6-0.6-3-1.3-4c-0.7-1.1-1.5-1.9-2.4-2.4c-0.9-0.5-2.3-0.8-4.1-0.9v-1.2L1867.1,721z"/>
</g>
<text transform="matrix(1 0 0 1 3432.8518 382.4217)"><tspan x="0" y="0" class="st0" style="font-family:'BaskOldFace'; font-size:108.9263px;">AMERICAN</tspan><tspan x="-38.3" y="107.6" class="st0" style="font-family:'BaskOldFace'; font-size:108.9263px;">UNIVERSITY</tspan><tspan x="39.1" y="215.2" class="st0" style="font-family:'BaskOldFace'; font-size:108.9263px;">IN DUBAI</tspan></text>
<text transform="matrix(1 0 0 1 2254.6125 772.1318)" class="st1" style="font-family:'BaskOldFace'; font-size:121.1254px;">School of Architecture, Art, and Design</text>
<rect x="1065.6" y="308.8" class="st2" width="16" height="302.5"/>
<rect x="1879.8" y="308.8" class="st2" width="16" height="302.5"/>
<rect x="1051.7" y="308.8" class="st2" width="8" height="302.5"/>
<rect x="1903" y="308.8" class="st2" width="8" height="302.5"/>
<g>
	<g>
		<path class="st3" d="M9.7,588.4c4.6-0.3,9.6,0.3,13.8-1.2c4.1-1.4,8.9-4.2,11-7.7c9.3-16.2,18-32.8,26.5-49.5
			c27.5-54.3,54.8-108.7,82.1-163.1c9.1-18,18.3-36,27.1-54.1c1.8-3.6,4-4.3,7.8-5c12.8-2.2,19.1,3.2,24.7,14.8
			c25.4,52,51.7,103.4,78,154.9c16.7,32.7,34.1,65.1,50.9,97.7c5,9.6,13,12.8,22.9,13.4c2.8,0.2,5.7,0.6,8.7,0.9
			c0,5.8,0,11.2,0,17.1c-44.8,0-89.4,0-134.4,0c0-5.3,0-10.8,0-16.9c6.2-0.6,12.5-0.9,18.6-2c16.9-3.2,15.4-6.2,10.2-17.9
			c-7.4-16.8-15.9-33.1-24.3-49.4c-0.9-1.7-3.8-3.3-5.8-3.3c-43.1-0.2-86.3-0.2-129.4,0c-1.9,0-4.7,1.3-5.5,2.8
			c-8.6,17-16.9,34.2-25.2,51.3c-0.3,0.6-0.5,1.4-0.7,2c-3.7,11.1-0.8,15.1,10.7,15.5c4.5,0.1,8.9,0.5,14.1,0.8
			c0,5.2,0.3,9.8-0.2,14.4c-0.1,1.2-2.7,3-4.3,3.1c-7.4,0.3-14.8,0.2-22.2,0.2c-18.4-0.1-36.8-0.2-55.2-0.3
			C9.7,600.6,9.7,594.5,9.7,588.4z M103.9,497.4c39.7,0,78.2,0,117.8,0c-20-38.9-39.7-77.1-59.9-116.4
			C142.3,420.3,123.4,458.3,103.9,497.4z"/>
		<path class="st3" d="M680.3,606.9c0-6,0-11.4,0-17.2c3.2-0.4,6.2-0.7,9.2-1.1c2.9-0.3,5.8-0.4,8.6-1c13-2.8,15.9-6,16.8-19.1
			c0.6-8.3,0.8-16.6,0.8-24.9c0.1-40.4,0-80.8,0-121.3c0-2.3,0-4.6,0-6.9c-0.4,0.4-0.8,0.8-1.2,1.2c-8.6-3.6-18-5.8-25.5-10.9
			c-32.4-22.1-26.9-74.6,9.4-91c8.3-3.8,18-6.3,27-6.4c40-0.7,80.1-1.1,120.2,0.1c33.6,1,65.2,9.7,91.2,32.7
			c19.6,17.3,31.7,39.2,37.1,64.5c7.8,35.8,7.7,71.8-3.8,106.8c-15.6,47.9-47.3,79.7-97.4,90.8c-11.3,2.5-23.2,3.6-34.8,3.6
			c-51.2,0.4-102.5,0.2-153.7,0.2C683,607.1,681.8,607,680.3,606.9z M782.6,349.6c0,2.8,0,4.6,0,6.4c0,74.9,0,149.7-0.1,224.6
			c0,4.8,1.2,6.8,6.3,6.6c8.5-0.3,17,0.1,25.4-0.1c18.8-0.6,37.1-3.4,53-14.3c23.9-16.4,37.1-40,42.2-67.9c5.8-31.5,5-63.2-2.5-94.4
			c-5-21.1-15.6-38.9-33.3-52.2c-17.4-13.1-37.6-17-58.5-17.7c-22.5-0.7-45.1-0.3-67.6-0.3c-9,0-18.1-0.3-27.1,0.2
			c-8.2,0.5-15.4,3.6-18.2,12c-2.6,7.5-2.1,15.2,3.6,21.3c5.8,6.3,13.7,6.7,21.6,5.2c1.5-0.3,3.3-3.2,3.3-4.9c0-1.4-2.2-3.5-3.8-4
			c-2.1-0.7-4.6-0.4-7-0.3c-4.8,0.2-7.3-2.2-8.6-6.6c-2.1-7.3,2.7-13.1,11.8-13.2c12.4-0.2,24.9-0.1,37.3-0.1
			C767.7,349.6,774.9,349.6,782.6,349.6z M766.5,586c0-7.1,0-14.2,0-21.4c0-45.6,0-91.2,0-136.8c0-5.9-1.2-7-6.5-6.2
			c-4.8,0.7-3.3,4.5-3.3,7.2c-0.1,50.3-0.1,100.6-0.1,150.9C756.7,587.4,758.1,588.3,766.5,586z M740.5,586.5
			c0.2-1.3,0.5-2.2,0.5-3.1c0-52.5,0-105,0.1-157.4c0-3.5-1.3-4.6-4.8-4.7c-5.2-0.2-4.8,3-4.8,6.4c0,51,0,102.1,0,153.1
			c0,1.8,0,3.5,0,5.7C734.9,586.5,737.7,586.5,740.5,586.5z"/>
		<path class="st3" d="M333.9,326.5c0-6,0-11.9,0-18.1c45.7,0,91.3,0,137.7,0c0,5,0.2,9.9-0.2,14.9c-0.1,1-2.3,2.4-3.7,2.6
			c-5.8,1.1-11.8,1.6-17.6,2.6c-6.3,1.2-11.1,4.5-11.9,11.4c-0.8,6.8-1.8,13.6-1.8,20.4c-0.2,46.7-0.2,93.5,0,140.2
			c0.1,17,1.9,33.8,7,50.1c6.7,21.5,20.4,35.3,42.6,40c19.5,4.1,39.1,3.7,58.1-2.7c22.3-7.6,34.5-24.4,40.7-46.3
			c4.4-15.6,5.7-31.5,5.7-47.6c0-46.4-0.1-92.7-0.2-139.1c0-4.7-0.6-9.3-1.3-14c-1.1-7.6-4.7-11.1-12.8-12.5c-5.5-1-11-1.8-16.6-2.3
			c-3.3-0.3-4.4-1.5-4.3-4.7c0.2-4.3,0-8.5,0-13.1c34.2,0,67.6,0,101.4,0c0,5.8,0,11.3,0,16.9c-6.9,1.1-13.6,2-20.3,3.2
			c-8.3,1.5-12,5.4-12.8,13.7c-0.7,7-1.2,14-1.2,21c-0.1,42.9,0.2,85.9-0.1,128.8c-0.2,21.5-3,42.7-11.5,62.8
			c-11.2,26.2-31,42.8-57.8,50.4c-36,10.2-72.5,9.7-108.4-0.2c-41.4-11.5-65.6-39.5-72.7-81.8c-1.7-10.2-2.4-20.8-2.4-31.2
			c-0.3-42.8,0-85.5-0.2-128.3c0-7-1.3-14-1.7-21c-0.5-8-5.2-12-12.5-13.4C348,328.2,341,327.5,333.9,326.5z"/>
	</g>
</g>
</svg>
